<svg xmlns="http://www.w3.org/2000/svg" viewBox="0 0 445.44 562.34"><defs><style>.cls-1,.cls-2,.cls-5,.cls-6{fill:#7147dd;}.cls-1{opacity:0.2;}.cls-2,.cls-5{opacity:0.3;}.cls-2{font-size:69.3px;font-family:AgencyFB-Bold, Agency FB;font-weight:700;}.cls-3,.cls-4{fill:none;}.cls-3,.cls-6{opacity:0.8;}.cls-7{opacity:0.7;}.cls-8{fill:#26a6b5;stroke:#26a6b5;stroke-miterlimit:10;stroke-width:2px;}</style></defs><title>mf</title><g id="Layer_2" data-name="Layer 2"><g id="Layer_1-2" data-name="Layer 1"><path class="cls-1" d="M0,242.77c90.8-2.11,132.07-30.85,153-56,39.62-47.6,18.71-97.21,66-144,28.4-28.09,77.05-50.88,119-40,91.32,23.71,104.61,195,106,213,2,25.35,16.73,215.73-117,304-84.51,55.79-185.13,42.28-217,38a368,368,0,0,1-110-33"/><text class="cls-2" transform="translate(113 389.9)">€</text><path class="cls-3" d="M248.64,352.82a18.9,18.9,0,0,1-5.38-7.17c-.47-.63-1-1.25-1.48-1.84a26,26,0,0,0-45.51,17.32v7.07h43.52A22,22,0,0,1,248.64,352.82Z"/><path class="cls-3" d="M260.6,352.43a14.19,14.19,0,1,0-13.19-9l.1.13,0,0A14.17,14.17,0,0,0,260.6,352.43Zm-5.07-14.16a5,5,0,1,0,10,0h4.67a9.64,9.64,0,1,1-19.27,0Z"/><path class="cls-3" d="M222.34,322.71a21.5,21.5,0,0,0,14.6-37.31l-36.09,16v.71A21.51,21.51,0,0,0,222.34,322.71Zm-8.28-21.53a8.28,8.28,0,0,0,16.55,0h4.67a12.94,12.94,0,0,1-25.88,0Z"/><path class="cls-4" d="M187.07,417.24v-9.13h-26.8A41.54,41.54,0,0,1,187.07,417.24Z"/><path class="cls-3" d="M243.87,316.07a26.17,26.17,0,0,1-43,.09V339a30.67,30.67,0,0,1,40.94-1.67,18.85,18.85,0,0,1,2.08-7.77Z"/><path class="cls-4" d="M70.93,417h62.78a41.61,41.61,0,0,1,26.56-8.93H70.93Z"/><path class="cls-4" d="M133.47,559.82V560c0,.19,0,.38,0,.56l1,.1-.32-.26C134,560.18,133.69,560,133.47,559.82Z"/><path class="cls-4" d="M187.05,559.82c-.23.19-.49.36-.72.55-.46.36-.91.72-1.39,1.06-.33.24-.67.47-1,.69l2.95-.11a11.55,11.55,0,0,0,.19-2Z"/><path class="cls-3" d="M269.2,355a18.67,18.67,0,0,1-16.16.52,17.39,17.39,0,0,0-8.56,12.69H278.8A17.38,17.38,0,0,0,269.2,355Z"/><path class="cls-3" d="M279.43,338.26a18.77,18.77,0,0,1-6,13.75,22.06,22.06,0,0,1,10.06,16.19h40.33V350.94a30.18,30.18,0,0,0-48.32-24.18,18.74,18.74,0,0,1,3.93,11.48Z"/><path class="cls-3" d="M309.24,264l-40.65,18c0,.5,0,1,0,1.5A25,25,0,1,0,309.24,264Zm-15.65,34A14.51,14.51,0,0,1,279.1,283.5h4.66a9.84,9.84,0,0,0,19.67,0h4.67A14.51,14.51,0,0,1,293.59,298Z"/><path class="cls-3" d="M222.34,279.64A21.53,21.53,0,0,0,201.46,296l31.1-13.76A21.59,21.59,0,0,0,222.34,279.64Z"/><rect class="cls-4" x="249.6" y="533.17" width="8.93" height="8.93"/><path class="cls-4" d="M186.33,453.17c-.46.36-.91.72-1.39,1.06s-.79.55-1.19.82-1,.64-1.52.94-.85.5-1.3.73-1.09.57-1.65.83l-1.37.62c-.58.27-1.18.49-1.79.71s-.94.36-1.42.52c-.64.21-1.29.4-1.95.58-.48.14-1,.28-1.45.4-.7.17-1.42.3-2.13.45-.47.09-.94.19-1.42.27-.81.13-1.64.22-2.47.31-.41,0-.81.11-1.22.14-1.25.1-2.52.15-3.8.15s-2.56-.05-3.81-.15c-.41,0-.81-.1-1.21-.14-.83-.09-1.66-.18-2.47-.31-.48-.08-1-.18-1.42-.27-.72-.14-1.44-.27-2.13-.45-.5-.12-1-.26-1.46-.4-.65-.18-1.3-.37-1.94-.58-.49-.16-.95-.34-1.43-.52s-1.2-.45-1.78-.71-.92-.41-1.37-.62-1.12-.54-1.66-.83-.87-.48-1.29-.73-1-.62-1.52-.94-.81-.54-1.2-.82-.93-.7-1.38-1.06c-.24-.19-.5-.36-.72-.55v.15c0,9.69,12.27,17.87,26.8,17.87s26.8-8.18,26.8-17.87l0-.15C186.82,452.81,186.56,453,186.33,453.17Z"/><path class="cls-4" d="M444,215.77c-1.39-18-14.68-189.29-106-213-41.95-10.88-90.6,11.91-119,40-47.29,46.79-26.38,96.4-66,144-20.93,25.15-62.2,53.89-153,56v282A371.8,371.8,0,0,0,62,548V318.77H196V345.1l.18-.28V302.67c0-.49,0-1,0-1.49a26.2,26.2,0,1,1,52.4,0v22.6a18.81,18.81,0,0,1,23.68-.33,34.85,34.85,0,0,1,56.27,27.49v21.43H330V517.76C460.5,428.64,446,240.93,444,215.77ZM323.25,283.5a29.7,29.7,0,1,1,0-.07Z"/><path class="cls-4" d="M160.27,417c-14.53,0-26.8,8.18-26.8,17.87s12.27,17.86,26.8,17.86,26.8-8.18,26.8-17.86S174.79,417,160.27,417Zm17.11,15.88a4.46,4.46,0,0,1-6.19,1.24,20.67,20.67,0,0,0-21.84,0,4.47,4.47,0,1,1-5-7.44,29.52,29.52,0,0,1,31.76,0A4.47,4.47,0,0,1,177.38,432.92Z"/><path class="cls-4" d="M186.33,542.51c-.46.36-.91.71-1.39,1.06s-.79.54-1.19.81-1,.64-1.52,1-.85.49-1.3.72-1.09.57-1.65.83-.92.43-1.37.63-1.18.48-1.79.71-.94.35-1.42.51c-.64.22-1.29.4-1.95.59-.48.14-1,.28-1.45.39-.7.17-1.42.31-2.13.45-.47.09-.94.2-1.42.27-.81.13-1.64.22-2.47.31-.41,0-.81.11-1.22.14-1.25.1-2.52.16-3.8.16s-2.56-.06-3.81-.16c-.41,0-.81-.1-1.21-.14-.83-.09-1.66-.18-2.47-.31-.48-.07-1-.18-1.42-.27-.72-.13-1.44-.27-2.13-.45-.5-.11-1-.25-1.46-.39-.65-.19-1.3-.37-1.94-.59-.49-.16-.95-.33-1.43-.51s-1.2-.46-1.78-.71-.92-.41-1.37-.63-1.12-.54-1.66-.83-.87-.47-1.29-.72-1-.62-1.52-1-.81-.53-1.2-.81-.93-.7-1.38-1.06c-.24-.2-.5-.37-.72-.56v.16c0,9.68,12.27,17.86,26.8,17.86s26.8-8.18,26.8-17.86l0-.16C186.82,542.14,186.56,542.31,186.33,542.51Z"/><path class="cls-4" d="M186.33,471c-.46.36-.91.72-1.39,1.06s-.79.55-1.19.81-1,.65-1.52.95-.85.49-1.3.73-1.09.56-1.65.83l-1.37.62c-.58.26-1.18.48-1.79.71l-1.42.52c-.64.21-1.29.4-1.95.58-.48.14-1,.28-1.45.4-.7.17-1.42.3-2.13.44-.47.09-.94.2-1.42.28-.81.13-1.64.22-2.47.31-.41,0-.81.1-1.22.13-1.25.1-2.52.16-3.8.16s-2.56-.06-3.81-.16c-.41,0-.81-.09-1.21-.13-.83-.09-1.66-.18-2.47-.31-.48-.08-1-.19-1.42-.28-.72-.13-1.44-.27-2.13-.44-.5-.12-1-.26-1.46-.4-.65-.18-1.3-.37-1.94-.58l-1.43-.52c-.6-.23-1.2-.45-1.78-.71s-.92-.41-1.37-.62-1.12-.54-1.66-.83-.87-.48-1.29-.73-1-.62-1.52-.95-.81-.53-1.2-.81-.93-.7-1.38-1.06c-.24-.19-.5-.36-.72-.56v.16c0,9.68,12.27,17.87,26.8,17.87s26.8-8.19,26.8-17.87l0-.16C186.82,470.68,186.56,470.85,186.33,471Z"/><path class="cls-4" d="M186.33,506.77c-.46.36-.91.72-1.39,1.06s-.79.55-1.19.82-1,.64-1.52.94-.85.5-1.3.73-1.09.57-1.65.83l-1.37.62c-.58.27-1.18.49-1.79.71s-.94.36-1.42.52c-.64.21-1.29.4-1.95.58-.48.14-1,.28-1.45.4-.7.17-1.42.3-2.13.45-.47.09-.94.19-1.42.27-.81.13-1.64.22-2.47.31-.41,0-.81.11-1.22.14-1.25.1-2.52.15-3.8.15s-2.56,0-3.81-.15c-.41,0-.81-.1-1.21-.14-.83-.09-1.66-.18-2.47-.31-.48-.08-1-.18-1.42-.27-.72-.14-1.44-.27-2.13-.45-.5-.12-1-.26-1.46-.4-.65-.18-1.3-.37-1.94-.58-.49-.16-.95-.34-1.43-.52s-1.2-.45-1.78-.71-.92-.41-1.37-.62-1.12-.54-1.66-.83-.87-.48-1.29-.73-1-.62-1.52-.94-.81-.54-1.2-.82-.93-.7-1.38-1.06c-.24-.19-.5-.36-.72-.55v.15c0,9.69,12.27,17.87,26.8,17.87s26.8-8.18,26.8-17.87l0-.15C186.82,506.41,186.56,506.58,186.33,506.77Z"/><path class="cls-4" d="M186.33,524.64c-.46.36-.91.72-1.39,1.06s-.79.55-1.19.81-1,.65-1.52,1-.85.49-1.3.72-1.09.57-1.65.84l-1.37.62c-.58.26-1.18.48-1.79.71l-1.42.52c-.64.21-1.29.4-1.95.58-.48.14-1,.28-1.45.4-.7.17-1.42.3-2.13.44-.47.09-.94.2-1.42.28-.81.13-1.64.22-2.47.31-.41,0-.81.1-1.22.13-1.25.1-2.52.16-3.8.16s-2.56-.06-3.81-.16c-.41,0-.81-.09-1.21-.13-.83-.09-1.66-.18-2.47-.31-.48-.08-1-.19-1.42-.28-.72-.13-1.44-.27-2.13-.44-.5-.12-1-.26-1.46-.4-.65-.18-1.3-.37-1.94-.58l-1.43-.52c-.6-.23-1.2-.45-1.78-.71s-.92-.41-1.37-.62-1.12-.54-1.66-.84-.87-.47-1.29-.72-1-.62-1.52-1-.81-.53-1.2-.81-.93-.7-1.38-1.06c-.24-.19-.5-.36-.72-.56v.16c0,9.68,12.27,17.87,26.8,17.87s26.8-8.19,26.8-17.87l0-.16C186.82,524.28,186.56,524.45,186.33,524.64Z"/><path class="cls-4" d="M186.33,488.91c-.46.36-.91.71-1.39,1.06s-.79.54-1.19.81-1,.64-1.52,1-.85.49-1.3.72-1.09.57-1.65.83-.92.43-1.37.63-1.18.48-1.79.71-.94.35-1.42.51c-.64.22-1.29.4-1.95.59-.48.14-1,.28-1.45.39-.7.17-1.42.31-2.13.45-.47.09-.94.2-1.42.27-.81.13-1.64.22-2.47.31-.41,0-.81.11-1.22.14-1.25.1-2.52.16-3.8.16s-2.56-.06-3.81-.16c-.41,0-.81-.1-1.21-.14-.83-.09-1.66-.18-2.47-.31-.48-.07-1-.18-1.42-.27-.72-.13-1.44-.27-2.13-.45-.5-.11-1-.25-1.46-.39-.65-.19-1.3-.37-1.94-.59-.49-.16-.95-.33-1.43-.51s-1.2-.46-1.78-.71-.92-.41-1.37-.63-1.12-.54-1.66-.83-.87-.47-1.29-.72-1-.62-1.52-1-.81-.53-1.2-.81-.93-.7-1.38-1.06c-.24-.2-.5-.37-.72-.56v.16c0,9.68,12.27,17.86,26.8,17.86s26.8-8.18,26.8-17.86l0-.16C186.82,488.54,186.56,488.71,186.33,488.91Z"/><path class="cls-4" d="M73.91,551A360.44,360.44,0,0,0,110,557.77c3.88.52,8.78,1.18,14.53,1.83V551Z"/><rect class="cls-4" x="213.87" y="533.17" width="8.93" height="8.93"/><path class="cls-3" d="M293.59,258.45h0a25,25,0,0,0-24,18L304.5,261A25.09,25.09,0,0,0,293.59,258.45Z"/><rect class="cls-4" x="213.87" y="497.44" width="8.93" height="8.93"/><rect class="cls-4" x="70.93" y="533.17" width="53.6" height="8.93"/><path class="cls-4" d="M196,381.31V560h16.28A297.14,297.14,0,0,0,257.81,551H240.67v-26.8h26.8v23.88q4.45-1.44,8.93-3.06V488.51h35.73V528.8c3-1.67,6-3.42,8.94-5.25V381.31ZM231.73,551h-26.8v-26.8h26.8Zm0-35.73h-26.8v-26.8h26.8Zm35.74,0h-26.8v-26.8h26.8Zm-62.54-35.74V390.24h107.2v89.33Z"/><path class="cls-4" d="M258.53,448.65c4.28-1.61,17.87-7.59,17.87-18.79,0-4.67-1.71-7.33-5.28-8.12a8.93,8.93,0,0,0-8.55,2.28,4.47,4.47,0,0,1-8.07,0,8.19,8.19,0,0,0-6.46-2.51,8.7,8.7,0,0,0-2.09.23c-3.55.79-5.28,3.45-5.28,8.12C240.67,441.13,254.23,447.05,258.53,448.65Z"/><rect class="cls-4" x="70.93" y="327.71" width="116.13" height="71.47"/><rect class="cls-4" x="249.6" y="497.44" width="8.93" height="8.93"/><path class="cls-4" d="M213.87,470.64H303.2V399.17H213.87ZM244,413a19.2,19.2,0,0,1,14.54,2.68A19.19,19.19,0,0,1,273.08,413a15.86,15.86,0,0,1,12.25,16.84c0,19.88-24.47,27.47-25.51,27.79a4.5,4.5,0,0,1-2.57,0c-1-.32-25.52-7.91-25.52-27.79A15.86,15.86,0,0,1,244,413Z"/><path class="cls-4" d="M70.93,434.91h53.6a20.83,20.83,0,0,1,2.09-8.94H70.93Z"/><rect class="cls-4" x="70.93" y="443.84" width="53.6" height="8.93"/><rect class="cls-4" x="70.93" y="461.71" width="53.6" height="8.93"/><path class="cls-4" d="M285.33,497.44v44.19c6-2.43,11.94-5.11,17.87-8.09v-36.1Z"/><rect class="cls-4" x="70.93" y="497.44" width="53.6" height="8.93"/><rect class="cls-4" x="70.93" y="479.57" width="53.6" height="8.93"/><rect class="cls-4" x="70.93" y="515.31" width="53.6" height="8.93"/><path class="cls-5" d="M328.49,372.37v.48H191.55V361.13a30.58,30.58,0,0,1,4.45-16V318.77H62V548c3.87,1.06,7.84,2.09,11.91,3.06h50.62v8.56q4.18.48,9,.93c0-.18,0-.37,0-.56v-.15c.22.19.48.36.72.55l.32.26a393.87,393.87,0,0,0,49.42,1.49c.34-.22.68-.45,1-.69.48-.34.93-.7,1.39-1.06.23-.19.49-.36.72-.55l0,.15a11.55,11.55,0,0,1-.19,2c8.15-.35,16.65-1,25.4-2H196V381.31H321.07V523.55c2-1.23,4-2.48,5.93-3.78q1.51-1,3-2V372.37Zm-204,169.74H70.93v-8.94h53.6Zm0-17.87H70.93v-8.93h53.6Zm0-17.87H70.93v-8.93h53.6Zm0-17.86H70.93v-8.94h53.6Zm0-17.87H70.93v-8.93h53.6Zm0-17.87H70.93v-8.93h53.6Zm0-17.86H70.93V426h55.69A20.83,20.83,0,0,0,124.53,434.91ZM160.27,560c-14.53,0-26.8-8.18-26.8-17.86V542c.22.19.48.36.72.56.45.36.89.71,1.38,1.06s.79.54,1.2.81,1,.64,1.52,1,.85.49,1.29.72,1.09.57,1.66.83.89.43,1.37.63,1.18.48,1.78.71.94.35,1.43.51c.64.22,1.29.4,1.94.59.49.14,1,.28,1.46.39.69.18,1.41.32,2.13.45.47.09.94.2,1.42.27.81.13,1.64.22,2.47.31.4,0,.8.11,1.21.14,1.25.1,2.52.16,3.81.16s2.55-.06,3.8-.16c.41,0,.81-.1,1.22-.14.83-.09,1.66-.18,2.47-.31.48-.07.95-.18,1.42-.27.71-.14,1.43-.28,2.13-.45.49-.11,1-.25,1.45-.39.66-.19,1.31-.37,1.95-.59.48-.16,1-.33,1.42-.51s1.21-.45,1.79-.71.92-.41,1.37-.63,1.11-.54,1.65-.83.9-.47,1.3-.72,1-.62,1.52-1,.8-.53,1.19-.81.93-.7,1.39-1.06c.23-.2.49-.37.72-.56l0,.16C187.07,551.79,174.79,560,160.27,560Zm0-17.86c-14.53,0-26.8-8.19-26.8-17.87v-.16c.22.2.48.37.72.56.45.36.89.72,1.38,1.06s.79.55,1.2.81,1,.65,1.52,1,.85.49,1.29.72,1.09.57,1.66.84.89.42,1.37.62,1.18.48,1.78.71l1.43.52c.64.21,1.29.4,1.94.58.49.14,1,.28,1.46.4.69.17,1.41.31,2.13.44.47.09.94.2,1.42.28.81.13,1.64.22,2.47.31.4,0,.8.1,1.21.13,1.25.1,2.52.16,3.81.16s2.55-.06,3.8-.16c.41,0,.81-.09,1.22-.13.83-.09,1.66-.18,2.47-.31.48-.08.95-.19,1.42-.28.71-.14,1.43-.27,2.13-.44.49-.12,1-.26,1.45-.4.66-.18,1.31-.37,1.95-.58l1.42-.52c.61-.23,1.21-.45,1.79-.71l1.37-.62c.56-.27,1.11-.54,1.65-.84s.9-.47,1.3-.72,1-.62,1.52-1,.8-.53,1.19-.81.93-.7,1.39-1.06c.23-.19.49-.36.72-.56l0,.16C187.07,533.92,174.79,542.11,160.27,542.11Zm0-17.87c-14.53,0-26.8-8.18-26.8-17.87v-.15c.22.19.48.36.72.55.45.36.89.72,1.38,1.06s.79.55,1.2.82,1,.64,1.52.94.85.5,1.29.73,1.09.57,1.66.83.89.42,1.37.62,1.18.49,1.78.71.94.36,1.43.52c.64.21,1.29.4,1.94.58.49.14,1,.28,1.46.4.69.18,1.41.31,2.13.45.47.09.94.19,1.42.27.81.13,1.64.22,2.47.31.4,0,.8.11,1.21.14q1.88.15,3.81.15c1.28,0,2.55,0,3.8-.15.41,0,.81-.1,1.22-.14.83-.09,1.66-.18,2.47-.31.48-.08.95-.18,1.42-.27.71-.15,1.43-.28,2.13-.45.49-.12,1-.26,1.45-.4.66-.18,1.31-.37,1.95-.58.48-.16,1-.34,1.42-.52s1.21-.44,1.79-.71l1.37-.62c.56-.26,1.11-.54,1.65-.83s.9-.48,1.3-.73,1-.62,1.52-.94.8-.54,1.19-.82.93-.7,1.39-1.06c.23-.19.49-.36.72-.55l0,.15C187.07,516.06,174.79,524.24,160.27,524.24Zm0-17.87c-14.53,0-26.8-8.18-26.8-17.86v-.16c.22.19.48.36.72.56.45.36.89.71,1.38,1.06s.79.54,1.2.81,1,.64,1.52,1,.85.49,1.29.72,1.09.57,1.66.83.89.43,1.37.63,1.18.48,1.78.71.94.35,1.43.51c.64.22,1.29.4,1.94.59.49.14,1,.28,1.46.39.69.18,1.41.32,2.13.45.47.09.94.2,1.42.27.81.13,1.64.22,2.47.31.4,0,.8.11,1.21.14,1.25.1,2.52.16,3.81.16s2.55-.06,3.8-.16c.41,0,.81-.1,1.22-.14.83-.09,1.66-.18,2.47-.31.48-.07.95-.18,1.42-.27.71-.14,1.43-.28,2.13-.45.49-.11,1-.25,1.45-.39.66-.19,1.31-.37,1.95-.59.48-.16,1-.33,1.42-.51s1.21-.45,1.79-.71.92-.41,1.37-.63,1.11-.54,1.65-.83.9-.47,1.3-.72,1-.62,1.52-1,.8-.53,1.19-.81.93-.7,1.39-1.06c.23-.2.49-.37.72-.56l0,.16C187.07,498.19,174.79,506.37,160.27,506.37Zm0-17.86c-14.53,0-26.8-8.19-26.8-17.87v-.16c.22.2.48.37.72.56.45.36.89.72,1.38,1.06s.79.55,1.2.81,1,.65,1.52.95.85.49,1.29.73,1.09.56,1.66.83.89.42,1.37.62,1.18.48,1.78.71l1.43.52c.64.21,1.29.4,1.94.58.49.14,1,.28,1.46.4.69.17,1.41.31,2.13.44.47.09.94.2,1.42.28.81.13,1.64.22,2.47.31.4,0,.8.1,1.21.13,1.25.1,2.52.16,3.81.16s2.55-.06,3.8-.16c.41,0,.81-.09,1.22-.13.83-.09,1.66-.18,2.47-.31.48-.08.95-.19,1.42-.28.71-.14,1.43-.27,2.13-.44.49-.12,1-.26,1.45-.4.66-.18,1.31-.37,1.95-.58l1.42-.52c.61-.23,1.21-.45,1.79-.71l1.37-.62c.56-.27,1.11-.54,1.65-.83s.9-.48,1.3-.73,1-.62,1.52-.95.8-.53,1.19-.81.93-.7,1.39-1.06c.23-.19.49-.36.72-.56l0,.16C187.07,480.32,174.79,488.51,160.27,488.51Zm0-17.87c-14.53,0-26.8-8.18-26.8-17.87v-.15c.22.19.48.36.72.55.45.36.89.72,1.38,1.06s.79.55,1.2.82,1,.64,1.52.94.85.5,1.29.73,1.09.57,1.66.83.89.42,1.37.62,1.18.49,1.78.71.94.36,1.43.52c.64.21,1.29.4,1.94.58.49.14,1,.28,1.46.4.69.18,1.41.31,2.13.45.47.09.94.19,1.42.27.81.13,1.64.22,2.47.31.4,0,.8.11,1.21.14q1.88.15,3.81.15c1.28,0,2.55-.05,3.8-.15.41,0,.81-.1,1.22-.14.83-.09,1.66-.18,2.47-.31.48-.08.95-.18,1.42-.27.71-.15,1.43-.28,2.13-.45.49-.12,1-.26,1.45-.4.66-.18,1.31-.37,1.95-.58.48-.16,1-.34,1.42-.52s1.21-.44,1.79-.71l1.37-.62c.56-.26,1.11-.54,1.65-.83s.9-.48,1.3-.73,1-.62,1.52-.94.8-.54,1.19-.82.93-.7,1.39-1.06c.23-.19.49-.36.72-.55l0,.15C187.07,462.46,174.79,470.64,160.27,470.64Zm0-17.87c-14.53,0-26.8-8.18-26.8-17.86S145.74,417,160.27,417s26.8,8.18,26.8,17.87S174.79,452.77,160.27,452.77Zm26.8-35.53a43.93,43.93,0,0,0-53.36-.2H70.93v-8.93H187.07Zm0-18.07H70.93V327.71H187.07Z"/><path class="cls-5" d="M204.93,390.24v89.33h107.2V390.24Zm98.27,80.4H213.87V399.17H303.2Z"/><path class="cls-5" d="M204.93,515.31h26.8v-26.8h-26.8Zm8.94-17.87h8.93v8.93h-8.93Z"/><path class="cls-5" d="M240.67,515.31h26.8v-26.8h-26.8Zm8.93-17.87h8.93v8.93H249.6Z"/><path class="cls-5" d="M204.93,551h26.8v-26.8h-26.8Zm8.94-17.87h8.93v8.94h-8.93Z"/><path class="cls-5" d="M240.67,524.24V551h17.14q4.81-1.35,9.66-2.92V524.24Zm8.93,17.87v-8.94h8.93v8.94Z"/><path class="cls-5" d="M276.4,488.51v56.55q4.47-1.62,8.93-3.43V497.44H303.2v36.1q4.49-2.26,8.93-4.74V488.51Z"/><path class="cls-5" d="M176.15,426.72a29.52,29.52,0,0,0-31.76,0,4.47,4.47,0,1,0,5,7.44,20.67,20.67,0,0,1,21.84,0,4.47,4.47,0,0,0,5-7.44Z"/><path class="cls-6" d="M293.5,253.77a29.71,29.71,0,1,0,29.75,29.73v-.07A29.71,29.71,0,0,0,293.5,253.77Zm.06,54.75a25,25,0,0,1-25-25.06c0-.5,0-1,0-1.5l-1.44.63-1.89-4.26,4.29-1.9a25,25,0,0,1,24-18h0A25.09,25.09,0,0,1,304.5,261l3.82-1.69,1.89,4.27-1,.43a25,25,0,0,1-15.68,44.54Z"/><path class="cls-6" d="M293.6,293.33a9.84,9.84,0,0,1-9.84-9.83H279.1a14.5,14.5,0,0,0,29,0h-4.67A9.83,9.83,0,0,1,293.6,293.33Z"/><path class="cls-6" d="M198.51,299.84l-.94-2.13,3.89-1.72a21.5,21.5,0,0,1,31.1-13.76l3.87-1.71,1.89,4.27-1.38.61a21.46,21.46,0,0,1,6.93,15.78h4.67a26.2,26.2,0,1,0-52.4,0c0,.5,0,1,0,1.49v-2.83Z"/><path class="cls-6" d="M222.34,327.38a26.2,26.2,0,0,0,21.53-11.31V301.18a21.52,21.52,0,0,1-43,.89v14.09A26.15,26.15,0,0,0,222.34,327.38Z"/><path class="cls-6" d="M222.34,314.12a13,13,0,0,0,12.94-12.94h-4.67a8.28,8.28,0,0,1-16.55,0H209.4A13,13,0,0,0,222.34,314.12Z"/><path class="cls-6" d="M273.43,352a18.46,18.46,0,0,1-4.23,3,17.38,17.38,0,0,1,9.6,13.21h4.69A22.06,22.06,0,0,0,273.43,352Z"/><path class="cls-6" d="M253,355.51a18.81,18.81,0,0,1-4.4-2.69,22,22,0,0,0-8.85,15.38h4.69A17.39,17.39,0,0,1,253,355.51Z"/><path class="cls-6" d="M243.87,330.18v-.59a18.85,18.85,0,0,0-2.08,7.77,32.24,32.24,0,0,1,3.47,3.35,31.17,31.17,0,0,1,2.15,2.71,13.77,13.77,0,1,1,.06.16l-3.78,2.65c-.14-.2-.29-.39-.43-.58A18.9,18.9,0,0,0,260.6,357.1a18.69,18.69,0,0,0,8.6-2.11,18.46,18.46,0,0,0,4.23-3,18.77,18.77,0,0,0,6-13.75v0a18.74,18.74,0,0,0-3.93-11.48c-.62.47-1.22.95-1.8,1.46l-3-3.51c.5-.44,1-.85,1.53-1.26a18.81,18.81,0,0,0-23.68.33v6.4Z"/><path class="cls-6" d="M260.6,347.93a9.68,9.68,0,0,0,9.61-9.66h-4.67a5,5,0,1,1-10,0h-4.59A9.68,9.68,0,0,0,260.6,347.93Z"/><path class="cls-6" d="M200.85,339V301.36l-1.4.62-.94-2.14h-2.33v45A30.71,30.71,0,0,1,200.85,339Z"/><polygon class="cls-6" points="238.32 284.79 236.43 280.52 232.56 282.23 201.46 295.99 197.56 297.71 198.51 299.84 199.45 301.98 200.85 301.36 236.94 285.4 238.32 284.79"/><polygon class="cls-6" points="243.87 316.07 243.87 329.59 243.87 330.18 248.54 330.18 248.54 323.78 248.54 301.18 243.87 301.18 243.87 316.07"/><polygon class="cls-6" points="310.21 263.55 308.32 259.28 304.5 260.97 269.55 276.43 265.26 278.33 267.15 282.59 268.59 281.96 309.24 263.98 310.21 263.55"/><path class="cls-6" d="M191.55,372.85H328.49V350.94a34.85,34.85,0,0,0-56.27-27.49c-.52.41-1,.82-1.53,1.26l3,3.51c.58-.51,1.18-1,1.8-1.46a30.18,30.18,0,0,1,48.32,24.18V368.2H196.27v-7.07a26,26,0,0,1,45.51-17.32c.52.59,1,1.21,1.48,1.84.14.19.29.38.43.58l3.78-2.65,0,0-.1-.13a31.17,31.17,0,0,0-2.15-2.71,32.24,32.24,0,0,0-3.47-3.35,30.72,30.72,0,0,0-45.61,7.46l-.18.28a30.58,30.58,0,0,0-4.45,16Z"/><g class="cls-7"><g id="a"><path class="cls-8" d="M287.33,172.07a7.78,7.78,0,0,0-.75-.9c-.41-.41-.83-.79-1.25-1.15a16.39,16.39,0,0,0-3.95-2.75l.05,0a18.93,18.93,0,0,0-9.05-2.2h-.45l-.6.1h-.45a9.41,9.41,0,0,0-.95.05l-.6.1h.05l-1.65.3a14.72,14.72,0,0,0-2.85.9,19.87,19.87,0,0,0-6.75,4.65v-.05l-.55.7-.6.65h0a18.88,18.88,0,0,0-2.2,3.4,17,17,0,0,0-3.3-4.7h0a18.85,18.85,0,0,0-14.15-6.1,19.12,19.12,0,0,0-14.25,6.1h0a21.39,21.39,0,0,0-1.25,27.95l31,41.1a2.33,2.33,0,0,0,1.25.85,2.15,2.15,0,0,0,1.5,0,2.26,2.26,0,0,0,1.25-.85l31-41.15-.05,0a20.64,20.64,0,0,0,4.7-13.3v-1.05a2.09,2.09,0,0,0,0-.5.58.58,0,0,0-.05-.2,23.48,23.48,0,0,0-1.05-5.25l-.05-.05v-.1a17.37,17.37,0,0,0-2.4-4.65l.05.1a13.68,13.68,0,0,0-1.65-2.1m-.75,8.35a18.83,18.83,0,0,1,.75,3.6,2.31,2.31,0,0,0,.15,1.4v.45a15.93,15.93,0,0,1-3.6,10.2.12.12,0,0,1-.05.05l-29,38.5-29.05-38.5-.05-.1a16.32,16.32,0,0,1,1-21.3v-.05a14.34,14.34,0,0,1,10.65-4.55,14.14,14.14,0,0,1,10.55,4.55v.05q4.17,4.46,4.45,13.2v.3A2.44,2.44,0,0,0,253,190a2.53,2.53,0,0,0,3.55.05,2.33,2.33,0,0,0,.75-1.75v-.05q.15-8.16,3.5-12.5l.05-.05a2.52,2.52,0,0,0,.3-.35.81.81,0,0,0,.25-.3,1.33,1.33,0,0,0,.25-.3l.05-.05a15.18,15.18,0,0,1,5-3.45.21.21,0,0,0,.15-.05,8.88,8.88,0,0,1,1.85-.6l1.3-.25c.05,0,.08,0,.1,0l.6-.1h.65a.66.66,0,0,0,.25-.05l.65,0h.1a13.94,13.94,0,0,1,6.7,1.6l.1.05a12,12,0,0,1,2.8,1.95c.36.32.71.65,1,1a2.44,2.44,0,0,1,.35.4,4.14,4.14,0,0,0,.3.4,8.85,8.85,0,0,1,1.15,1.4c0,.05.06.09.05.1A11.66,11.66,0,0,1,286.58,180.42Z"/></g></g></g></g></svg>