<svg xmlns="http://www.w3.org/2000/svg" viewBox="0 0 462.45 561.62"><defs><style>.cls-1,.cls-6,.cls-8{fill:#7147dd;}.cls-1{opacity:0.2;}.cls-2{opacity:0.3;}.cls-3{fill:none;}.cls-4{fill:#26a6b5;}.cls-5{opacity:0.8;}.cls-7{fill:#8c54a9;}.cls-8{stroke:#7147dd;stroke-miterlimit:10;}</style></defs><title>mkgp</title><g id="Layer_2" data-name="Layer 2"><g id="Layer_1-2" data-name="Layer 1"><path class="cls-1" d="M408,242.77c-51.38-43.69-104.75-5.92-153-56-44.12-45.79-16.65-95.17-66-144-28.4-28.09-77.05-50.88-119-40C38.05,11.06,15.68,37.35,0,68.83,0,205.77,0,249.77,0,427.46c17.7,34.87,43.5,67.6,80.95,92.31,78.92,52.1,170.37,42.76,217,38,47-4.8,80.63-8.23,110-33C483.16,461.35,478,302.36,408,242.77Z"/><g class="cls-2"><path class="cls-3" d="M372.63,331.87c.57.24,1.09.56,1.65.82,1.06.49,2.11,1,3.12,1.56.21.11.43.19.64.31l20.5-20.5L391,306.5l-19.07,19.07v5.59Z"/><rect class="cls-3" x="352.84" y="299.76" width="9.53" height="28.6"/><path class="cls-3" d="M133.54,471.38v74.31C197.48,568,261.46,561.5,298,557.77c43.11-4.4,74.93-7.66,102.55-27.24V471.38Z"/><path class="cls-3" d="M408,242.77c-51.38-43.69-104.75-5.92-153-56-44.12-45.79-16.65-95.17-66-144-28.4-28.09-77.05-50.88-119-40C38.05,11.06,15.68,37.35,0,68.83,0,205.77,0,249.77,0,427.46c17.7,34.87,43.5,67.6,80.95,92.31A234.14,234.14,0,0,0,124,542.13V433.24h22.41A52.36,52.36,0,0,1,124,390.34a23.78,23.78,0,0,1,5.58-15.26,19,19,0,0,1,11.65-32.32,21.62,21.62,0,0,1,30.44-30.61v-2.86a19.07,19.07,0,1,1,38.14,0v4.13a24.71,24.71,0,0,1,9.54,4v-3.34a23.84,23.84,0,1,1,47.67,0v3.34a25,25,0,0,1,32,38.17L297.54,357a23.61,23.61,0,0,1,13.63,5.84l.78-2.52v-.06l1.17-3.33a45.64,45.64,0,0,1,11.57-16.64l-26.26-26.27,21-21,23.83,23.83V290.22h28.61v21.87L391,293l21,21-26.22,26.22a45.35,45.35,0,0,1,14.72,33.37V383c0,.86,0,1.72-.1,2.58h.18l-8.66,47.67h18.12v89.7C483,458.35,477.37,301.8,408,242.77Z"/><path class="cls-3" d="M333,334.3a44.73,44.73,0,0,1,5.79-2.8,42.79,42.79,0,0,1,4.27-1.43L319.47,306.5l-7.56,7.56,20.5,20.51C332.59,334.47,332.8,334.4,333,334.3Z"/><path class="cls-3" d="M186,433.24a13.82,13.82,0,0,0,3.56-.54h0a14.4,14.4,0,0,0,10.73-13.76,43,43,0,0,0-1.81-12.34v0a41.52,41.52,0,0,0-1.77-4.82,43,43,0,0,0-25.27-23.33h-.05a42.55,42.55,0,0,0-14-2.38h-9.53a14.35,14.35,0,0,0-14.31,14.3,43,43,0,0,0,42.91,42.9Z"/><path class="cls-3" d="M209.13,424.21a24.1,24.1,0,0,1-.73,2.61c-.18.48-.41.95-.62,1.43a24.33,24.33,0,0,1-1.09,2.24c-.27.5-.61,1-.88,1.43s-.47.81-.76,1.19v.13h57.21a33.15,33.15,0,0,0-38.44-32.93l-.67.1a32.32,32.32,0,0,0-4.65,1.18l-.81.28a32.4,32.4,0,0,0-4.35,1.91l-.7.39a34.07,34.07,0,0,0-4.13,2.7l-.09.08a52,52,0,0,1,1.4,12,22.39,22.39,0,0,1-.38,4C209.37,423.37,209.23,423.78,209.13,424.21Z"/><path class="cls-3" d="M137.06,369.1l.22-.1c.25-.12.5-.22.76-.33.74-.34,1.5-.64,2.27-.91.35-.12.69-.22,1-.32.74-.21,1.49-.38,2.24-.52l1-.17a23.73,23.73,0,0,1,3.26-.25h9.53a51.73,51.73,0,0,1,5.83.39l1.43.18a53.94,53.94,0,0,1,5.77,1.13h.1c.3-.46.63-.89,1-1.33.17-.26.33-.5.51-.74a23.79,23.79,0,0,1,2-2.33l.18-.15a23.66,23.66,0,0,1,2.14-1.85c.25-.2.53-.37.8-.56.57-.4,1.15-.77,1.75-1.12.33-.19.66-.36,1-.53.59-.3,1.2-.58,1.81-.83.35-.14.69-.29,1-.41.67-.23,1.34-.43,2-.61.32-.08.63-.18,1-.24a23.12,23.12,0,0,1,3.11-.48l-1.48-1.47a25.9,25.9,0,0,1-3.12-3.74,24.8,24.8,0,0,1,6.57-34.44c.36-.25.73-.47,1.1-.7a26.1,26.1,0,0,1,2.86-1.52c.41-.18.81-.37,1.22-.53a25.48,25.48,0,0,1,3.82-1.16c.13,0,.27-.08.41-.1h.08v-4.07a9.54,9.54,0,0,0-19.07,0v4.19a9,9,0,0,1-15.29,6.33,12.09,12.09,0,0,0-17.1,17.1l.41.41a8.71,8.71,0,0,1-6.16,14.88,9.54,9.54,0,0,0-9.54,9.53A9.41,9.41,0,0,0,137.06,369.1Z"/><path class="cls-3" d="M192.17,329.37c-.1.15-.15.32-.25.48a15.15,15.15,0,0,0-1.17,2.22,1.17,1.17,0,0,0-.06.2,15.59,15.59,0,0,0,0,11.25,1.52,1.52,0,0,0,.06.2A14.9,14.9,0,0,0,191.9,346c.1.15.16.32.26.47a15.49,15.49,0,0,0,2,2.39l2.8,2.79a8.72,8.72,0,0,1-6.17,14.88,14.3,14.3,0,0,0-2.77.28l-.71.16a14.12,14.12,0,0,0-2.32.8l-.3.12a14.19,14.19,0,0,0-2.32,1.43l-.52.42a15.14,15.14,0,0,0-1.68,1.62l-.24.26c1.48.71,2.91,1.49,4.34,2.33.4.24.77.51,1.17.76,1,.65,2.06,1.33,3,2.06.48.36,1,.76,1.43,1.14.84.67,1.68,1.35,2.48,2.07.48.44.95.88,1.43,1.35.75.72,1.48,1.47,2.18,2.24.46.49.9,1,1.33,1.49.69.81,1.34,1.64,2,2.49.39.51.78,1,1.14,1.53.66.95,1.27,1.94,1.87,2.93.28.46.58.91.85,1.39q1.13,2,2.08,4.14c.3-.2.59-.42.89-.61s.46-.26.69-.4c.84-.48,1.7-1,2.57-1.43.39-.2.79-.38,1.19-.57.73-.34,1.46-.68,2.21-1,.45-.19.88-.36,1.36-.52.72-.27,1.45-.52,2.17-.74l1.43-.42c.75-.2,1.51-.37,2.26-.54.45-.09.93-.2,1.41-.28.83-.15,1.67-.26,2.51-.36l1.2-.15c1.25-.11,2.51-.17,3.78-.17a43.62,43.62,0,0,1,5.48.38l1.49.23a42.78,42.78,0,0,1,4.19.9c.37.1.75.18,1.13.29a42.6,42.6,0,0,1,4.88,1.8c.36.15.71.34,1.07.51q1.89.9,3.66,1.95c.41.27.82.49,1.23.75a44.27,44.27,0,0,1,4.18,3l.08.07A44.64,44.64,0,0,1,260,403.7l1,1.07c.92,1,1.79,2.11,2.61,3.23l.67.89a43.58,43.58,0,0,1,2.66,4.4l.19.3c0-.1.13-.2.18-.3a41.9,41.9,0,0,1,2.67-4.4c.19-.3.45-.59.67-.89.82-1.12,1.69-2.2,2.61-3.23.3-.36.62-.72.95-1.07a46.3,46.3,0,0,1,3.67-3.47l.08-.07a45.74,45.74,0,0,1,4.19-3c.4-.27.81-.5,1.22-.75a36.56,36.56,0,0,1,3.67-1.95c.35-.17.7-.36,1.06-.51a42.76,42.76,0,0,1,4.89-1.8c.37-.11.75-.19,1.13-.29a42.59,42.59,0,0,1,4.18-.9l1.49-.23a43.46,43.46,0,0,1,5.47-.38h1a14.14,14.14,0,0,0,3.77-9.54,14.3,14.3,0,0,0-14.3-14.3,8.71,8.71,0,0,1-6.16-14.88l2.79-2.79A15.46,15.46,0,0,0,270.4,327a7.57,7.57,0,0,1-12.91-5.35v-7.56a14.3,14.3,0,0,0-28.6,0v7.56A7.56,7.56,0,0,1,216,327a15.45,15.45,0,0,0-23.82,2.4ZM276.56,357v9.53a14.3,14.3,0,0,0-14.3,14.3h-9.53A23.84,23.84,0,0,1,276.56,357Zm-66.74,0A19.07,19.07,0,0,1,248,357v4.76h-9.54V357a9.53,9.53,0,1,0-19.06,0v4.76h-9.54Z"/><rect class="cls-3" x="133.54" y="442.78" width="266.97" height="19.07"/><path class="cls-3" d="M307.2,400c-.67-.05-1.35-.1-2-.1a33.4,33.4,0,0,0-33.37,33.37h66.74a33.47,33.47,0,0,0-23.23-31.79A33.65,33.65,0,0,0,307.6,400Z"/><path class="cls-3" d="M321,393.34l.69.31c.56.24,1.1.49,1.65.74.71.33,1.41.68,2.1,1,.53.29,1.06.59,1.58.9.67.39,1.32.8,2,1.22s1,.68,1.49,1l1.82,1.43c.46.38.92.76,1.37,1.15s1.15,1.07,1.7,1.62.84.81,1.23,1.24c.56.6,1.09,1.23,1.61,1.86.34.43.71.84,1,1.28.56.72,1.06,1.47,1.57,2.23.26.39.53.75.78,1.15.72,1.17,1.41,2.37,2,3.62h23.55v9.54H347a42.46,42.46,0,0,1,1.08,9.53h34.16l6.94-38.14h-22v-9.53h23.7A24.78,24.78,0,0,0,391,383v-9.34a35.78,35.78,0,0,0-56.48-29.08A36.27,36.27,0,0,0,323.61,357h43.53v9.53H320.19a35.76,35.76,0,0,0-.72,7.15V383a23.25,23.25,0,0,0,.39,4.25Zm27.1-7.77h9.54v9.53h-9.54Z"/><path class="cls-4" d="M391.93,433.24l8.66-47.67h-.18c.07-.86.1-1.72.1-2.58v-9.34a45.35,45.35,0,0,0-14.72-33.37L412,314.06l-21-21-19.07,19.07V290.22H343.3v26.63L319.47,293l-21,21,26.26,26.27A45.64,45.64,0,0,0,313.12,357L312,360.3v.06l-.78,2.52A23.61,23.61,0,0,0,297.54,357l1.47-1.47a25,25,0,0,0-32-38.17v-3.34a23.84,23.84,0,1,0-47.67,0v3.34a24.71,24.71,0,0,0-9.54-4v-4.13a19.07,19.07,0,1,0-38.14,0v2.86a21.62,21.62,0,0,0-30.44,30.61,19,19,0,0,0-11.65,32.32A23.78,23.78,0,0,0,124,390.34a52.36,52.36,0,0,0,22.41,42.9H124V542.13q4.77,1.89,9.53,3.56V471.38h267v59.15c2.52-1.78,5-3.69,7.45-5.76.71-.59,1.39-1.21,2.09-1.83v-89.7ZM391,306.5l7.56,7.56L378,334.56c-.21-.12-.43-.2-.64-.31-1-.58-2.06-1.07-3.12-1.56-.56-.26-1.08-.58-1.65-.82l-.71-.71v-5.59Zm-38.14-6.74h9.53v28.6h-9.53Zm-40.93,14.3,7.56-7.56L343,330.07a42.79,42.79,0,0,0-4.27,1.43,44.73,44.73,0,0,0-5.79,2.8c-.18.1-.39.17-.57.27Zm7.56,59.59a35.76,35.76,0,0,1,.72-7.15h46.95V357H323.61a36.27,36.27,0,0,1,10.89-12.4A35.78,35.78,0,0,1,391,373.65V383a24.78,24.78,0,0,1-.14,2.58h-23.7v9.53h22l-6.94,38.14H348.07a42.46,42.46,0,0,0-1.08-9.53h20.15v-9.54H343.59c-.62-1.25-1.31-2.45-2-3.62-.25-.4-.52-.76-.78-1.15-.51-.76-1-1.51-1.57-2.23-.33-.44-.7-.85-1-1.28-.52-.63-1.05-1.26-1.61-1.86-.39-.43-.81-.83-1.23-1.24s-1.11-1.1-1.7-1.62-.91-.77-1.37-1.15l-1.82-1.43c-.48-.36-1-.7-1.49-1s-1.29-.83-2-1.22c-.52-.31-1.05-.61-1.58-.9-.69-.36-1.39-.71-2.1-1-.55-.25-1.09-.5-1.65-.74l-.69-.31-1.11-6.1a23.25,23.25,0,0,1-.39-4.25Zm-4.16,27.8a33.47,33.47,0,0,1,23.23,31.79H271.8a33.4,33.4,0,0,1,33.37-33.37c.68,0,1.36.05,2,.1l.4,0A33.65,33.65,0,0,1,315.31,401.45Zm-110.26-79A15.38,15.38,0,0,1,216,327a7.56,7.56,0,0,0,12.9-5.35v-7.56a14.3,14.3,0,0,1,28.6,0v7.56A7.57,7.57,0,0,0,270.4,327a15.46,15.46,0,0,1,21.86,21.86l-2.79,2.79a8.71,8.71,0,0,0,6.16,14.88,14.3,14.3,0,0,1,14.3,14.3,14.14,14.14,0,0,1-3.77,9.54h-1a43.46,43.46,0,0,0-5.47.38l-1.49.23a42.59,42.59,0,0,0-4.18.9c-.38.1-.76.18-1.13.29a42.76,42.76,0,0,0-4.89,1.8c-.36.15-.71.34-1.06.51a36.56,36.56,0,0,0-3.67,1.95c-.41.25-.82.48-1.22.75a45.74,45.74,0,0,0-4.19,3l-.08.07a46.3,46.3,0,0,0-3.67,3.47c-.33.35-.65.71-.95,1.07-.92,1-1.79,2.11-2.61,3.23-.22.3-.48.59-.67.89a41.9,41.9,0,0,0-2.67,4.4c-.05.1-.13.2-.18.3l-.19-.3a43.58,43.58,0,0,0-2.66-4.4l-.67-.89c-.82-1.12-1.69-2.2-2.61-3.23l-1-1.07a44.64,44.64,0,0,0-3.67-3.47l-.08-.07a44.27,44.27,0,0,0-4.18-3c-.41-.26-.82-.48-1.23-.75q-1.77-1-3.66-1.95c-.36-.17-.71-.36-1.07-.51a42.6,42.6,0,0,0-4.88-1.8c-.38-.11-.76-.19-1.13-.29a42.78,42.78,0,0,0-4.19-.9l-1.49-.23a43.62,43.62,0,0,0-5.48-.38c-1.27,0-2.53.06-3.78.17l-1.2.15c-.84.1-1.68.21-2.51.36-.48.08-1,.19-1.41.28-.75.17-1.51.34-2.26.54l-1.43.42c-.72.22-1.45.47-2.17.74-.48.16-.91.33-1.36.52-.75.3-1.48.64-2.21,1-.4.19-.8.37-1.19.57-.87.45-1.73.95-2.57,1.43-.23.14-.47.26-.69.4s-.59.41-.89.61q-1-2.11-2.08-4.14c-.27-.48-.57-.93-.85-1.39-.6-1-1.21-2-1.87-2.93-.36-.52-.75-1-1.14-1.53-.64-.85-1.29-1.68-2-2.49-.43-.51-.87-1-1.33-1.49-.7-.77-1.43-1.52-2.18-2.24-.48-.47-.95-.91-1.43-1.35-.8-.72-1.64-1.4-2.48-2.07-.48-.38-.95-.78-1.43-1.14-1-.73-2-1.41-3-2.06-.4-.25-.77-.52-1.17-.76-1.43-.84-2.86-1.62-4.34-2.33l.24-.26a15.14,15.14,0,0,1,1.68-1.62l.52-.42a14.19,14.19,0,0,1,2.32-1.43l.3-.12a14.12,14.12,0,0,1,2.32-.8l.71-.16a14.3,14.3,0,0,1,2.77-.28,8.72,8.72,0,0,0,6.17-14.88l-2.8-2.79a15.49,15.49,0,0,1-2-2.39c-.1-.15-.16-.32-.26-.47a14.9,14.9,0,0,1-1.15-2.25,1.52,1.52,0,0,1-.06-.2,15.59,15.59,0,0,1,0-11.25,1.17,1.17,0,0,1,.06-.2,15.15,15.15,0,0,1,1.17-2.22c.1-.16.15-.33.25-.48A15.44,15.44,0,0,1,205.05,322.44ZM208.42,407l.09-.08a34.07,34.07,0,0,1,4.13-2.7l.7-.39a32.4,32.4,0,0,1,4.35-1.91l.81-.28a32.32,32.32,0,0,1,4.65-1.18l.67-.1a33.15,33.15,0,0,1,38.44,32.93H205.05v-.13c.29-.38.48-.8.76-1.19s.61-.93.88-1.43a24.33,24.33,0,0,0,1.09-2.24c.21-.48.44-.95.62-1.43a24.1,24.1,0,0,0,.73-2.61c.1-.43.24-.84.31-1.27a22.39,22.39,0,0,0,.38-4A52,52,0,0,0,208.42,407ZM143.08,352.2a8.71,8.71,0,0,0,6.16-14.88l-.41-.41a12.09,12.09,0,0,1,17.1-17.1,9,9,0,0,0,15.29-6.33v-4.19a9.54,9.54,0,0,1,19.07,0v4.07h-.08c-.14,0-.28.08-.41.1a25.48,25.48,0,0,0-3.82,1.16c-.41.16-.81.35-1.22.53a26.1,26.1,0,0,0-2.86,1.52c-.37.23-.74.45-1.1.7a24.8,24.8,0,0,0-6.57,34.44,25.9,25.9,0,0,0,3.12,3.74l1.48,1.47a23.12,23.12,0,0,0-3.11.48c-.33.06-.64.16-1,.24-.69.18-1.36.38-2,.61-.36.12-.7.27-1,.41-.61.25-1.22.53-1.81.83-.33.17-.66.34-1,.53-.6.35-1.18.72-1.75,1.12-.27.19-.55.36-.8.56a23.66,23.66,0,0,0-2.14,1.85l-.18.15a23.79,23.79,0,0,0-2,2.33c-.18.24-.34.48-.51.74-.32.44-.65.87-1,1.33h-.1a53.94,53.94,0,0,0-5.77-1.13l-1.43-.18a51.73,51.73,0,0,0-5.83-.39h-9.53a23.73,23.73,0,0,0-3.26.25l-1,.17c-.75.14-1.5.31-2.24.52-.35.1-.69.2-1,.32-.77.27-1.53.57-2.27.91-.26.11-.51.21-.76.33l-.22.1a9.41,9.41,0,0,1-3.52-7.37A9.54,9.54,0,0,1,143.08,352.2Zm-9.54,38.14A14.35,14.35,0,0,1,147.85,376h9.53a42.55,42.55,0,0,1,14,2.38h.05a43,43,0,0,1,25.27,23.33,41.52,41.52,0,0,1,1.77,4.82v0a43,43,0,0,1,1.81,12.34,14.4,14.4,0,0,1-10.73,13.76h0a13.82,13.82,0,0,1-3.56.54h-9.53A43,43,0,0,1,133.54,390.34Zm267,71.51h-267V442.78h267Z"/><rect class="cls-4" x="348.07" y="385.57" width="9.53" height="9.53"/><path class="cls-4" d="M219.36,357a9.53,9.53,0,1,1,19.06,0v4.76H248V357a19.07,19.07,0,0,0-38.14,0v4.76h9.54Z"/><path class="cls-4" d="M276.56,366.5V357a23.84,23.84,0,0,0-23.83,23.83h9.53A14.3,14.3,0,0,1,276.56,366.5Z"/></g><g class="cls-5"><path class="cls-3" d="M131,183.86l-.4.28c-1.27.71-2.52,1.46-3.73,2.22,2,0,4.08,0,6.38-.08l-1.57-3Z"/><path class="cls-3" d="M89.62,145.84a53.86,53.86,0,0,1,.16-6.85c-12-1.2-23.17-2-28.88,2.51-6.92,5.68-9,12.91-9.42,22.17v.14c-.28,4.17-.14,8.74,0,13.73v2.24a2.29,2.29,0,0,1,0,.64,20.54,20.54,0,0,1-2.5,5.89c-.75,1.43-1.08,1.81-.75,3.29a2.37,2.37,0,0,1-1.6,2.62,51.55,51.55,0,0,0-10,5.82l-15.4,33.42v2.36h3v-2.36a2.24,2.24,0,0,1,0-.73c.23-.82,5.81-20.59,23-32.1,7.21-4.72,12.93-8.79,17.08-11.78l.23-.17c5.07-3.65,7.77-5.77,7.77-5.77a2.54,2.54,0,0,1,.9-.45,42.59,42.59,0,0,1,16.11-.07C89.78,171.05,90,159.47,89.62,145.84Z"/><path class="cls-3" d="M169,196.53a13.66,13.66,0,0,1,1.12.89,18,18,0,0,1,7.39,5.77c-.7-2.63-1.15-4.43-1.2-4.66a1.94,1.94,0,0,1,0-.59s-.38-2.59-5.37-5.82a34.72,34.72,0,0,0-3.7-2,10.63,10.63,0,0,1-1-.44,20.65,20.65,0,0,0-1.42,4.39Z"/><path class="cls-3" d="M48.8,151.39c-2.62,2.5-5.4,7.4-5.94,17a23.93,23.93,0,0,0,4-5.53A47.08,47.08,0,0,1,48.8,151.39Z"/><path class="cls-3" d="M74.71,185c-.92.71-3.21,2.45-6.79,5a39.38,39.38,0,0,1-5.46,8.77c-1.09,1.53-2.19,3-2.71,3.88.4,2.95,6.81,16.75,12.77,28.27a2.42,2.42,0,0,1,.26,1.27l-.15,1.54H76.8a99.2,99.2,0,0,0-6.07-13.41c-1.3-2.54-2.55-5-3.49-7.07a10.12,10.12,0,0,1-.68-8.48,6.44,6.44,0,0,1,3.15-3.13l17.62-16.82A39.29,39.29,0,0,0,74.71,185Z"/><path class="cls-3" d="M135.71,191l-1.12,0c.95,4.08,2.29,9.06,3.68,13a33.92,33.92,0,0,1,1-6.19Z"/><path class="cls-3" d="M253.41,83.6h20l-1.68-1.49c.27-.32.74-.82,1.34-1.44H254.84v-1c-1,.08-1.91.18-2.87.29v2.21A1.46,1.46,0,0,0,253.41,83.6Z"/><path class="cls-3" d="M179.13,216.32h-.75c1.7,6.57,3.63,14,4.5,17.29h4.57a27.11,27.11,0,0,0-2.36-7.07,124.65,124.65,0,0,1-5-14.34,13.11,13.11,0,0,1-.4,2.47Z"/><path class="cls-3" d="M170.55,179.23a33.73,33.73,0,0,0,6-5.06,15.69,15.69,0,0,1,.59-4.57c-1.19.06-2.37.12-3.56.14Q172.26,174.54,170.55,179.23Z"/><path class="cls-3" d="M279.7,83.6a1.45,1.45,0,0,0,1.44-1.47V79.79a44.24,44.24,0,0,0-4.31,3.81Z"/><path class="cls-3" d="M141.61,215.63c-.16-.16-.3-.34-.44-.5-.9,5.63-1.76,14.42-2.15,18.74h3.15v-1.16a2.41,2.41,0,0,1,0-.38v-.07q1.4-7.92,2.09-15.94h-2Z"/><path class="cls-6" d="M168.41,86.32l-4.75-5.74,9.91-8.52a2.36,2.36,0,1,0-3.08-3.58l-9.19,8L156,65a2.35,2.35,0,1,0-4.39,1.69,1.85,1.85,0,0,0,.13.29l6.55,14.27a2.11,2.11,0,0,0,.26.4v.12L162,86c.6,0,1.21,0,1.82.07Z"/><path class="cls-6" d="M73.2,180.46a2.54,2.54,0,0,0-.9.45s-2.7,2.12-7.77,5.77l-.23.17c-4.15,3-9.87,7.06-17.08,11.78-17.18,11.51-22.76,31.28-23,32.1a2.24,2.24,0,0,0,0,.73v2.36h-3v-2.36L36.66,198a51.55,51.55,0,0,1,10-5.82,2.37,2.37,0,0,0,1.6-2.62c-.33-1.48,0-1.86.75-3.29a20.54,20.54,0,0,0,2.5-5.89,2.29,2.29,0,0,0,0-.64v-2.24c-.14-5-.28-9.56,0-13.73v-.14c.45-9.26,2.5-16.49,9.42-22.17,5.71-4.51,16.87-3.71,28.88-2.51.14-1.62.35-3.23.64-4.81-13-1.2-25.16-2.2-32.32,3.6a27.92,27.92,0,0,0-6,6.5c-3.7.87-14.13,5.3-14.13,27.94a2.35,2.35,0,0,0,2.35,2.35,9.22,9.22,0,0,0,6.32-3.34c0,2.1,0,4.24.14,6.41v1.88a16.17,16.17,0,0,1-1.91,4.34,8.48,8.48,0,0,0-1.56,4.71,76.47,76.47,0,0,0-10,6.17,2.32,2.32,0,0,0-.78.92L16.78,230a2.38,2.38,0,0,0-.21,1v5.13a2.36,2.36,0,0,0,2.36,2.36h7.82a2.36,2.36,0,0,0,2.35-2.36l-.21-4.38c.8-2.59,6.38-19.34,20.89-29.05q4.41-2.94,8.06-5.46A30.87,30.87,0,0,0,55.49,201c-.55,1.09-1.79,3.61,12.67,31.66l-.28,3.42A2.35,2.35,0,0,0,70,238.62h9.61a2.35,2.35,0,0,0,2.36-2c.5-3.51-2.36-9.42-6.83-18.21-1.3-2.54-2.5-4.92-3.39-6.9a6.24,6.24,0,0,1-.73-4.53,1.72,1.72,0,0,1,.87-.89,2.4,2.4,0,0,0,1-.57l15.74-15c.24-3,.46-6.35.65-10.07A42.59,42.59,0,0,0,73.2,180.46ZM42.86,168.4c.54-9.61,3.32-14.51,5.94-17a47.08,47.08,0,0,0-1.94,11.48A23.93,23.93,0,0,1,42.86,168.4Zm26.85,33.31a6.44,6.44,0,0,0-3.15,3.13,10.12,10.12,0,0,0,.68,8.48c.94,2.08,2.19,4.53,3.49,7.07A99.2,99.2,0,0,1,76.8,233.8H72.63l.15-1.54a2.42,2.42,0,0,0-.26-1.27c-6-11.52-12.37-25.32-12.77-28.27.52-.87,1.62-2.35,2.71-3.88a39.38,39.38,0,0,0,5.46-8.77c3.58-2.59,5.87-4.33,6.79-5a39.29,39.29,0,0,1,12.62-.14Z"/><path class="cls-6" d="M216,85.68l-3.13-5.1a2.36,2.36,0,1,0-4.36,1.8,2.84,2.84,0,0,0,.33.56l2.75,4.48h1C213.66,86.8,214.81,86.25,216,85.68Z"/><path class="cls-7" d="M164.85,194.07c-.1.47-.19.94-.25,1.42a31.86,31.86,0,0,1,5.52,1.93,13.66,13.66,0,0,0-1.12-.89Z"/><path class="cls-6" d="M197.44,82.07,210,69.94a2.36,2.36,0,1,0-3.28-3.4L196.33,76.77l-2.54-7.31A2.36,2.36,0,0,0,189.33,71l3.54,10.22L191.5,87.3l4.73.1Z"/><path class="cls-6" d="M166.27,189.68a10.63,10.63,0,0,0,1,.44,34.72,34.72,0,0,1,3.7,2c5,3.23,5.37,5.82,5.37,5.82a1.94,1.94,0,0,0,0,.59c.05.23.5,2,1.2,4.66a14.57,14.57,0,0,1,.82,1.28,13.6,13.6,0,0,1,1.72,7.73,124.65,124.65,0,0,0,5,14.34,27.11,27.11,0,0,1,2.36,7.07h-4.57c-.87-3.26-2.8-10.72-4.5-17.29h-4.92c2.37,8.93,5.27,20.24,5.32,20.4a2.35,2.35,0,0,0,2.36,1.76h8.43a2.38,2.38,0,0,0,1.53-.56c2.05-1.77,1.46-6.2-1.74-13.17a204.46,204.46,0,0,1-8.53-26.9c0-1.37-1.06-5.28-7.51-9.42a37.19,37.19,0,0,0-4.22-2.36l-1-.51c-.45,1.07-.89,2.14-1.36,3.19C166.54,189.06,166.41,189.37,166.27,189.68Z"/><path class="cls-6" d="M176.59,174.17a33.73,33.73,0,0,1-6,5.06c-.75,2.07-1.56,4.12-2.41,6.15a27.36,27.36,0,0,0,11.68-7.91l.87-.82a44.57,44.57,0,0,1,4.5-4,26.62,26.62,0,0,0,4.33-4.08q-6.15.72-12.34,1A15.69,15.69,0,0,0,176.59,174.17Z"/><path class="cls-6" d="M142.17,232.26v.07a2.41,2.41,0,0,0,0,.38v1.16H139c.39-4.32,1.25-13.11,2.15-18.74-2.63-3-3.12-7.36-2.9-11-1.39-4-2.73-9-3.68-13l1.12,0-2.43-4.73c-2.3,0-4.42.07-6.38.08a77.4,77.4,0,0,0-7,4.87c2.93,0,6.26,0,10.12,0,1.06,4.71,3.89,16.28,7.07,21.2-1.34,7.3-2.71,23-2.76,23.56a2.37,2.37,0,0,0,2.16,2.54h8.25a2.35,2.35,0,0,0,2.36-2.35v-3.28q1.4-8.22,2-16.53h-4.87Q143.56,224.33,142.17,232.26Z"/><path class="cls-6" d="M179.51,84.38a2.36,2.36,0,0,0-3.76-2.84,1.43,1.43,0,0,0-.15.22l-3.17,4.78,5.45.27Z"/><path class="cls-6" d="M230.2,79.41a2.35,2.35,0,1,0-3.34-3.32l-.17.18L220,83.78A102.79,102.79,0,0,1,229.69,80Z"/><path class="cls-3" d="M292.81,42.84l-2.64-1.29a11.13,11.13,0,0,1,0,2.58Z"/><path class="cls-3" d="M239.64,72a10.73,10.73,0,0,0,6-2.14c-1-.26-2-.57-3-.91Z"/><path class="cls-3" d="M210.44,97.73,213.39,92c-.78,0-6.62.28-18.21,0l-.76,3.33Z"/><path class="cls-3" d="M184.86,98.25l4.71-2.35.89-4c-4.5-.14-9.69-.34-15.6-.63l-.6.9Z"/><path class="cls-3" d="M93.8,186.46c-.73,10.93-1.72,17.87-2.11,20.32l3.37,4.75h27.21c-.57-4.85-3.54-7.06-6.43-9.42a10.45,10.45,0,0,1-4.57-5.56c-.37-1.7.52-3.6,2.16-5.55a53.09,53.09,0,0,1-18.58-4.15Z"/><path class="cls-3" d="M279.7,83.6h-2.87c-.53.53-1.05,1.08-1.54,1.62l-1.85-1.62h-20A1.46,1.46,0,0,1,252,82.13V79.92a100.32,100.32,0,0,0-29.24,7.8l-4.3,4.78L215.62,98h20.92l5.61-7.26,0,0a2.35,2.35,0,0,1,3.72,2.87l-6.31,8.18a2.36,2.36,0,0,1-1.86.92H211.41l-19.48-2.81-3.54,1.86,4.27,5.49c7.23-.28,15,.14,16.89,3.09,1.1,1.79,10.17,5.89,16.48,7.84a3.16,3.16,0,0,1,2.36,2c1.23,2.71,1.23,10.53-1.13,13s-4.71,3.56-13.22,3.72c-2.63,0-5.48.35-8.26.66q-3.12.36-6.2.54l-2.83,12.37H199a108.25,108.25,0,0,0,2.35,16.21v.4l-5.15,40,1.83,4.31h29.75a14.72,14.72,0,0,0-9-10.57l-3.07-.9,1.77-2.66c1.67-2.45,3.32-14.65,4-22.54v-.95l21.2-18.37c5.58-11,11.64-24,11.64-26.38v-2.36h2.35a14.32,14.32,0,0,0,9.42-3.2l1.14-1,1.41.59,12.67,5.42c11.4.47,24.71,0,26.67-1.89a15.8,15.8,0,0,0,3.79-5.32c-1.67-2.05-5.61-7.07-7.77-9.42a15.53,15.53,0,0,1-3.51-7.07,36.26,36.26,0,0,0-1.11-3.82c-.94-2.49-6.08-7.46-10.08-10.88l-1.53,2L284,89.3l2.9-3.86A12.64,12.64,0,0,0,288.72,78a1.6,1.6,0,0,0-.9-1.08c-1.22-.64-3.86.72-6.68,2.9v2.34A1.45,1.45,0,0,1,279.7,83.6Zm9.35,22.78a2.55,2.55,0,1,1-2.55,2.54A2.54,2.54,0,0,1,289.05,106.38Z"/><path class="cls-3" d="M194.78,138.11a17.52,17.52,0,0,1-6.22-1.46c-7.19-3.37-8-8.11-8-8.62a2.37,2.37,0,0,1,4.71-.57s.63,2.57,5.35,4.92c3.6,1.7,9,1.11,14.74.48a83.6,83.6,0,0,1,8.74-.69c7.85-.09,8.72-1.06,9.75-2.16a18,18,0,0,0,.4-7.45c-3-1-16-5.53-18.65-9.66a32.22,32.22,0,0,0-10.48-1,2.38,2.38,0,0,1-.43,1.51h0a2.37,2.37,0,0,1-3.3.49c-6.26-4.64-14.2-9.38-17-9.73a10.21,10.21,0,0,0,1.65,3.81,13.14,13.14,0,0,0,7.54,6.08,2.36,2.36,0,0,1-.43,4.71h-.42a13.14,13.14,0,0,1-5.47-2.57l-15.8,18.38a2.38,2.38,0,0,1-1.79.82,236.81,236.81,0,0,0-39.41,3.94c-7.86,1.53-16.87.9-25.76.08a48.6,48.6,0,0,0-.16,6.16l.1,0c.41,14.36.15,26.41-.36,36,.75.24,1.5.48,2.24.75,6.45,2.53,10.64,3.71,22.25,4a88.57,88.57,0,0,1,9.77-6.24c20.47-17.9,19.57-30.95,19.57-31.07l4.71-.49c.05.49.66,5.93-4,14.63,10.25,2.07,21.18,2.15,30.16,1.61,1.18-3.09,2.68-6.32,4.14-9.22l-2.36.3a2.34,2.34,0,0,1-2.23-.94,2.36,2.36,0,0,1-.22-2.35l6.79-13.79a2.35,2.35,0,1,1,4.19,2l-4.71,9.8,2.36-.33a2.26,2.26,0,0,1,1.37.26,2.35,2.35,0,0,1,1,3.18,106.46,106.46,0,0,0-5.21,10.75c1.11-.1,2.16-.21,3.16-.32a22,22,0,0,0,3.44-7.09Zm4.61-22.52a2.55,2.55,0,1,1-2.54,2.54A2.55,2.55,0,0,1,199.39,115.59Z"/><path class="cls-3" d="M193.05,163.27c1.07-.15,2-.3,2.76-.43-.32-1.57-.56-3.16-.79-4.75v0A26.34,26.34,0,0,1,193.05,163.27Z"/><path class="cls-3" d="M119.51,134.6a242.86,242.86,0,0,1,39.08-3.89l15.06-18a16.05,16.05,0,0,1-4.2-9.11,4.06,4.06,0,0,1,3.49-4.27c2.4-.4,6.34,1.3,10.22,3.49l-.16-.21L169.5,95l-.19-.19a2.42,2.42,0,0,1-.31-.25L166,90.8l-2.29-.13c-20.59-1.21-41.46,5.86-54.61,18.51a47.44,47.44,0,0,0-13.87,25.44C103.71,135.41,112.3,136,119.51,134.6Z"/><path class="cls-6" d="M94.09,181.57c-.09,1.71-.19,3.35-.29,4.89l1,.39A53.09,53.09,0,0,0,113.43,191a32,32,0,0,1,5.15-4.7c-11.61-.27-15.8-1.45-22.25-4C95.59,182.05,94.84,181.81,94.09,181.57Z"/><path class="cls-6" d="M188.07,150.43a2.26,2.26,0,0,0-1.37-.26l-2.36.33,4.71-9.8a2.36,2.36,0,1,0-4.19-2l-6.79,13.79a2.36,2.36,0,0,0,.22,2.35,2.34,2.34,0,0,0,2.23.94l2.36-.3c-1.46,2.9-3,6.13-4.14,9.22,1.79-.11,3.49-.24,5.1-.38a106.46,106.46,0,0,1,5.21-10.75A2.35,2.35,0,0,0,188.07,150.43Z"/><path class="cls-6" d="M205.78,137.59c2.78-.31,5.63-.61,8.26-.66,8.51-.16,10.86-1.27,13.22-3.72s2.36-10.27,1.13-13a3.16,3.16,0,0,0-2.36-2c-6.31-2-15.38-6-16.48-7.84-1.89-3-9.66-3.37-16.89-3.09l-4.27-5.49,3.54-1.86,19.48,2.81h26.31a2.36,2.36,0,0,0,1.86-.92l6.31-8.18a2.35,2.35,0,0,0-3.72-2.87l0,0L236.54,98H215.62l2.81-5.54,4.3-4.78c-2.75,1.2-5.45,2.51-8.1,4l-.51.33h-.73l-2.95,5.72-16-2.35.76-3.33-4.72-.12-.89,4-4.71,2.35-10.6-6,.6-.9c-2.8-.15-5.79-.31-8.91-.5L169,94.51a2.42,2.42,0,0,0,.31.25l.19.19,13.5,7.71.16.21c-3.88-2.19-7.82-3.89-10.22-3.49a4.06,4.06,0,0,0-3.49,4.27,16.05,16.05,0,0,0,4.2,9.11l-15.06,18a242.86,242.86,0,0,0-39.08,3.89c-7.21,1.4-15.8.81-24.33,0a45.79,45.79,0,0,0-.67,4.82c8.89.82,17.9,1.45,25.76-.08a236.81,236.81,0,0,1,39.41-3.94,2.38,2.38,0,0,0,1.79-.82l15.8-18.38a13.14,13.14,0,0,0,5.47,2.57h.42a2.36,2.36,0,0,0,.43-4.71,13.14,13.14,0,0,1-7.54-6.08,10.21,10.21,0,0,1-1.65-3.81c2.78.35,10.72,5.09,17,9.73a2.37,2.37,0,0,0,3.3-.49h0a2.38,2.38,0,0,0,.43-1.51,32.22,32.22,0,0,1,10.48,1c2.64,4.13,15.62,8.65,18.65,9.66a18,18,0,0,1-.4,7.45c-1,1.1-1.9,2.07-9.75,2.16a83.6,83.6,0,0,0-8.74.69c-5.72.63-11.14,1.22-14.74-.48-4.72-2.35-5.33-4.9-5.35-4.92a2.37,2.37,0,0,0-4.71.57c0,.51.82,5.25,8,8.62a17.52,17.52,0,0,0,6.22,1.46L190.44,157A22,22,0,0,1,187,164c2.33-.25,4.38-.52,6.05-.77a26.34,26.34,0,0,0,2-5.14v0c-.36-2.52-.65-5.05-.76-7.59h2.49l2.83-12.37Q202.65,138,205.78,137.59Z"/><path class="cls-6" d="M199.39,120.68a2.55,2.55,0,1,0-2.54-2.55A2.55,2.55,0,0,0,199.39,120.68Z"/><path class="cls-3" d="M265.33,70.16a34.21,34.21,0,0,1-3.68.73l1.89,3.82c1.36,0,2.73.05,4.09.12l-2.24-4.52A.67.67,0,0,1,265.33,70.16Z"/><path class="cls-3" d="M279.83,53.88l-.41,0A10.61,10.61,0,0,1,274,52.41c-1.18,6.88-7.53,13.59-22,15.65a38.06,38.06,0,0,0,7.14.16,1.22,1.22,0,0,1,.33,0,28.28,28.28,0,0,0,14.1-4.86C277.15,60.78,279.32,57.47,279.83,53.88Z"/><path class="cls-3" d="M271.34,50a1.8,1.8,0,0,1,0-.22,1.47,1.47,0,0,1,.4-1.15,1.42,1.42,0,0,1,2,0,7.85,7.85,0,0,0,11.27,0,8.29,8.29,0,0,0,0-11.51,7.87,7.87,0,0,0-11.27,0l-28,28.62C264.54,64.85,271.34,57.17,271.34,50ZM280,40.8a2,2,0,0,1,2.71,0,2,2,0,0,1,.56,1.37,2,2,0,0,1-.56,1.39,1.91,1.91,0,0,1-1.35.57,1.93,1.93,0,0,1-1.36-.57,2,2,0,0,1-.56-1.39A2,2,0,0,1,280,40.8Z"/><path class="cls-3" d="M149.52,209.7c0,.66-.07,1.33-.11,2h22.82c-.66-2.47-1.21-4.43-1.51-5.4a11.28,11.28,0,0,0-2.61-4.49,27.1,27.1,0,0,0-5.25-1.77,3.8,3.8,0,0,1-2.52-2.17,4.6,4.6,0,0,1-.35-1.31L150.54,191C150.09,196.25,149.36,205.62,149.52,209.7Z"/><path class="cls-3" d="M145.73,190.78l-4.74.11,3.4,6.6-.28.92c-.78,2.59-2.12,9.71.37,13.29h.12c0-.58.09-1.16.12-1.74C144.55,205.6,145.28,196.13,145.73,190.78Z"/><path class="cls-3" d="M145.9,167.53A75.14,75.14,0,0,1,135.39,180l3.17,6.16,3.59-.09-2.78-1.65a2.36,2.36,0,0,1,2.36-4.05l18.89,11.18a36.48,36.48,0,0,1,1.79-4.65,12.24,12.24,0,0,1-1.13-1.35,2.34,2.34,0,0,1-1-1.79v-.16a25.4,25.4,0,0,1-.85-9.42,2.36,2.36,0,1,1,4.72.26,23.37,23.37,0,0,0,.33,6.78l.23,0c1.48-3.72,2.86-7.48,4-11.31A109.14,109.14,0,0,1,145.9,167.53Z"/><path class="cls-6" d="M172.23,211.7h3.21a9,9,0,0,0-1.21-4.85,13.56,13.56,0,0,0-6.12-5,11.28,11.28,0,0,1,2.61,4.49C171,207.27,171.57,209.23,172.23,211.7Z"/><path class="cls-6" d="M164.18,174.46a2.36,2.36,0,1,0-4.72-.26,25.4,25.4,0,0,0,.85,9.42v.16a2.34,2.34,0,0,0,1,1.79,12.24,12.24,0,0,0,1.13,1.35h0c.84-1.88,1.58-3.8,2.33-5.72l-.23,0A23.37,23.37,0,0,1,164.18,174.46Z"/><path class="cls-6" d="M138.61,181.57a2.35,2.35,0,0,0,.76,2.87l2.78,1.65-3.59.09,2.43,4.71,4.74-.11c-.45,5.35-1.18,14.82-1,19.18,0,.58-.09,1.16-.12,1.74h4.81c0-.67.09-1.34.11-2-.16-4.08.57-13.45,1-18.68l9.45,5.54a12.48,12.48,0,0,1,.63-5l-18.89-11.18A2.36,2.36,0,0,0,138.61,181.57Z"/><path class="cls-3" d="M273.1,80.67l.75-.77a99.86,99.86,0,0,0-19-.27v1Z"/><path class="cls-3" d="M246.67,158.27l-.21.4-.35.31L231.5,171.75l14.89,26.31-.28,1s-2.15,7.82.75,12.67h29.66a15.22,15.22,0,0,0-13.24-12l-1.13-.19-.54-1c-2.55-4.78-9-32.18-11.1-47.91C249,153.8,247.52,156.6,246.67,158.27Z"/><path class="cls-6" d="M289.05,111.47a2.55,2.55,0,1,0-2.55-2.55A2.55,2.55,0,0,0,289.05,111.47Z"/><path class="cls-6" d="M276.38,75.63q-2.72-.36-5.43-.59l.29.59Z"/><path class="cls-6" d="M273.85,79.9l-.75.77h5.17V78.56H254.84v1.07A99.86,99.86,0,0,1,273.85,79.9Z"/><path class="cls-6" d="M276.83,83.6h-3.39l1.85,1.62C275.78,84.68,276.3,84.13,276.83,83.6Z"/><path class="cls-6" d="M264,75.63h4l-.4-.8c-1.36-.07-2.73-.11-4.09-.12Z"/><path class="cls-6" d="M316.33,119.59c-.24-.3-5.84-7.39-8.74-10.67a10.87,10.87,0,0,1-2.59-5.27,39.52,39.52,0,0,0-1.3-4.17C302.15,95.33,295,89,291.76,86.21a14.9,14.9,0,0,0,1.39-9.42,6.37,6.37,0,0,0-3.25-3.93c-3.29-1.71-7.46.21-11,2.77h.8a1.45,1.45,0,0,1,1.44,1.47v2.69c2.82-2.18,5.46-3.54,6.68-2.9a1.6,1.6,0,0,1,.9,1.08,12.64,12.64,0,0,1-1.81,7.47L284,89.3l3.77,2.83,1.53-2c4,3.42,9.14,8.39,10.08,10.88a36.26,36.26,0,0,1,1.11,3.82,15.53,15.53,0,0,0,3.51,7.07c2.16,2.35,6.1,7.37,7.77,9.42a15.8,15.8,0,0,1-3.79,5.32c-2,1.86-15.27,2.36-26.67,1.89l-12.67-5.42-1.41-.59-1.14,1a14.32,14.32,0,0,1-9.42,3.2h-2.35v2.36c0,2.35-6.06,15.36-11.64,26.38l-21.2,18.37v.95c-.71,7.89-2.36,20.09-4,22.54L215.69,200l3.07.9a14.72,14.72,0,0,1,9,10.57H198l-1.83-4.31,5.15-40v-.4A108.25,108.25,0,0,1,199,150.5h-2.22L195,158.09c.23,1.59.47,3.18.79,4.75-.75.13-1.69.28-2.76.43a26,26,0,0,1-3.53,5.34c2.38-.29,4.75-.6,7.12-1l-5.3,40.43,3.55,8.36h37.69l.15-2.19c.54-8.13-5.35-14.13-10-16.49a119.91,119.91,0,0,0,3.56-21.2l1.72-1.48,13.4,23.6c-.66,2.9-2,11.33,2.36,16.89l.71.89h37.1v-2.35a19.87,19.87,0,0,0-16.23-18.85c-4.2-9.73-11.64-49.23-10.63-53.42a85.81,85.81,0,0,0,4-10.25,19.7,19.7,0,0,0,9.42-3.39l12.18,5.18h.43c6.05.33,26.14,1.06,30.62-3.13a18.2,18.2,0,0,0,5.39-8.67l.24-1.09Zm-54.72,78.87.54,1,1.13.19a15.22,15.22,0,0,1,13.24,12H246.86c-2.9-4.85-.75-12.67-.75-12.67l.28-1L231.5,171.75,246.11,159l.35-.31.21-.4c.85-1.67,2.36-4.47,3.84-7.72C252.61,166.28,259.06,193.68,261.61,198.46Z"/><path class="cls-6" d="M95.18,134.62a47.44,47.44,0,0,1,13.87-25.44c13.15-12.65,34-19.72,54.61-18.51l2.29.13L162,86c-21.23-.85-42.62,6.66-56.22,19.81a52,52,0,0,0-15.34,28.39l1.53.14Z"/><path class="cls-6" d="M149.41,211.7c-.07,1.54-.16,3.08-.28,4.62h24.33c-.43-1.65-.85-3.22-1.23-4.62Z"/><path class="cls-6" d="M111.27,196.55a10.45,10.45,0,0,0,4.57,5.56c2.89,2.36,5.86,4.57,6.43,9.42H95.06l-3.37-4.75c.39-2.45,1.38-9.39,2.11-20.32l-.69-.25-4.45,4.25c-.85,10.66-1.87,16.48-1.89,16.62l-.17.94,5.87,8.56,34.37-.17v-2.36c.28-8.9-4.9-12.93-8.34-15.59-1.34-1-2.71-2.12-2.85-2.69.13-.87,1.78-2.56,4.27-4.54-2.43,0-4.55-.11-6.49-.23C111.79,193,110.9,194.85,111.27,196.55Z"/><path class="cls-7" d="M168.06,185.56l.08-.18-.24.1Z"/><path class="cls-6" d="M213.39,92l.44-.85-2.29-3.74c-2.35,0-7.41.11-15.31,0l-1,4.65C206.77,92.29,212.61,92.06,213.39,92Z"/><path class="cls-6" d="M190.46,91.93l1-4.63c-4-.1-8.52-.26-13.62-.49l-3,4.49C180.77,91.59,186,91.79,190.46,91.93Z"/><path class="cls-6" d="M252,79.92V77.1a1.46,1.46,0,0,1,1.44-1.47h7.38l-.46-.91A104.36,104.36,0,0,0,229.69,80l-7,7.75A100.32,100.32,0,0,1,252,79.92Z"/><path class="cls-6" d="M175.44,205a16.18,16.18,0,0,0-5.32-7.61,31.86,31.86,0,0,0-5.52-1.93c.06-.48.15-1,.25-1.42l-4.23-2.5a12.48,12.48,0,0,0-.63,5l6.61,3.88a10.92,10.92,0,0,1,1.51,1.37,13.56,13.56,0,0,1,6.12,5,9,9,0,0,1,1.21,4.85h-3.21c.38,1.4.8,3,1.23,4.62h4.92C177.06,211.26,175.89,206.72,175.44,205Z"/><path class="cls-6" d="M174.86,91.3l3-4.49-5.45-.27-1.71,2.57-2.31-2.79-4.61-.27c-.61,0-1.22,0-1.82-.07l4,4.82C169.07,91,172.06,91.15,174.86,91.3Z"/><path class="cls-6" d="M187,164a21.94,21.94,0,0,1-4.59,4.69l-.43.33c.58-1.58,1.21-3.15,1.86-4.7-1.61.14-3.31.27-5.1.38a45.08,45.08,0,0,0-1.56,4.86q6.19-.27,12.34-1a26,26,0,0,0,3.53-5.34C191.38,163.52,189.33,163.79,187,164Z"/><path class="cls-6" d="M178.33,204.47a14.57,14.57,0,0,0-.82-1.28c.66,2.46,1.54,5.65,2.54,9A13.6,13.6,0,0,0,178.33,204.47Z"/><path class="cls-6" d="M213.39,92h.73l.51-.33c2.65-1.45,5.35-2.76,8.1-4l7-7.75A102.79,102.79,0,0,0,220,83.78l-3.08,3.45-1-1.55c-1.14.57-2.29,1.12-3.41,1.73h-1l2.29,3.74Z"/><path class="cls-6" d="M164.74,181.2c-.75,1.92-1.49,3.84-2.33,5.72h0a13.23,13.23,0,0,0,3.86,2.76c.14-.31.27-.62.43-.93.47-1.05.91-2.12,1.36-3.19l-.16-.08.24-.1c.85-2,1.66-4.08,2.41-6.15A14.09,14.09,0,0,1,164.74,181.2Z"/><path class="cls-6" d="M141.18,210.31a23.77,23.77,0,0,1-2.91-6.23c-.22,3.69.27,8,2.9,11,.17-1.08.34-2,.51-2.84A2.36,2.36,0,0,0,141.18,210.31Z"/><path class="cls-6" d="M93.8,186.46c.1-1.54.2-3.18.29-4.89a43.87,43.87,0,0,0-4.78-1.18c-.19,3.72-.41,7.1-.65,10.07l4.45-4.25Z"/><path class="cls-6" d="M118.58,186.3a32,32,0,0,0-5.15,4.7c1.94.12,4.06.2,6.49.23a77.4,77.4,0,0,1,7-4.87C123.74,186.38,121,186.36,118.58,186.3Z"/><path class="cls-6" d="M195,158.09l1.73-7.59h-2.49C194.37,153,194.66,155.57,195,158.09Z"/><path class="cls-6" d="M91.36,139.14l3.15.3a45.79,45.79,0,0,1,.67-4.82l-3.23-.3-1.53-.14c-.29,1.58-.5,3.19-.64,4.81Z"/><path class="cls-6" d="M144.6,211.7c-.1,1.54-.21,3.08-.34,4.62h4.87c.12-1.54.21-3.08.28-4.62Z"/><path class="cls-6" d="M195.18,92.05l1-4.65-4.73-.1-1,4.63Z"/><path class="cls-6" d="M138.56,186.18l-5.28.1,2.43,4.73,5.28-.12Z"/><path class="cls-8" d="M261.65,70.89a34.21,34.21,0,0,0,3.68-.73.67.67,0,0,0,.06.15l2.24,4.52c1.1,0,2.21.12,3.32.21l-2.83-5.7a27.23,27.23,0,0,0,7.12-3.6c4.53-3.26,7.17-7.62,7.53-12.39a10.68,10.68,0,0,0,4.32-2.69,11,11,0,0,0,2-2.73l7.7-3.77a1.48,1.48,0,0,0,.82-1.32,1.46,1.46,0,0,0-.82-1.32L289,37.75a11.24,11.24,0,0,0-2-2.74,10.7,10.7,0,0,0-15.33,0l-30.54,31.2h0l-5.72,5.84,0,0a1.39,1.39,0,0,0-.28.43.14.14,0,0,0,0,.07.5.5,0,0,0-.05.13,1.48,1.48,0,0,0,0,.35v.06a1.58,1.58,0,0,0,.1.49.14.14,0,0,1,0,.06,1.52,1.52,0,0,0,.28.43l0,0,0,0a1.37,1.37,0,0,0,.42.29l.06,0,.13,0a11.92,11.92,0,0,0,3.13.42,14.08,14.08,0,0,0,9.85-4.32,41.64,41.64,0,0,0,7.25.64c.74,0,1.47,0,2.2-.07l1.76,3.55c1.07,0,2.14,0,3.21,0Zm28.52-29.34,2.64,1.29-2.64,1.29A11.13,11.13,0,0,0,290.17,41.55ZM239.64,72l3-3c1,.34,2,.65,3,.91A10.73,10.73,0,0,1,239.64,72Zm6.13-6.27,28-28.62a7.87,7.87,0,0,1,11.27,0,8.29,8.29,0,0,1,0,11.51,7.85,7.85,0,0,1-11.27,0,1.42,1.42,0,0,0-2,0,1.47,1.47,0,0,0-.4,1.15,1.8,1.8,0,0,0,0,.22C271.34,57.17,264.54,64.85,245.77,65.7Zm13.72,2.5a1.22,1.22,0,0,0-.33,0,38.06,38.06,0,0,1-7.14-.16c14.45-2.06,20.8-8.77,22-15.65a10.61,10.61,0,0,0,5.42,1.49l.41,0c-.51,3.59-2.68,6.9-6.24,9.46A28.28,28.28,0,0,1,259.49,68.2Z"/><path class="cls-6" d="M281.39,44.13a1.91,1.91,0,0,0,1.35-.57,2,2,0,0,0,.56-1.39,2,2,0,0,0-.56-1.37,2,2,0,0,0-2.71,0,2,2,0,0,0-.56,1.37,2,2,0,0,0,.56,1.39A1.93,1.93,0,0,0,281.39,44.13Z"/><path class="cls-7" d="M278.9,75.63h-2.52c.71.1,1.41.18,2.12.29Z"/><path class="cls-6" d="M253.41,75.63A1.46,1.46,0,0,0,252,77.1v2.82c1-.11,1.91-.21,2.87-.29V78.56h23.43v2.11H273.1c-.6.62-1.07,1.12-1.34,1.44l1.68,1.49h3.39a44.24,44.24,0,0,1,4.31-3.81V77.1a1.45,1.45,0,0,0-1.44-1.47h-.8l-.4.29c-.71-.11-1.41-.19-2.12-.29h-5.14L271,75c-1.11-.09-2.22-.16-3.32-.21l.4.8h-4l-.46-.92c-1.07,0-2.14,0-3.21,0l.46.91Z"/></g></g></g></svg>