<svg xmlns="http://www.w3.org/2000/svg" viewBox="0 0 463.44 561.62"><defs><style>.cls-1,.cls-5{fill:#7147dd;}.cls-1{opacity:0.2;}.cls-2{opacity:0.3;}.cls-3{fill:none;}.cls-4{fill:#26a6b5;}.cls-5{opacity:0.8;}</style></defs><title>mzz</title><g id="Layer_2" data-name="Layer 2"><g id="Layer_1-2" data-name="Layer 1"><path class="cls-1" d="M408,242.77c-51.38-43.69-104.75-5.92-153-56-44.12-45.79-16.65-95.17-66-144-28.4-28.09-77.05-50.88-119-40C38.05,11.06,15.68,37.35,0,68.83,0,205.77,0,249.77,0,427.46c17.7,34.87,43.5,67.6,80.95,92.31,78.92,52.1,170.37,42.76,217,38,47-4.8,80.63-8.23,110-33C483.16,461.35,478,302.36,408,242.77Z"/><g class="cls-2"><path class="cls-3" d="M151.6,162.42a4.21,4.21,0,0,1,2.07,2.53l1.71,5.6a4.3,4.3,0,0,1-.32,3.24l-3.9,7.32a4.22,4.22,0,0,1-2.52,2.07l-7.12,2.17,1.66,5.44,4.19,2.24,9.53-2.91a4.27,4.27,0,0,1,3.25.31l5.75,3.07,9.52-2.9a4.32,4.32,0,0,1,3.25.32l5.76,3.07,22.07-6.74-55.18-29.39-5.26,1.61Z"/><path class="cls-3" d="M194.83,284a4.26,4.26,0,0,1,2.08,2.53l2.89,9.52,5.75,3.06a4.27,4.27,0,0,1,2.08,2.52l.46,1.52,1.51-.46a4.3,4.3,0,0,1,3.26.31l7.32,3.9a4.24,4.24,0,0,1,2.08,2.52l1.2,3.91,11.5,6.12,2.23-.67,1.06-2L227.38,311a4.22,4.22,0,0,1-2.07-2.52L222.4,299l-5.75-3.06a4.24,4.24,0,0,1-2.07-2.53l-2.18-7.12-1.52.46a4.26,4.26,0,0,1-5.33-2.84l-2.18-7.12-1.51.46a4.27,4.27,0,0,1-3.25-.31l-5.76-3.07L182,277.18Z"/><path class="cls-3" d="M448.84,378.56,444,362.67l-6.74,2.06,3.31,1.11a4.11,4.11,0,0,1,.65.28,4.28,4.28,0,0,1,1.74,1.71Z"/><polygon class="cls-3" points="171.32 271.5 182.19 268.18 170.86 262.14 168.64 262.82 166.41 267 167.11 269.25 171.32 271.5"/><path class="cls-3" d="M93.57,163.23a4.22,4.22,0,0,1-3.25-.32l-5.76-3.06-3.91,1.2a4.27,4.27,0,0,1-3.25-.32l-5.76-3.07-5.44,1.67,4.35,14.26,23.94-7.31a4.23,4.23,0,0,1,3.25.32l5.53,2.94-2.58-8.48Z"/><path class="cls-3" d="M227.3,375.29l-3.42-11.22a4.23,4.23,0,0,1,.32-3.25l3.06-5.75L222.65,340a4.28,4.28,0,0,1,.31-3.25l3.89-7.32a4.31,4.31,0,0,1,2.54-2.08l1.33-.4-12.84-6.84a4.26,4.26,0,0,1-2.07-2.52l-1.2-3.92-4.2-2.23-3.9,1.19a4.28,4.28,0,0,1-3.25-.31h0a4.29,4.29,0,0,1-2.07-2.52l-1.2-3.92-5.76-3.06a4.22,4.22,0,0,1-2.07-2.52l-2.9-9.53-11.51-6.12-3.92,1.2a4.28,4.28,0,0,1-3.25-.32l-5.76-3.07-24.63,7.52-13.92,26.15,5.8,19,11.51,6.13,3.93-1.19a4.25,4.25,0,0,1,3.24.31l7.31,3.89a4.22,4.22,0,0,1,2.07,2.52l1.72,5.61a4.23,4.23,0,0,1-.32,3.25l-7,13.07,4.61,15.12a4.23,4.23,0,0,1-.32,3.25L155,394.39a4.29,4.29,0,0,1-2.52,2.07l-3.92,1.2-6.13,11.51,1.19,3.92a4.28,4.28,0,0,1-.31,3.25l-3.06,5.74,1.19,3.91a4.3,4.3,0,0,1-.31,3.26L138,435l2.39,7.81,4.19,2.23,19-5.8,3.06-5.75a4.22,4.22,0,0,1,2.52-2.07l26.33-8.05,2.23-4.19-1.19-3.91a4.27,4.27,0,0,1,.32-3.25l7.79-14.63a4.23,4.23,0,0,1,2.52-2.08l31.94-9.74,1.06-2-10.87-5.78A4.24,4.24,0,0,1,227.3,375.29Z"/><path class="cls-3" d="M60.38,195.06a4.23,4.23,0,0,1,3.25.32l5.76,3.06,20.73-6.32a4.28,4.28,0,0,1,3.25.31l5.75,3.06,5.43-1.66-1.66-5.42-5.75-3.06a4.27,4.27,0,0,1-1.76-5.78L97.27,176l-2-1.06L69,183a4.39,4.39,0,0,1-5.33-2.84l-6.84-22.42a4.26,4.26,0,0,1,2.84-5.33L70.82,149a4.23,4.23,0,0,1,3.25.32l5.77,3.06,3.9-1.19a4.3,4.3,0,0,1,3.26.31l5.75,3.07,9.51-2.9a4.26,4.26,0,0,1,5.33,2.84l5.59,18.33,5.43-1.66,2.23-4.19L118,157.46a4.26,4.26,0,0,1,2.84-5.32l12.56-3.83-11.28-6-20.73,6.32a4.23,4.23,0,0,1-3.25-.32l-5.76-3.06-9.52,2.9a4.27,4.27,0,0,1-5.33-2.83l-2.9-9.52-18.82-10-9.51,2.9a4.3,4.3,0,0,1-3.26-.31L21.05,116.67A4.26,4.26,0,0,1,19,114.14l-1.19-3.91L1,101.29c0,37.51,0,68.14,0,98.31l16.22,8.63Z"/><path class="cls-3" d="M106.28,179.4l-.42-1.34-.93,1.75h0l2.26,1.21A4.41,4.41,0,0,1,106.28,179.4Z"/><path class="cls-3" d="M396.37,499.71a4.11,4.11,0,0,1,.76,1.43l2.91,9.52,4,2.11L400.7,501.9Z"/><path class="cls-3" d="M459.15,387.37a4.27,4.27,0,0,1-7.85-.76v0l-.12.24-7.79,14.63a4.25,4.25,0,0,1-2.53,2.08l-5.58,1.7,1.29,4.2a4.28,4.28,0,0,1-2.84,5.33l-22.42,6.85a4.28,4.28,0,0,1-5.33-2.84l-1.7-5.62a4.25,4.25,0,0,1,1.27-4.45l-.44.07-2.39.18-1.59,8.55a4.23,4.23,0,0,1-2.88,3.28l-20.68,6.68a4.22,4.22,0,0,1-2.95-.12,4.16,4.16,0,0,1-1.69,1.25l-4.94,2a4.25,4.25,0,0,1-3.59-.19l-.18-.1A4.16,4.16,0,0,1,362.9,429l.81,2.66a4.3,4.3,0,0,1-.31,3.26l-3.91,7.32a4.23,4.23,0,0,1-2.52,2.08l-11.21,3.41a4,4,0,0,1-1.6.17l.55,1.82a4.28,4.28,0,0,1-.32,3.25l-3.89,7.3a4.25,4.25,0,0,1-4.15,2.25l3.46,11.35,4.54,2.42a4.28,4.28,0,0,1-1-1.66L341.67,469a4.27,4.27,0,0,1,2.84-5.32l9.51-2.91,3.06-5.74a4.26,4.26,0,0,1,5.77-1.76l7.32,3.9a4.27,4.27,0,0,1,2.08,2.52l1.71,5.6a4.3,4.3,0,0,1,.11,1.95l3.26-6.12a4.27,4.27,0,0,1,5.77-1.77l7.31,3.89a4.27,4.27,0,0,1,1.76,5.78l-3.89,7.31a4.27,4.27,0,0,1-5.78,1.77l-7.3-3.9a4.24,4.24,0,0,1-2.11-4.86,4.35,4.35,0,0,1-2,1.29l-3.91,1.18-3.06,5.75a4.3,4.3,0,0,1-2.52,2.08L356,481.39a4.28,4.28,0,0,1-3.25-.31l-6.1-3.25a4.29,4.29,0,0,1,1,1.65l1.71,5.6a4.26,4.26,0,0,1-6.08,5l-14.63-7.79a4.24,4.24,0,0,1-2.08-2.52l-8.55-28a4.26,4.26,0,0,1,.32-3.26l3.89-7.3a4.26,4.26,0,0,1,4.15-2.25l-.56-1.82a4.23,4.23,0,0,1,.32-3.25l7-13.08-5.81-19-4.2-2.23-13.43,4.08-7,13.06a4.25,4.25,0,0,1-2.51,2.08l-5.6,1.72a4.26,4.26,0,0,1-3.26-.31h0a4.26,4.26,0,0,1-2.08-2.53L287.53,412a4.27,4.27,0,0,1,.32-3.25l3.06-5.75-2.9-9.51a4.22,4.22,0,0,1,.32-3.25l3.06-5.76-4.1-13.43-11.3-6,.42,1.36a4.26,4.26,0,0,1-2.84,5.33l-22.41,6.83a4.32,4.32,0,0,1-2.31,0,4.27,4.27,0,0,1,.93,5.2l-3.89,7.31a4.22,4.22,0,0,1-2.52,2.07L211.43,403l-6.13,11.51,1.19,3.91a4.27,4.27,0,0,1-.32,3.25l-2.94,5.53,12.55-3.83a4.26,4.26,0,0,1,5.33,2.84l1.72,5.62a4.23,4.23,0,0,1-.32,3.25l-3.89,7.3a4.24,4.24,0,0,1-2.52,2.08l-9.53,2.9-3.06,5.76a4.29,4.29,0,0,1-2.53,2.08l-5.59,1.71a4.31,4.31,0,0,1-3.26-.32,4.25,4.25,0,0,1-2.07-2.52l-1.72-5.6a4.23,4.23,0,0,1,.32-3.25l6.84-12.85-22.07,6.74-3.06,5.74a4.27,4.27,0,0,1-2.52,2.08l-22.44,6.84a4.27,4.27,0,0,1-3.25-.32l-7.31-3.89a4.27,4.27,0,0,1-2.08-2.52l-3.41-11.21a4.26,4.26,0,0,1,.31-3.26l3.07-5.75-1.2-3.92a4.28,4.28,0,0,1,.31-3.25l3.07-5.75L133.73,410a4.27,4.27,0,0,1,.31-3.25l7.79-14.62a4.19,4.19,0,0,1,2.52-2.07l3.92-1.2,2.23-4.2-4.61-15.12a4.28,4.28,0,0,1,.31-3.25l7-13.07-.68-2.22-4.19-2.23-3.92,1.19a4.23,4.23,0,0,1-3.25-.32l-14.63-7.79a4.22,4.22,0,0,1-2.07-2.52l-6.84-22.41a4.27,4.27,0,0,1,.31-3.25l15.59-29.27a4.23,4.23,0,0,1,2.52-2.08l24.23-7.39a4.24,4.24,0,0,1-.76-1.42l-1.74-5.63a4.32,4.32,0,0,1,.31-3.27l3.89-7.31a4.22,4.22,0,0,1,2.52-2.07l5.61-1.72a4.28,4.28,0,0,1,3.25.31l10.87,5.79,1-2-1.2-3.91a4.27,4.27,0,0,1,.27-3.15l-7.21-3.84a4.26,4.26,0,0,1-1.76-5.77l3.89-7.32a4.24,4.24,0,0,1,2.53-2.07l11.19-3.42a4.25,4.25,0,0,1,3.26.32l7.32,3.89a4.27,4.27,0,0,1,1.76,5.78l-3.89,7.31a4.28,4.28,0,0,1-2.52,2.07l-1.36.41,4,2.12,7.87-2.37,2.23-4.18-1.2-3.92a4.27,4.27,0,0,1,2.84-5.32l28-8.55a4.26,4.26,0,0,1,3.26.32l29.26,15.58a4.27,4.27,0,0,1,2.08,2.52l.46,1.52,1.52-.46a4.27,4.27,0,0,1,3.25.31l27.7,14.75,9.51-2.91a4.3,4.3,0,0,1,3.26.32l5.75,3.06,9.51-2.9a4.23,4.23,0,0,1,3.25.32l29.28,15.58a4.24,4.24,0,0,1,2.07,2.53l2.91,9.51,20.38,10.85a4.28,4.28,0,0,1,2.07,2.52L398,303l27.7,14.75a4.26,4.26,0,0,1,2.08,2.53l1.19,3.92,30.43,16.2C452.06,300.8,435,264.92,409,242.77c-51.38-43.69-104.75-5.92-153-56-44.12-45.79-16.65-95.17-66-144-28.4-28.09-77.05-50.88-119-40C39.05,11.06,16.68,37.35,1,68.83V91.65c.14.06.28.1.41.17l22,11.69A4.26,4.26,0,0,1,25.44,106L26.63,110l18.81,10,9.52-2.9a4.3,4.3,0,0,1,3.26.31l21.94,11.69a4.23,4.23,0,0,1,2.08,2.52l2.17,7.13,7.12-2.18a4.22,4.22,0,0,1,3.25.32l5.76,3.06,20.73-6.32a4.28,4.28,0,0,1,3.25.31l22,11.69a4.26,4.26,0,0,1,2.24,4.13l1.82-.55a4.28,4.28,0,0,1,3.25.31l58.52,31.17a4.23,4.23,0,0,1,2.08,2.52l1.71,5.61a4.28,4.28,0,0,1-2.84,5.33l-28,8.55a4.27,4.27,0,0,1-3.25-.31l-5.76-3.07-9.52,2.89a4.23,4.23,0,0,1-3.25-.32l-5.75-3.06-9.53,2.91a4.23,4.23,0,0,1-3.25-.32l-7.32-3.89a4.28,4.28,0,0,1-2.07-2.52l-3.41-11.22a4.26,4.26,0,0,1,2.84-5.33l9.5-2.9,2.24-4.19-.67-2.22-5.77-3.07a4.24,4.24,0,0,1-2.07-2.53l-1.7-5.6a4,4,0,0,1-.16-1.61l-9,2.73,2.17,7.13a4.27,4.27,0,0,1-.32,3.25l-3.89,7.3a4.25,4.25,0,0,1-2.51,2.08l-11.21,3.43a4.24,4.24,0,0,1-2.29.06,4.25,4.25,0,0,1,1.23,1.93L114,195.41a4.27,4.27,0,0,1-2.83,5.33l-11.2,3.43a4.25,4.25,0,0,1-3.26-.32l-5.75-3.06-20.73,6.32a4.28,4.28,0,0,1-3.25-.31l-5.75-3.07L18,216.9a4.28,4.28,0,0,1-3.25-.31L1,209.26v37.62l1.58,5.17,4.2,2.23,3.9-1.18a4.23,4.23,0,0,1,3.25.32l14.63,7.78a4.25,4.25,0,0,1,2.07,2.52l2.91,9.52,5.75,3.06a4.27,4.27,0,0,1,2.08,2.52l6.32,20.73,5.75,3.06a4.25,4.25,0,0,1,2.08,2.51l2.91,9.54,5.75,3.06a4.22,4.22,0,0,1,2.07,2.52l3.42,11.21a4.27,4.27,0,0,1-.32,3.25L65.47,342A4.27,4.27,0,0,1,63,344.09L53.43,347l-3.06,5.74a4.22,4.22,0,0,1-2.52,2.07l-20.73,6.34L24,366.89A4.23,4.23,0,0,1,21.53,369L1,375.24v52.22c17.7,34.87,43.5,67.6,80.95,92.31,78.92,52.1,170.37,42.76,217,38,16-1.63,30.41-3.1,43.65-5.31l-.62-2-4.18-2.23-9.53,2.9a4.23,4.23,0,0,1-3.25-.32L310.4,543a4.27,4.27,0,0,1-2.08-2.52l-1.71-5.6a4.27,4.27,0,0,1,2.84-5.33l3.92-1.2,6.95-13.06a4.23,4.23,0,0,1,2.52-2.08l11.22-3.43a4.28,4.28,0,0,1,3.25.31l5.75,3.07,20.73-6.31a4.28,4.28,0,0,1,3.25.31l5.75,3.06,3.92-1.2a4.28,4.28,0,0,1,5.33,2.84l3.83,12.55,2.94-5.51a4.26,4.26,0,0,1,2.53-2.08l1.82-.56a4.39,4.39,0,0,1-.77-1.43l-2.9-9.51-5.75-3.06a4.27,4.27,0,0,1-2.08-2.52L380,494.13a4.28,4.28,0,0,1,.31-3.25l3.9-7.32a4.27,4.27,0,0,1,4.18-2.24,4.22,4.22,0,0,1,3.67,3l2.18,7.13,1.51-.47a4.3,4.3,0,0,1,3.26.31l7.32,3.9a4.27,4.27,0,0,1,2.08,2.52l5.12,16.83a4.23,4.23,0,0,1-.32,3.25L409.87,524c37.61-32.4,54.79-88.92,53.5-144.52Z"/><path class="cls-3" d="M421.27,328.36l-1.19-3.91L392.4,309.7a4.21,4.21,0,0,1-2.08-2.52l-1.2-3.91-20.38-10.86a4.27,4.27,0,0,1-2.08-2.52l-2.91-9.52-26.14-13.92-9.51,2.9a4.23,4.23,0,0,1-3.25-.31L319.09,266l-9.51,2.91a4.23,4.23,0,0,1-3.25-.32l-27.7-14.75L274.71,255a4.23,4.23,0,0,1-3.25-.31h0a4.27,4.27,0,0,1-2.08-2.52l-1.19-3.92-26.14-13.92-22.25,6.78.46,1.53a4.23,4.23,0,0,1-.31,3.25l-3.89,7.31a4.31,4.31,0,0,1-2.54,2.08l-11.25,3.4a4.3,4.3,0,0,1-3.24-.32l-5.54-3,.42,1.35a4.26,4.26,0,0,1-.32,3.26l-3,5.56,1.41-.43a4.23,4.23,0,0,1,3.25.32l5.76,3.06,3.91-1.19a4.26,4.26,0,0,1,5.32,2.84l2.18,7.12,1.52-.47a4.41,4.41,0,0,1,5.33,2.84l2.91,9.52,5.74,3.07a4.21,4.21,0,0,1,2.08,2.52l2.9,9.51,13.08,7a4.27,4.27,0,0,1,1.76,5.78l-3.9,7.32a4.25,4.25,0,0,1-2.52,2.07l-1.82.56a4.26,4.26,0,0,1,.45,4.68l-3.06,5.75,6.32,20.73a4.27,4.27,0,0,1-.31,3.25L240,366.93l1.34-.41a4.21,4.21,0,0,1,3.26.31l5.76,3.07L267,364.83l-1.66-5.44-5.75-3.06a4.3,4.3,0,0,1-2.08-2.52l-3.42-11.21a4.27,4.27,0,0,1,2.83-5.33l5.61-1.71a4.39,4.39,0,0,1,5.33,2.83l2.9,9.51,5.77,3.07a4.21,4.21,0,0,1,2.07,2.53l1.2,3.91,13.06,7a4.27,4.27,0,0,1,2.08,2.52l5.14,16.81a4.28,4.28,0,0,1-.32,3.25l-3.07,5.76,2.9,9.52a4.22,4.22,0,0,1,.14,1.83l3.21-6a4.26,4.26,0,0,1,2.53-2.08l16.81-5.12a4.32,4.32,0,0,1,3.25.32l7.32,3.9a4.27,4.27,0,0,1,2.08,2.52L341.76,420a4.23,4.23,0,0,1-.32,3.25l-2.95,5.55,1.37-.42a4.38,4.38,0,0,1,3.25.34,4.29,4.29,0,0,1,2.08,2.53l2.16,7.11,5.43-1.66,2.24-4.2L352.11,423a4.26,4.26,0,0,1,2.84-5.33l9.93-3a4.27,4.27,0,0,1,4.46,1.27l7.1,3,16.76-5.42,1.72-9.26a4.26,4.26,0,0,1,1.83-2.77,1.42,1.42,0,0,1-.05-.16l-1-3.62a4.26,4.26,0,0,1,.52-3.46,4.2,4.2,0,0,1,2.93-1.91l6.06-1a4.29,4.29,0,0,1,4.83,3.26l8.78.79a4.26,4.26,0,0,1,4.28-.16l5.77,3.08,7.82-2.39,5.88-11-6.29-11.45-4.2-1.41a4.32,4.32,0,0,1-1.93-1.32l-12.43-15a4.27,4.27,0,0,1,5.29-6.49l13.08,7,9.51-2.9a4.4,4.4,0,0,1,5.33,2.83l5.54,18.17,2.94-5.53a4.25,4.25,0,0,1,2.53-2.08l.81-.25q-.57-7.75-1.64-15.4l-37.74-20.1A4.26,4.26,0,0,1,421.27,328.36Z"/><path class="cls-3" d="M391.55,531.39a4.29,4.29,0,0,1-1.62.92l-5.6,1.7a4.26,4.26,0,0,1-5.32-2.83l-3.89-12.73-1.54.47a4.27,4.27,0,0,1-3.25-.32l-5.74-3.06-20.73,6.32a4.27,4.27,0,0,1-3.25-.32l-5.75-3.06L327,520.87l-7,13.07a4.22,4.22,0,0,1-2.52,2.07l-1.35.42,11.28,6,9.53-2.9a4.27,4.27,0,0,1,3.25.31l7.31,3.89a4.27,4.27,0,0,1,2.07,2.53l1.42,4.64c13.37-2.69,25.51-6.41,36.85-12.17a4.1,4.1,0,0,1,.42-1.31Z"/><path class="cls-3" d="M20.42,355.59a4.28,4.28,0,0,1,2.52-2.07l20.73-6.34,3.06-5.74a4.22,4.22,0,0,1,2.52-2.07l9.51-2.91L61,332.27l-2.38-7.83-5.74-3.06a4.28,4.28,0,0,1-2.08-2.51l-2.91-9.54-5.75-3.06a4.29,4.29,0,0,1-2.07-2.52L33.73,283,28,280a4.28,4.28,0,0,1-2.07-2.52L23,267.93,11.48,261.8,7.58,263a4.27,4.27,0,0,1-3.25-.32L1,260.9V366.33l16.35-5Z"/><path class="cls-3" d="M405.09,527.34a4,4,0,0,1-1.48-.43l-1.82,3.42c1.34-1,2.67-1.94,4-3A3.18,3.18,0,0,1,405.09,527.34Z"/><path class="cls-3" d="M364.36,463.79l-1.75-.93h0l-1.21,2.27a4.19,4.19,0,0,1,1.64-.93Z"/><polygon class="cls-3" points="194.68 239.82 195.74 237.84 193.74 236.78 185.92 239.17 184.87 241.15 184.87 241.15 186.85 242.21 194.68 239.82"/><path class="cls-3" d="M202.39,439.68l9.52-2.9,2.12-4-10.87,3.31-2.38,4.47A4.16,4.16,0,0,1,202.39,439.68Z"/><path class="cls-3" d="M357.45,472l2.39-4.48a4.26,4.26,0,0,1-1.63.92l-7,2.13,4,2.12Z"/><polygon class="cls-3" points="361.54 424.58 362.08 426.37 361.87 424.48 361.54 424.58"/><path class="cls-3" d="M419.43,404l-9.63-.89a5.25,5.25,0,0,1-.23.84l-.82,2.11a4.25,4.25,0,0,1-1.12,1.6l12-3.66Z"/><path class="cls-4" d="M24,366.89l3.08-5.74,20.73-6.34a4.22,4.22,0,0,0,2.52-2.07L53.43,347,63,344.09A4.27,4.27,0,0,0,65.47,342l3.89-7.31a4.27,4.27,0,0,0,.32-3.25l-3.42-11.21a4.22,4.22,0,0,0-2.07-2.52l-5.75-3.06-2.91-9.54a4.25,4.25,0,0,0-2.08-2.51l-5.75-3.06-6.32-20.73a4.27,4.27,0,0,0-2.08-2.52l-5.75-3.06-2.91-9.52a4.25,4.25,0,0,0-2.07-2.52l-14.63-7.78a4.23,4.23,0,0,0-3.25-.32l-3.9,1.18-4.2-2.23L1,246.88v14l3.32,1.77a4.27,4.27,0,0,0,3.25.32l3.9-1.19L23,267.93l2.91,9.52A4.28,4.28,0,0,0,28,280L33.73,283l6.33,20.72a4.29,4.29,0,0,0,2.07,2.52l5.75,3.06,2.91,9.54a4.28,4.28,0,0,0,2.08,2.51l5.74,3.06L61,332.27l-2.23,4.19-9.51,2.91a4.22,4.22,0,0,0-2.52,2.07l-3.06,5.74-20.73,6.34a4.28,4.28,0,0,0-2.52,2.07l-3.06,5.74L1,366.33v8.91L21.53,369A4.23,4.23,0,0,0,24,366.89Z"/><path class="cls-4" d="M18,216.9l43.16-13.17,5.75,3.07a4.28,4.28,0,0,0,3.25.31l20.73-6.32,5.75,3.06a4.25,4.25,0,0,0,3.26.32l11.2-3.43a4.27,4.27,0,0,0,2.83-5.33l-3.41-11.19a4.25,4.25,0,0,0-1.23-1.93,4.24,4.24,0,0,0,2.29-.06l11.21-3.43a4.25,4.25,0,0,0,2.51-2.08l3.89-7.3a4.27,4.27,0,0,0,.32-3.25L127.36,159l9-2.73a4.25,4.25,0,0,1,3-3.71l9.38-2.87a4.26,4.26,0,0,0-2.24-4.13l-22-11.69a4.28,4.28,0,0,0-3.25-.31l-20.73,6.32-5.76-3.06a4.22,4.22,0,0,0-3.25-.32l-7.12,2.18-2.17-7.13a4.23,4.23,0,0,0-2.08-2.52L58.22,117.38a4.3,4.3,0,0,0-3.26-.31L45.44,120,26.63,110,25.44,106a4.26,4.26,0,0,0-2.08-2.53L1.41,91.82c-.13-.07-.27-.11-.41-.17v9.64l16.78,8.94L19,114.14a4.26,4.26,0,0,0,2.08,2.53L43,128.36a4.3,4.3,0,0,0,3.26.31l9.51-2.9,18.82,10,2.9,9.52a4.27,4.27,0,0,0,5.33,2.83l9.52-2.9,5.76,3.06a4.23,4.23,0,0,0,3.25.32l20.73-6.32,11.28,6-12.56,3.83a4.26,4.26,0,0,0-2.84,5.32l2.89,9.52-2.23,4.19-5.43,1.66-5.59-18.33a4.26,4.26,0,0,0-5.33-2.84l-9.51,2.9L87,151.49a4.3,4.3,0,0,0-3.26-.31l-3.9,1.19-5.77-3.06a4.23,4.23,0,0,0-3.25-.32l-11.2,3.43a4.26,4.26,0,0,0-2.84,5.33l6.84,22.42A4.39,4.39,0,0,0,69,183l26.33-8,2,1.06-1.89,3.54a4.27,4.27,0,0,0,1.76,5.78l5.75,3.06,1.66,5.42-5.43,1.66-5.75-3.06a4.28,4.28,0,0,0-3.25-.31l-20.73,6.32-5.76-3.06a4.23,4.23,0,0,0-3.25-.32L17.23,208.23,1,199.6v9.66l13.76,7.33A4.28,4.28,0,0,0,18,216.9Zm79.72-50.3a4.23,4.23,0,0,0-3.25-.32l-23.94,7.31L66.2,159.33l5.44-1.67,5.76,3.07a4.27,4.27,0,0,0,3.25.32l3.91-1.2,5.76,3.06a4.22,4.22,0,0,0,3.25.32l7.12-2.17,2.58,8.48Zm7.19,13.21.93-1.75.42,1.34a4.41,4.41,0,0,0,.91,1.62l-2.26-1.21Z"/><path class="cls-4" d="M136.33,156.31a4,4,0,0,0,.16,1.61l1.7,5.6a4.24,4.24,0,0,0,2.07,2.53l5.77,3.07.67,2.22-2.24,4.19-9.5,2.9a4.26,4.26,0,0,0-2.84,5.33L135.53,195a4.28,4.28,0,0,0,2.07,2.52l7.32,3.89a4.23,4.23,0,0,0,3.25.32l9.53-2.91,5.75,3.06a4.23,4.23,0,0,0,3.25.32l9.52-2.89,5.76,3.07a4.27,4.27,0,0,0,3.25.31l28-8.55a4.28,4.28,0,0,0,2.84-5.33l-1.71-5.61a4.23,4.23,0,0,0-2.08-2.52l-58.52-31.17a4.28,4.28,0,0,0-3.25-.31l-1.82.55-9.38,2.87A4.25,4.25,0,0,0,136.33,156.31Zm15,1.55,55.18,29.39L184.43,194l-5.76-3.07a4.32,4.32,0,0,0-3.25-.32l-9.52,2.9-5.75-3.07a4.27,4.27,0,0,0-3.25-.31L147.37,193l-4.19-2.24-1.66-5.44,7.12-2.17a4.22,4.22,0,0,0,2.52-2.07l3.9-7.32a4.3,4.3,0,0,0,.32-3.24l-1.71-5.6a4.21,4.21,0,0,0-2.07-2.53l-5.54-2.95Z"/><path class="cls-4" d="M199.76,431l-4.26,1.3-6.84,12.85a4.23,4.23,0,0,0-.32,3.25l1.72,5.6a4.25,4.25,0,0,0,2.07,2.52,4.31,4.31,0,0,0,3.26.32l5.59-1.71a4.29,4.29,0,0,0,2.53-2.08l3.06-5.76,9.53-2.9a4.24,4.24,0,0,0,2.52-2.08l3.89-7.3a4.23,4.23,0,0,0,.32-3.25l-1.72-5.62a4.26,4.26,0,0,0-5.33-2.84l-12.55,3.83-.95,1.79A4.27,4.27,0,0,1,199.76,431ZM214,432.81l-2.12,4-9.52,2.9a4.16,4.16,0,0,0-1.61.91l2.38-4.47Z"/><path class="cls-4" d="M332.65,459.54,326.37,439a4.26,4.26,0,0,0-4.15,2.25l-3.89,7.3a4.26,4.26,0,0,0-.32,3.26l8.55,28a4.24,4.24,0,0,0,2.08,2.52l14.63,7.79a4.26,4.26,0,0,0,6.08-5l-1.71-5.6a4.29,4.29,0,0,0-1-1.65l-1.21-.65a4.08,4.08,0,0,1-1.11-.86l-4.54-2.42-3.46-11.35h0A4.25,4.25,0,0,1,332.65,459.54Z"/><path class="cls-4" d="M346.67,477.83l6.1,3.25a4.28,4.28,0,0,0,3.25.31l5.61-1.71a4.3,4.3,0,0,0,2.52-2.08l3.06-5.75,3.91-1.18a4.35,4.35,0,0,0,2-1.29,4.35,4.35,0,0,1,.34-.91l.64-1.19a4.3,4.3,0,0,0-.11-1.95l-1.71-5.6a4.27,4.27,0,0,0-2.08-2.52l-7.32-3.9a4.26,4.26,0,0,0-5.77,1.76L354,460.81l-9.51,2.91a4.27,4.27,0,0,0-2.84,5.32l1.71,5.62a4.28,4.28,0,0,0,1,1.66,4.08,4.08,0,0,0,1.11.86Zm15.94-15h0l1.75.93-1.32.4a4.19,4.19,0,0,0-1.64.93Zm-4.4,5.61a4.26,4.26,0,0,0,1.63-.92L357.45,472l-2.23.69-4-2.12Z"/><path class="cls-4" d="M373.09,469.38a4.24,4.24,0,0,0,2.11,4.86l7.3,3.9a4.27,4.27,0,0,0,5.78-1.77l3.89-7.31a4.27,4.27,0,0,0-1.76-5.78l-7.31-3.89a4.27,4.27,0,0,0-5.77,1.77l-3.26,6.12-.64,1.19A4.35,4.35,0,0,0,373.09,469.38Z"/><path class="cls-4" d="M413.48,514.54l-5.12-16.83a4.27,4.27,0,0,0-2.08-2.52l-7.32-3.9a4.3,4.3,0,0,0-3.26-.31l-1.51.47L392,484.32a4.22,4.22,0,0,0-3.67-3,4.27,4.27,0,0,0-4.18,2.24l-3.9,7.32a4.28,4.28,0,0,0-.31,3.25l1.71,5.62a4.27,4.27,0,0,0,2.08,2.52l5.75,3.06,2.9,9.51a4.39,4.39,0,0,0,.77,1.43l3.78-1.15a4.39,4.39,0,0,1,5.33,2.84l1.71,5.6a4.22,4.22,0,0,1-.32,3.25l-.05.1a4,4,0,0,0,1.48.43,3.18,3.18,0,0,0,.69,0q1.59-1.25,3.18-2.58c.31-.26.61-.53.91-.8l3.29-6.18A4.23,4.23,0,0,0,413.48,514.54ZM400,510.66l-2.91-9.52a4.11,4.11,0,0,0-.76-1.43l4.33,2.19L404,512.77Z"/><path class="cls-4" d="M403.66,526.81a4.22,4.22,0,0,0,.32-3.25l-1.71-5.6a4.39,4.39,0,0,0-5.33-2.84l-3.78,1.15-1.82.56a4.26,4.26,0,0,0-2.53,2.08l-2.94,5.51L382,511.87a4.28,4.28,0,0,0-5.33-2.84l-3.92,1.2L367,507.17a4.28,4.28,0,0,0-3.25-.31l-20.73,6.31-5.75-3.07a4.28,4.28,0,0,0-3.25-.31l-11.22,3.43a4.23,4.23,0,0,0-2.52,2.08l-6.95,13.06-3.92,1.2a4.27,4.27,0,0,0-2.84,5.33l1.71,5.6A4.27,4.27,0,0,0,310.4,543L325,550.8a4.23,4.23,0,0,0,3.25.32l9.53-2.9,4.18,2.23.62,2c2.87-.48,5.68-1,8.45-1.55l-1.42-4.64a4.27,4.27,0,0,0-2.07-2.53l-7.31-3.89a4.27,4.27,0,0,0-3.25-.31l-9.53,2.9-11.28-6,1.35-.42a4.22,4.22,0,0,0,2.52-2.07l7-13.07,7.83-2.39,5.75,3.06a4.27,4.27,0,0,0,3.25.32l20.73-6.32,5.74,3.06a4.27,4.27,0,0,0,3.25.32l1.54-.47L379,531.18a4.26,4.26,0,0,0,5.32,2.83l5.6-1.7a4.29,4.29,0,0,0,1.62-.92l-3.22,6a4.1,4.1,0,0,0-.42,1.31,107.35,107.35,0,0,0,13.88-8.41l1.82-3.42Z"/><path class="cls-4" d="M426.4,406.64l-5.28-2.81a4.36,4.36,0,0,1-1.48.18l-12,3.66a4.24,4.24,0,0,1-2.08,1,4.25,4.25,0,0,0-1.27,4.45l1.7,5.62a4.28,4.28,0,0,0,5.33,2.84l22.42-6.85a4.28,4.28,0,0,0,2.84-5.33l-1.29-4.2L429.66,407A4.26,4.26,0,0,1,426.4,406.64Z"/><path class="cls-4" d="M186.87,248.34l5.61-1.72a4.26,4.26,0,0,1,3.26.32l1.77.94,1.36-.41a4.28,4.28,0,0,0,2.52-2.07l3.89-7.31a4.27,4.27,0,0,0-1.76-5.78l-7.32-3.89a4.25,4.25,0,0,0-3.26-.32l-11.19,3.42a4.24,4.24,0,0,0-2.53,2.07l-3.89,7.32a4.26,4.26,0,0,0,1.76,5.77l7.21,3.84A4.27,4.27,0,0,1,186.87,248.34Zm-2-7.19,1-2,7.82-2.39,2,1.06-1.06,2-7.83,2.39-2-1.06Z"/><path class="cls-4" d="M427.75,320.28a4.26,4.26,0,0,0-2.08-2.53L398,303l-1.2-3.92a4.28,4.28,0,0,0-2.07-2.52l-20.38-10.85-2.91-9.51a4.24,4.24,0,0,0-2.07-2.53l-29.28-15.58a4.23,4.23,0,0,0-3.25-.32l-9.51,2.9-5.75-3.06a4.3,4.3,0,0,0-3.26-.32l-9.51,2.91-27.7-14.75a4.27,4.27,0,0,0-3.25-.31l-1.52.46-.46-1.52a4.27,4.27,0,0,0-2.08-2.52L244.51,226a4.26,4.26,0,0,0-3.26-.32l-28,8.55a4.27,4.27,0,0,0-2.84,5.32l1.2,3.92-2.23,4.18L201.49,250l-4-2.12-1.77-.94a4.26,4.26,0,0,0-3.26-.32l-5.61,1.72a4.29,4.29,0,0,0-2.84,5.33l1.2,3.91-1,2-10.87-5.79a4.28,4.28,0,0,0-3.25-.31l-5.61,1.72a4.22,4.22,0,0,0-2.52,2.07L158,264.56a4.32,4.32,0,0,0-.31,3.27l1.74,5.63a4.24,4.24,0,0,0,.76,1.42L136,282.27a4.23,4.23,0,0,0-2.52,2.08l-15.59,29.27a4.27,4.27,0,0,0-.31,3.25l6.84,22.41a4.22,4.22,0,0,0,2.07,2.52l14.63,7.79a4.23,4.23,0,0,0,3.25.32l3.92-1.19,4.19,2.23.68,2.22-7,13.07a4.28,4.28,0,0,0-.31,3.25l4.61,15.12-2.23,4.2-3.92,1.2a4.19,4.19,0,0,0-2.52,2.07L134,406.7a4.27,4.27,0,0,0-.31,3.25l1.19,3.92-3.07,5.75a4.28,4.28,0,0,0-.31,3.25l1.2,3.92-3.07,5.75a4.26,4.26,0,0,0-.31,3.26L132.77,447a4.27,4.27,0,0,0,2.08,2.52l7.31,3.89a4.27,4.27,0,0,0,3.25.32l22.44-6.84a4.27,4.27,0,0,0,2.52-2.08l3.06-5.74,22.07-6.74,4.26-1.3a4.27,4.27,0,0,0,2.52-2.08l.95-1.79,2.94-5.53a4.27,4.27,0,0,0,.32-3.25l-1.19-3.91L211.43,403l31.94-9.74a4.22,4.22,0,0,0,2.52-2.07l3.89-7.31a4.27,4.27,0,0,0-.93-5.2,4.32,4.32,0,0,0,2.31,0l22.41-6.83a4.26,4.26,0,0,0,2.84-5.33l-.42-1.36,11.3,6,4.1,13.43-3.06,5.76a4.22,4.22,0,0,0-.32,3.25l2.9,9.51-3.06,5.75a4.27,4.27,0,0,0-.32,3.25l1.71,5.61a4.26,4.26,0,0,0,2.08,2.53h0a4.26,4.26,0,0,0,3.26.31l5.6-1.72a4.25,4.25,0,0,0,2.51-2.08l7-13.06,13.43-4.08,4.2,2.23,5.81,19-7,13.08a4.23,4.23,0,0,0-.32,3.25l.56,1.82,6.28,20.59a4.25,4.25,0,0,0,3.67,3h0a4.25,4.25,0,0,0,4.15-2.25l3.89-7.3a4.28,4.28,0,0,0,.32-3.25l-.55-1.82a4,4,0,0,0,1.6-.17L357,444.35a4.23,4.23,0,0,0,2.52-2.08L363.4,435a4.3,4.3,0,0,0,.31-3.26L362.9,429a4.3,4.3,0,0,1-.74-1.93l-.08-.73-.54-1.79.33-.1L361.7,423a4.26,4.26,0,0,1,5.81-4.45l5.41,2.15a4.25,4.25,0,0,1,1.7,6.68,4.22,4.22,0,0,0,2.95.12l20.68-6.68a4.23,4.23,0,0,0,2.88-3.28l1.59-8.55,2.39-.18.44-.07a4.36,4.36,0,0,0,3.2-2.64l.82-2.11a5.25,5.25,0,0,0,.23-.84l9.63.89h.21a4.36,4.36,0,0,0,1.48-.18l5.28,2.81a4.26,4.26,0,0,0,3.26.32l5.62-1.72,5.58-1.7a4.25,4.25,0,0,0,2.53-2.08l7.79-14.63.12-.24v0a4.27,4.27,0,0,0,7.85.76l4.22-7.92q-.15-6.56-.64-13.06l-.81.25a4.25,4.25,0,0,0-2.53,2.08l-2.94,5.53-5.54-18.17a4.4,4.4,0,0,0-5.33-2.83l-9.51,2.9-13.08-7a4.27,4.27,0,0,0-5.29,6.49l12.43,15a4.32,4.32,0,0,0,1.93,1.32l4.2,1.41,6.29,11.45-5.88,11-7.82,2.39-5.77-3.08a4.26,4.26,0,0,0-4.28.16l-8.78-.79a4.29,4.29,0,0,0-4.83-3.26l-6.06,1a4.2,4.2,0,0,0-2.93,1.91,4.26,4.26,0,0,0-.52,3.46l1,3.62a1.42,1.42,0,0,0,.05.16,4.26,4.26,0,0,0-1.83,2.77l-1.72,9.26-16.76,5.42-7.1-3a4.27,4.27,0,0,0-4.46-1.27l-9.93,3a4.26,4.26,0,0,0-2.84,5.33l2.91,9.51-2.24,4.2-5.43,1.66-2.16-7.11a4.29,4.29,0,0,0-2.08-2.53,4.38,4.38,0,0,0-3.25-.34l-1.37.42,2.95-5.55a4.23,4.23,0,0,0,.32-3.25l-6.84-22.41a4.27,4.27,0,0,0-2.08-2.52l-7.32-3.9a4.32,4.32,0,0,0-3.25-.32L305.46,396a4.26,4.26,0,0,0-2.53,2.08l-3.21,6a4.22,4.22,0,0,0-.14-1.83l-2.9-9.52,3.07-5.76a4.28,4.28,0,0,0,.32-3.25l-5.14-16.81a4.27,4.27,0,0,0-2.08-2.52l-13.06-7-1.2-3.91a4.21,4.21,0,0,0-2.07-2.53l-5.77-3.07-2.9-9.51a4.39,4.39,0,0,0-5.33-2.83l-5.61,1.71a4.27,4.27,0,0,0-2.83,5.33l3.42,11.21a4.3,4.3,0,0,0,2.08,2.52l5.75,3.06,1.66,5.44-16.64,5.07-5.76-3.07a4.21,4.21,0,0,0-3.26-.31l-1.34.41,2.95-5.53a4.27,4.27,0,0,0,.31-3.25l-6.32-20.73,3.06-5.75a4.26,4.26,0,0,0-.45-4.68l1.82-.56a4.25,4.25,0,0,0,2.52-2.07l3.9-7.32a4.27,4.27,0,0,0-1.76-5.78l-13.08-7-2.9-9.51a4.21,4.21,0,0,0-2.08-2.52l-5.74-3.07-2.91-9.52a4.41,4.41,0,0,0-5.33-2.84l-1.52.47-2.18-7.12a4.26,4.26,0,0,0-5.32-2.84l-3.91,1.19-5.76-3.06a4.23,4.23,0,0,0-3.25-.32l-1.41.43,3-5.56a4.26,4.26,0,0,0,.32-3.26l-.42-1.35,5.54,3a4.3,4.3,0,0,0,3.24.32l11.25-3.4a4.31,4.31,0,0,0,2.54-2.08L220,245.9a4.23,4.23,0,0,0,.31-3.25l-.46-1.53,22.25-6.78,26.14,13.92,1.19,3.92a4.27,4.27,0,0,0,2.08,2.52h0a4.23,4.23,0,0,0,3.25.31l3.92-1.19,27.7,14.75a4.23,4.23,0,0,0,3.25.32l9.51-2.91,5.76,3.06a4.23,4.23,0,0,0,3.25.31l9.51-2.9,26.14,13.92,2.91,9.52a4.27,4.27,0,0,0,2.08,2.52l20.38,10.86,1.2,3.91a4.21,4.21,0,0,0,2.08,2.52l27.68,14.75,1.19,3.91a4.26,4.26,0,0,0,2.08,2.53L461.09,351q-.73-5.33-1.72-10.59l-30.43-16.2Zm13.46,45.84a4.11,4.11,0,0,0-.65-.28l-3.31-1.11,6.74-2.06,4.85,15.89L443,367.83A4.28,4.28,0,0,0,441.21,366.12ZM168.64,262.83l2.22-.69,11.33,6-10.87,3.31-4.21-2.24-.7-2.25Zm71.6,120.77-1.06,2-31.94,9.74a4.23,4.23,0,0,0-2.52,2.08L196.93,412a4.27,4.27,0,0,0-.32,3.25l1.19,3.91-2.23,4.19-26.33,8.05a4.22,4.22,0,0,0-2.52,2.07l-3.06,5.75-19,5.8-4.19-2.23L138,435l3.07-5.76a4.3,4.3,0,0,0,.31-3.26l-1.19-3.91,3.06-5.74a4.28,4.28,0,0,0,.31-3.25l-1.19-3.92,6.13-11.51,3.92-1.2a4.29,4.29,0,0,0,2.52-2.07l3.89-7.32a4.23,4.23,0,0,0,.32-3.25l-4.61-15.12,7-13.07a4.23,4.23,0,0,0,.32-3.25l-1.72-5.61a4.22,4.22,0,0,0-2.07-2.52l-7.31-3.89a4.25,4.25,0,0,0-3.24-.31l-3.93,1.19-11.51-6.13-5.8-19,13.92-26.15,24.63-7.52,5.76,3.07a4.28,4.28,0,0,0,3.25.32l3.92-1.2,11.51,6.12,2.9,9.53a4.22,4.22,0,0,0,2.07,2.52l5.76,3.06,1.2,3.92a4.29,4.29,0,0,0,2.07,2.52h0a4.28,4.28,0,0,0,3.25.31l3.9-1.19,4.2,2.23,1.2,3.92a4.26,4.26,0,0,0,2.07,2.52l12.84,6.84-1.33.4a4.31,4.31,0,0,0-2.54,2.08L223,336.7a4.28,4.28,0,0,0-.31,3.25l4.61,15.12-3.06,5.75a4.23,4.23,0,0,0-.32,3.25l3.42,11.22a4.24,4.24,0,0,0,2.07,2.53ZM192.85,273.86l5.76,3.07a4.27,4.27,0,0,0,3.25.31l1.51-.46,2.18,7.12a4.26,4.26,0,0,0,5.33,2.84l1.52-.46,2.18,7.12a4.24,4.24,0,0,0,2.07,2.53L222.4,299l2.91,9.51a4.22,4.22,0,0,0,2.07,2.52l10.87,5.79-1.06,2-2.23.67-11.5-6.12-1.2-3.91a4.24,4.24,0,0,0-2.08-2.52l-7.32-3.9a4.3,4.3,0,0,0-3.26-.31l-1.51.46-.46-1.52a4.27,4.27,0,0,0-2.08-2.52l-5.75-3.06-2.89-9.52a4.26,4.26,0,0,0-2.08-2.53L182,277.18Z"/><path class="cls-4" d="M372.92,420.67l-5.41-2.15A4.26,4.26,0,0,0,361.7,423l.17,1.51.21,1.89.08.73a4.3,4.3,0,0,0,.74,1.93,4.16,4.16,0,0,0,1.32,1.25l.18.1a4.25,4.25,0,0,0,3.59.19l4.94-2a4.16,4.16,0,0,0,1.69-1.25,4.25,4.25,0,0,0-1.7-6.68Z"/></g><path class="cls-5" d="M271.93,102.62a12.59,12.59,0,0,0,2.94-12.83l-3.76-10.94a29.74,29.74,0,0,0,1.66-2.53c6.33-11.33,2.56-25.48-8.38-31.58s-25-1.89-31.28,9.44a20.21,20.21,0,0,0-1.56,3.49l-9.68.36a25.18,25.18,0,0,0,5.71-6.8c6.33-11.33,2.56-25.48-8.38-31.59s-25-1.88-31.28,9.45a24.4,24.4,0,0,0-2.43,17.22L184,45.49c-12.31-6.87-28.21-2-35.35,10.77L122,104.13a12.13,12.13,0,0,0,4.45,16.58,11,11,0,0,0,4.6,1.41l-4.15,7.42a3.69,3.69,0,1,0,6.45,3.6L143,115.75l2.72-4.88,22.63-40.54a3.69,3.69,0,1,0-6.45-3.6l-22.63,40.54-2.72,4.89a4.71,4.71,0,1,1-8.21-4.58l26.72-47.87c5.18-9.29,16.66-12.87,25.45-8L205,65.38a3.88,3.88,0,0,0,1.94.43L230.17,65a22.7,22.7,0,0,0,1.53,9.18l-21.09,1.3h0c-.16,0-.31.09-.41,0l-.3.09c-.15,0-.21.14-.3.08s-.31.09-.36.19A.32.32,0,0,0,209,76c-.15,0-.21.14-.36.18s-.21.14-.26.24-.21.14-.26.24l-.11.2-.22.39h0l-41.38,74.15a3.69,3.69,0,1,0,6.45,3.59l40.29-72.19,22.7-1.43a21.9,21.9,0,0,0,5.65,4.57,20.61,20.61,0,0,0,7.11,2.42l3.49,10.28a11.69,11.69,0,0,0,5.27,6.4l.78.44a11,11,0,0,0,7.12.77,20,20,0,0,1-2.13,13.93L236.45,168a4.71,4.71,0,1,1-8.2-4.58l2.72-4.89,22.68-40.64a3.69,3.69,0,1,0-6.44-3.6l-22.63,40.55-2.72,4.88-9.71,17.39a3.69,3.69,0,0,0,6.45,3.6l4.14-7.43a11,11,0,0,0,3.61,3.17,12.2,12.2,0,0,0,16.45-4.91l26.72-47.87A26.82,26.82,0,0,0,271.93,102.62Zm-77.66-70c4.36-7.82,14-10.79,21.39-6.65s10,13.78,5.57,21.69-14,10.79-21.38,6.65S189.91,40.45,194.27,32.64ZM258.9,96.12l-2.74-7.93a23,23,0,0,0,9.13-3.75l2.61,7.73a5.36,5.36,0,0,1-3.16,6.57,4.24,4.24,0,0,1-3.65-.11A4.06,4.06,0,0,1,258.9,96.12Zm-19.5-38.3c4.37-7.81,14-10.78,21.39-6.64s9.94,13.88,5.58,21.69-14,10.79-21.39,6.64S235,65.64,239.4,57.82Z"/></g></g></svg>