<svg xmlns="http://www.w3.org/2000/svg" viewBox="0 0 458.68 552.19"><defs><style>.cls-1,.cls-3{fill:#7147dd;}.cls-1{opacity:0.2;}.cls-2{opacity:0.8;}.cls-4{opacity:0.3;}.cls-5{fill:none;}.cls-6{fill:#26a6b5;}.cls-7{opacity:0.7;}</style></defs><title>mddsz</title><g id="Layer_2" data-name="Layer 2"><g id="Layer_1-2" data-name="Layer 1"><path class="cls-1" d="M0,4.38C24.43,1.81,19.39-5.48,120.2,7.45S399,158.38,427,219.38s40.85,146.26,24.41,213.51C443.15,466.7,416,546.38,339,551.38s-115-13-144-56-107-52-164-37.21a247.06,247.06,0,0,0-31,6.21"/><g class="cls-2"><path class="cls-3" d="M382.24,118.5a6.1,6.1,0,0,0-1.05.21c-12.71.11-24.48,7.33-31.55,18.24-9.88-2.83-20.85-2.17-28.65,5.36a29.26,29.26,0,0,0-7,31.58,29.93,29.93,0,0,0,26.47,19h40.79c23.51-2.65,31.88-15.5,35.34-31.51a37.37,37.37,0,0,0-24.13-41,32.3,32.3,0,0,0-9.74-1.87Zm.12,8.78h.17a23.73,23.73,0,0,1,6.94,1.32A28.57,28.57,0,0,1,407.9,160a28.2,28.2,0,0,1-26.85,24.07c-13.34.09-26.82,0-40.21,0a21.14,21.14,0,0,1-18.72-13.38,20.41,20.41,0,0,1,4.94-22.13c5.78-5.57,14.6-6.08,22.85-3,2.64,1,4.47-.19,5.86-2.35,6.11-9.52,16.25-16.33,26.59-16Z"/><path class="cls-3" d="M241.41,61.64h-.09a32.29,32.29,0,0,0-9.74,1.86,37.37,37.37,0,0,0-24.13,41,36.9,36.9,0,0,0,33.47,31.09,4.33,4.33,0,0,0,1.87.42h40.79a29.93,29.93,0,0,0,26.47-19,29.25,29.25,0,0,0-7-31.57c-7.8-7.53-18.77-8.18-28.65-5.36C267.29,69.18,255.51,62,242.8,61.84a4.38,4.38,0,0,0-1.39-.21Zm.05,8.78h.18c10.34-1.13,20.75,6.27,26.59,16,1.66,2.75,3.15,3.12,5.86,2.32,8.43-2.51,17.07-2.54,22.85,3a20.41,20.41,0,0,1,4.94,22.13,21.14,21.14,0,0,1-18.72,13.38H243.44a1.67,1.67,0,0,0-.49,0,28.19,28.19,0,0,1-26.85-24.06,28.58,28.58,0,0,1,18.43-31.41,23.72,23.72,0,0,1,6.93-1.32Z"/><path class="cls-3" d="M321.35,35.85a91.94,91.94,0,0,0-73.62,25.73,4.38,4.38,0,0,0,6,6.36,1.14,1.14,0,0,0,.11-.11,83.13,83.13,0,0,1,141.28,59.36,4.38,4.38,0,0,0,8.75.12v-.12a91.84,91.84,0,0,0-82.53-91.34Z"/><path class="cls-3" d="M321.13,53.41A75.21,75.21,0,0,0,265.58,69a4.38,4.38,0,0,0,5.25,7l.18-.14a66.54,66.54,0,0,1,66.13-9.43A65.34,65.34,0,0,1,377.65,119a4.37,4.37,0,1,0,8.71-.81,1.07,1.07,0,0,0,0-.25,74.1,74.1,0,0,0-45.91-59.55,75.24,75.24,0,0,0-19.29-5Z"/><path class="cls-3" d="M312.08,70.37A57.08,57.08,0,0,0,283.62,78a4.38,4.38,0,1,0,4.27,7.64l.09,0a48.1,48.1,0,0,1,72.15,41.64,4.38,4.38,0,0,0,8.75.12v-.12a56.79,56.79,0,0,0-56.8-56.83Z"/></g><g class="cls-4"><path class="cls-5" d="M427,219.38c-28-61-206-199-306.8-211.93S24.43,1.81,0,4.38v460a247.06,247.06,0,0,1,31-6.21c43.69-11.34,99.72-8.7,136.56,12.51L192,455.2a41.52,41.52,0,0,1,41.64-1.62L253.2,464l16.67-10.56a17.42,17.42,0,0,1,4.48-2.09,17.63,17.63,0,0,1,22,11.72l15.62-9.9a17.86,17.86,0,0,1,19.12,30.17l-31.25,19.79A85.49,85.49,0,0,1,219.39,509l-17-7.56-2.09,1.32c28.38,37.65,66.3,53.3,138.72,48.6a105,105,0,0,0,27-5.29l.18-141.32a13.31,13.31,0,0,0-3.92-9.47,13.73,13.73,0,0,0-18.94,0,13.31,13.31,0,0,0-3.92,9.47v6a4.47,4.47,0,0,1-8.93,0v-6A22.19,22.19,0,0,1,337,389a22.73,22.73,0,0,1,2.52-2.07H311.1a4.44,4.44,0,0,1-3.23-1.39l-22-23.15V436a4.47,4.47,0,1,1-8.93,0V351.21a4.46,4.46,0,0,1,7.7-3.08L313,378h52.1a8.93,8.93,0,0,0,0-17.86H320a4.5,4.5,0,0,1-3.43-1.6l-18.2-21.88a33.86,33.86,0,0,0-26.09-12.23H218.89a5.25,5.25,0,0,1-.55-.09l-9.58,6.79a186.89,186.89,0,0,0-55.4,62.19,11.7,11.7,0,0,0-1.43,5.61v3.3a11.53,11.53,0,0,0,3.35,8.15,11.23,11.23,0,0,0,8,3.33h55.63a8.93,8.93,0,1,0,0-17.85H172.12a4.47,4.47,0,0,1,0-8.93h46.77a17.86,17.86,0,0,1,0,35.71H201V436a4.47,4.47,0,1,1-8.93,0V422.63H163.26A20.34,20.34,0,0,1,143,402.22v-3.3a20.65,20.65,0,0,1,2.53-9.9,195.79,195.79,0,0,1,58.07-65.21l9-6.4a43.94,43.94,0,0,1-6.06-14.55c-12.8-2.54-23.4-6.87-23.4-14.15,0-6.8,8.26-11.46,26-14.65a3.42,3.42,0,0,1,.64,0,44.6,44.6,0,0,1,80.65,0,3.42,3.42,0,0,1,.64,0c17.73,3.19,26,7.85,26,14.65,0,7.28-10.6,11.61-23.41,14.16a44,44,0,0,1-6.58,15.3,42.79,42.79,0,0,1,18.15,12.77l16.86,20.27h43A17.89,17.89,0,0,1,383,368.31a17.78,17.78,0,0,1-17,18.52,21.41,21.41,0,0,1,9.16,17.94L375,542.53c49.91-22.64,69.58-81.75,76.4-109.64C467.85,365.64,455,280.38,427,219.38Z"/><path class="cls-5" d="M307.76,288.74c-1.56-1.29-6.56-3.79-18.24-5.89a4.61,4.61,0,0,1-1.66-.67c-7.57,4-22,6.53-37.72,6.53s-30.15-2.51-37.73-6.53a4.54,4.54,0,0,1-1.66.67c-11.68,2.1-16.67,4.6-18.24,5.89,4,3.47,24.68,8.9,57.63,8.9S303.81,292.21,307.76,288.74Z"/><path class="cls-5" d="M203.83,492.32l19.2,8.53a76.57,76.57,0,0,0,72.06-5.3l31.25-19.8a8.93,8.93,0,0,0-9.56-15.08l-18.86,11.95a4.55,4.55,0,0,1-1.3.5A17.77,17.77,0,0,1,289,483.56l-15.09,9.56a4.47,4.47,0,0,1-4.78-7.55L284.22,476A8.93,8.93,0,0,0,274.66,461L255.8,472.9a4.45,4.45,0,0,1-4.46.18l-21.88-11.61a32.6,32.6,0,0,0-32.68,1.27L175.84,476A76.78,76.78,0,0,1,195,495.38l.09.13,4.54-2.88A4.48,4.48,0,0,1,203.83,492.32Z"/><path class="cls-5" d="M250.14,279.78a94.94,94.94,0,0,0,30.95-4.32,35.62,35.62,0,0,0-61.91,0A95,95,0,0,0,250.14,279.78Z"/><path class="cls-5" d="M216.34,304.45a35.19,35.19,0,0,0,6,11h49.93a42.79,42.79,0,0,1,5.31.36,35,35,0,0,0,6.31-11.4,270.42,270.42,0,0,1-67.59,0Z"/><path class="cls-6" d="M219.39,509a85.49,85.49,0,0,0,80.47-5.93l31.25-19.79A17.86,17.86,0,0,0,312,453.13L296.37,463a17.63,17.63,0,0,0-22-11.72,17.42,17.42,0,0,0-4.48,2.09L253.2,464l-19.58-10.38A41.52,41.52,0,0,0,192,455.2l-24.43,15.48a97,97,0,0,1,8.29,5.33l20.94-13.27a32.6,32.6,0,0,1,32.68-1.27l21.88,11.61a4.45,4.45,0,0,0,4.46-.18L274.66,461A8.93,8.93,0,0,1,284.22,476l-15.08,9.53a4.47,4.47,0,0,0,4.78,7.55L289,483.56a17.77,17.77,0,0,0,7.61-10.44,4.55,4.55,0,0,0,1.3-.5l18.86-11.95a8.93,8.93,0,0,1,9.56,15.08l-31.25,19.8a76.57,76.57,0,0,1-72.06,5.3l-19.2-8.53a4.48,4.48,0,0,0-4.2.31l-4.54,2.88q2.55,3.76,5.19,7.27l2.09-1.32Z"/><path class="cls-6" d="M366,386.83a17.79,17.79,0,0,0,11.78-30.39,18,18,0,0,0-12.63-5.23h-43l-16.86-20.27a42.79,42.79,0,0,0-18.15-12.77,44,44,0,0,0,6.58-15.3c12.81-2.55,23.41-6.88,23.41-14.16,0-6.8-8.27-11.46-26-14.65a3.42,3.42,0,0,0-.64,0,44.6,44.6,0,0,0-80.65,0,3.42,3.42,0,0,0-.64,0c-17.73,3.19-26,7.85-26,14.65,0,7.28,10.6,11.61,23.4,14.15a43.94,43.94,0,0,0,6.06,14.55l-9,6.4A195.79,195.79,0,0,0,145.53,389a20.65,20.65,0,0,0-2.53,9.9v3.3a20.34,20.34,0,0,0,20.26,20.41H192.1V436a4.47,4.47,0,1,0,8.93,0V422.63h17.86a17.86,17.86,0,0,0,0-35.71H172.12a4.47,4.47,0,0,0,0,8.93h46.77a8.93,8.93,0,1,1,0,17.85H163.26a11.23,11.23,0,0,1-8-3.33,11.53,11.53,0,0,1-3.35-8.15v-3.3a11.7,11.7,0,0,1,1.43-5.61,186.89,186.89,0,0,1,55.4-62.19l9.58-6.79a5.25,5.25,0,0,0,.55.09h53.42a33.86,33.86,0,0,1,26.09,12.23l18.2,21.88a4.5,4.5,0,0,0,3.43,1.6h45.09a8.93,8.93,0,0,1,0,17.86H313l-28.4-29.86a4.46,4.46,0,0,0-7.7,3.08V436a4.47,4.47,0,1,0,8.93,0V362.37l22,23.15a4.44,4.44,0,0,0,3.23,1.39h28.45A22.73,22.73,0,0,0,337,389a22.19,22.19,0,0,0-6.54,15.79v6a4.47,4.47,0,0,0,8.93,0v-6a13.31,13.31,0,0,1,3.92-9.47,13.73,13.73,0,0,1,18.94,0,13.31,13.31,0,0,1,3.92,9.47L366,546.09q4.65-1.59,9-3.56l.12-137.76A21.41,21.41,0,0,0,366,386.83ZM250.14,257.46a35.77,35.77,0,0,1,30.95,18,94.94,94.94,0,0,1-30.95,4.32,95,95,0,0,1-31-4.32A35.77,35.77,0,0,1,250.14,257.46Zm-57.63,31.28c1.57-1.29,6.56-3.79,18.24-5.89a4.54,4.54,0,0,0,1.66-.67c7.58,4,22,6.53,37.73,6.53s30.15-2.51,37.72-6.53a4.61,4.61,0,0,0,1.66.67c11.68,2.1,16.68,4.6,18.24,5.89-3.95,3.47-24.68,8.9-57.62,8.9S196.46,292.21,192.51,288.74Zm85.11,27.11a42.79,42.79,0,0,0-5.31-.36H222.38a35.19,35.19,0,0,1-6-11,270.42,270.42,0,0,0,67.59,0A35,35,0,0,1,277.62,315.85Z"/></g><g class="cls-7"><path class="cls-6" d="M145.63,124.69c3.73-1.24,5.61,4.43,1.89,5.66L100.42,146c-3.72,1.24-5.6-4.42-1.88-5.66Z"/><path class="cls-6" d="M149.88,137.47c3.72-1.23,5.61,4.43,1.88,5.67l-47.09,15.65c-3.72,1.24-5.6-4.43-1.88-5.66Z"/><path class="cls-6" d="M144,153.43c3.56-1.18,5.45,4.48,1.89,5.67L109,171.36c-3.73,1.24-5.61-4.43-1.89-5.67Z"/><path class="cls-6" d="M140.53,217.5A9.1,9.1,0,0,0,152,223.22a9,9,0,0,0,5.73-11.42,9,9,0,0,0-17.16,5.7Zm-5.66,1.88a15,15,0,1,1,19,9.51A15,15,0,0,1,134.87,219.38Z"/><path class="cls-6" d="M157,239a21.25,21.25,0,0,1-6.8.64c-2.75-.17-4.31,0-5.12.8a14.2,14.2,0,0,0-3.47,12.83L172.38,243a16.49,16.49,0,0,1,5.77-.49c-1.77-4.26-5.87-8.47-10.67-9.39-1.18-.32-2.64.7-4.64,2.26A20.14,20.14,0,0,1,157,239ZM93.08,269.39l42.57-14.15a19.7,19.7,0,0,1,4.92-18.71c2.65-2.85,6.42-2.85,9.49-2.79a14,14,0,0,0,4.91-.37,18.13,18.13,0,0,0,4.16-2.64c2.43-1.89,5.45-4.15,9.44-3.5,8.19,1.41,14.28,8.91,16,15.71a7.17,7.17,0,0,1,1.83.11c3,.27,7.77.65,11.17.6C186.31,233,187.39,230.86,188,229.41a27.26,27.26,0,0,0-33-38.11L75.87,217.6a27.29,27.29,0,1,0,17.21,51.79ZM205.55,242.8l2.26,1.94L205.87,247a7.17,7.17,0,0,1-3,1.89c-3.56,1.18-9.22.91-17,.09-4.26-.38-9.81-.87-11.43-.33L95.29,275a33.26,33.26,0,0,1-21-63.12l79.14-26.3a33.25,33.25,0,0,1,42,20.91A32.83,32.83,0,0,1,194,230.81C195.31,233.08,200.75,238.64,205.55,242.8Z"/><path class="cls-6" d="M117.45,216.72c3.72-1.24,5.61,4.43,1.88,5.67L72.24,238c-3.72,1.23-5.6-4.43-1.88-5.67Z"/><path class="cls-6" d="M121.7,229.51c3.72-1.24,5.61,4.42,1.88,5.66L76.49,250.82c-3.72,1.24-5.61-4.43-1.88-5.66Z"/><path class="cls-6" d="M125.9,242.13c3.72-1.24,5.6,4.43,1.88,5.66l-36.9,12.27c-3.72,1.23-5.6-4.43-1.88-5.67Z"/><path class="cls-6" d="M74.79,166.2a9,9,0,0,0,5.72-11.42,9,9,0,1,0-5.72,11.42Zm11.39-13.31a15,15,0,1,1-19-9.5A14.82,14.82,0,0,1,86.18,152.89Z"/><path class="cls-6" d="M80.11,181.69a21.19,21.19,0,0,1-6.79.64c-2.54-.06-4.16-.06-5.07,1-3.3,3.61-4.06,9.44-2.93,13.92a22.91,22.91,0,0,1,4.75-3L101,183.92a14,14,0,0,0-10.46-8.21c-1.29-.11-2.58.86-4.58,2.42A20.2,20.2,0,0,1,80.11,181.69Zm-16.39-2.28c2.81-2.91,6.58-2.91,9.65-2.85a13,13,0,0,0,4.91-.38,13.14,13.14,0,0,0,4.16-2.63c2.43-1.89,5.45-4.15,9.28-3.45a19.49,19.49,0,0,1,15.14,12L149.42,168a27.08,27.08,0,0,0,17-34.39,27.36,27.36,0,0,0-34.5-17.29l-79.14,26.3a27.25,27.25,0,0,0-3.6,50.26c1.67.7,3.88,1.94,1.22,17.2,2.7-2.15,6.31-5.33,8.53-7.33.43-.32,1-.86,1.4-1.18C57.61,195.1,58.16,185.39,63.72,179.41Zm66.61-68.86a33.34,33.34,0,0,1,21,63.27l-79.14,26.3c-1.62.54-5.61,4.21-9,7.11-5.83,5.18-10.15,9-13.71,10.13a7.23,7.23,0,0,1-3.5.27L43.14,217l.65-2.91c1.3-6.37,2.38-13.92,2.06-16.5a32.89,32.89,0,0,1-15.73-18.68,33.28,33.28,0,0,1,21.07-42Z"/></g></g></g></svg>