<svg xmlns="http://www.w3.org/2000/svg" viewBox="0 0 487.58 509.19"><defs><style>.cls-1{fill:#fff;opacity:0.3;}.cls-2,.cls-4{fill:#7147dd;}.cls-2{stroke:#7147dd;stroke-miterlimit:10;stroke-width:2px;}.cls-2,.cls-3{opacity:0.8;}</style></defs><title>Asset 3</title><g id="Layer_2" data-name="Layer 2"><g id="Layer_1-2" data-name="Layer 1"><path class="cls-1" d="M127.48,29C68.4,63.53,44.55,117.56,26.05,159.46c-12.14,27.52-21.63,49-24.69,80-1.24,12.52-9,107.4,65,179.77,36.32,35.52,114,86.84,169.28,64.05,53.22-21.95,48-97.13,108.7-111,27.5-6.27,36.44,7.35,62.49-2.21,42.74-15.68,58.09-66.8,66.69-95.47,10.13-33.74,26.72-89-2.05-141.84-18.16-33.34-51.85-51.67-119.23-88.33C300.28,16.14,273.51,2,235.62.19,182-2.31,142.4,20.21,127.48,29Z"/><path class="cls-2" d="M292.65,453.89l-9-59.6a7.37,7.37,0,0,0-.4-1.4c-3.5-7.1-10.4-11.8-18.1-14.3a24.19,24.19,0,1,0-41.2-17.2,19.27,19.27,0,0,0,.1,2.4,21.66,21.66,0,0,0-39.3,12.6v.1a38.62,38.62,0,0,0-13.7-7.4,25.81,25.81,0,1,0-34.7-.1,30.17,30.17,0,0,0-12.6,6.7,11.7,11.7,0,0,0-2,.5,35.23,35.23,0,0,0-4.2-1.5,23.31,23.31,0,1,0-33.3.7c-7.1,2.3-13.3,6.6-16.6,14.6a2.61,2.61,0,0,0-.3,1.1l-.6,4.3a33.1,33.1,0,0,0-10.9-6,22.1,22.1,0,1,0-30.9.1c-6.5,2-12.2,5.9-15.2,13.2-.1.3-.2.6-.3,1l-8.4,54.5a4.21,4.21,0,0,0,1,3.4,4.41,4.41,0,0,0,3.2,1.5h12.2l-4.8,39.7a4.14,4.14,0,0,0,4.2,4.7l49.3.1h0a4.07,4.07,0,0,0,3.2-1.5,4.21,4.21,0,0,0,1-3.4L65,463h11.1l-4.6,39.9a4.43,4.43,0,0,0,1.2,3.6,4.63,4.63,0,0,0,3.5,1.6h0l40-.1H126l58.3.1h.6l38.5.1h8.9l44.6-.2a4.79,4.79,0,0,0,3.5-1.6,4.57,4.57,0,0,0,1.1-3.7l-6-43.5h12.6a4.63,4.63,0,0,0,3.5-1.6A4.47,4.47,0,0,0,292.65,453.89Zm-38.4,44.9v-40a4.7,4.7,0,1,0-9.4,0v40h-16.2l1-9.1,2.1-18.9,2.1-18.6.5-4.7.5-4.8h28.7l1.7,12.4v.2l5.9,43.3Zm-46.6-39.5a4.23,4.23,0,0,0-4.2,4.2v35.3h-14.9l5.3-43.3.6-4.7.2-1.6h11.5l-.7,4.7a4.57,4.57,0,0,0,1.1,3.7,4.79,4.79,0,0,0,3.5,1.6H221l1.6,11.8-3.1,27.8H212v-35.4A4.37,4.37,0,0,0,207.65,459.29ZM167,498.79l-4.5-32.2v-1.2l-2.2-14.6h0l-2.8-18.3h12.3l.8,5.7-3.2,21a4.57,4.57,0,0,0,1.1,3.7,4.79,4.79,0,0,0,3.5,1.6h2.2l4.7,34.2Zm-121.2.2v-36.4a4.3,4.3,0,0,0-8.6,0V499H21.55l6.2-50.9h26.5l1.5,11.3v.2l5.4,39.5Zm-19.2-125.2a13.6,13.6,0,1,1,14.6,13.6h-1.1A13.59,13.59,0,0,1,26.55,373.79Zm13.8,22.1h1.2c8.5-.2,18.9,3.1,22.7,9.9l.5,3.5,2.5,16.4,2.5,16.4.9,6.3.7,4.7.2,1.5h-7.8l-.2-1.5v-.3l-2.4-17.3-2-14.8v-.1a4.24,4.24,0,1,0-8.4,1.2l2.4,17.8H28.85l2.2-17.8a4.25,4.25,0,0,0-3.7-4.7,4.33,4.33,0,0,0-4.8,3.6L18,454.59h-7.8l7.4-49C20.45,399.19,27.05,396.39,40.35,395.89Zm46.1-37.1a14,14,0,1,1,14,14A14,14,0,0,1,86.45,358.79Zm50.8-8.8a16.5,16.5,0,1,1,16.5,16.5A16.52,16.52,0,0,1,137.25,350Zm16.4,26c10.5-.6,23.8,3.4,28.5,11.9l1.1,7.3a21.39,21.39,0,0,0-7.7,9.6,2.35,2.35,0,0,0-.2.8l-1.1-7.8A4.69,4.69,0,0,0,165,399l3.3,24.1h-12.4l-.5-3.3a7.37,7.37,0,0,0-.4-1.4c-2.6-5.2-7.4-8.8-12.8-10.9a19.66,19.66,0,0,0,4.7-12.7,19.4,19.4,0,0,0-9.3-16.6c4.1-1.3,9.3-2,15.9-2.3Zm66,.4a13.38,13.38,0,0,1-10.4,13,15.26,15.26,0,0,1-3,.3,16.41,16.41,0,0,1-2.3-.2,13.31,13.31,0,1,1,15.7-13.1Zm43.3-14.9a15,15,0,0,1-13.9,14.9h-1a14.9,14.9,0,1,1,14.9-14.9Zm-66.5,58.3a4.7,4.7,0,0,0-2.8-1.4,4.87,4.87,0,0,0-2.1.2,4.69,4.69,0,0,0-3.1,3.8L188,426l-2.8,20.1-.6,4.7-.6,4.4h-6.6l.1-.7.6-3.7,1.9-12.7,4.6-30.3a10.91,10.91,0,0,1,.6-1.1,11.76,11.76,0,0,1,4.1-4.2,16.27,16.27,0,0,1,4.4-2,51.61,51.61,0,0,1,12.8-1.8h.1a35.2,35.2,0,0,1,7.2.4l-6.3,41.7h-11.7l1.8-14.7.3-2.5A5.75,5.75,0,0,0,196.45,419.79Zm-75.7,78.9h-7.6l4.9-40.4h20.3l1.2,8.5v.2l4.4,31.8h-10.6v-29.4a4.73,4.73,0,0,0-2.6-4.2,4.55,4.55,0,0,0-2-.5h-.4a4.65,4.65,0,0,0-2.3.9,4.47,4.47,0,0,0-1.9,3.8v29.4h-2.1Zm1.2-112.5a10,10,0,0,1,5.4-1.5h.8a10.29,10.29,0,0,1,6.9,17.1,10,10,0,0,1-4.3,2.9,11,11,0,0,1-2.6.6h-.9a10.3,10.3,0,0,1-3.5-.6,9.9,9.9,0,0,1-4.3-3A10.43,10.43,0,0,1,117,395a10.31,10.31,0,0,1,4.6-8.6C121.75,386.29,121.85,386.29,122,386.19Zm22.4,47.8h0a4.62,4.62,0,0,0-4.9-4h-.4a4.68,4.68,0,0,0-3.9,3.7,8.08,8.08,0,0,0-.1,1.6l1.8,13.2.1.5h-17.7l.3-2.8,1.3-11a4.72,4.72,0,0,0-1.1-3.6,4.91,4.91,0,0,0-2.9-1.6,3.81,3.81,0,0,0-1.5.1,4.68,4.68,0,0,0-3.7,3.9l-2.8,20.1-1,7.3h-4.3l6-39.6a11,11,0,0,1,2.8-3.6,15.12,15.12,0,0,1,5.1-2.4,28.74,28.74,0,0,1,4.9-.9c1.6-.2,3.3-.3,5.3-.4h1c1.1,0,2.2,0,3.3.1a.9.9,0,0,1,.5.1,27,27,0,0,1,4.1.8h.1c.2.1.4.1.6.2a16.82,16.82,0,0,1,3.9,1.6,7.46,7.46,0,0,1,1.2.7,11.81,11.81,0,0,1,4.2,4.1l4.5,30,1.4,9.4h-4.3l-.9-6.8Zm-42.3-51.9h.1a41.19,41.19,0,0,1,9.8.7,19.5,19.5,0,0,0-4.2,12.1,19.93,19.93,0,0,0,4.7,12.8c-5,1.9-9.4,5.2-11.8,11.1-.1.3-.2.7-.3,1.1l-2.5,16.3h-9.3l2.9-24.9a4.68,4.68,0,1,0-9.3-1.1l-3.5,30.2h0l-.3,2.6-4.7-30.9,2.6-19C79.55,385.79,87.05,382.69,102.05,382.09Zm-15.5,71.5h0l.9-8.1h9l-3,19.9a4.57,4.57,0,0,0,1.1,3.7,4.79,4.79,0,0,0,3.5,1.6h9l-3.4,27.9-22.4.1Zm66.7,45.2-3.8-28h4.2l3.9,28Zm120.9-48.9-5.1-37.1a4.64,4.64,0,0,0-9.2,1.2l2.7,19.5h-26.4l.7-6.4,1.1-9.9.4-3.3a4.64,4.64,0,0,0-3.6-5.1c-.1,0-.3-.1-.4-.1h-.6a4.68,4.68,0,0,0-3.4,1.5,5.32,5.32,0,0,0-1.2,2.5l-1.8,12.8-1.1,7.9-1,7.6-1,7.5-.1.6-.1.7h-8.5l.1-.7,1.3-8.3.8-5.5,2.6-16.9,2.5-16.3.7-4.8.1-1a13.24,13.24,0,0,1,2-3.2c3.8-4.8,10.9-7,22.9-7.4h1.1c9.4-.2,20.9,3.4,25,10.8l8.1,53.5Zm-42.9-71c-1.2.4-2.4.8-3.6,1.3a23.4,23.4,0,0,0,.3-3.8,7.57,7.57,0,0,0-.1-1.5A21.8,21.8,0,0,0,231.25,378.89Z"/><g class="cls-3"><path class="cls-4" d="M352.27,268.13c6.47,3.33,12.55,3.53,11.18-4.9l-11.93-190c.2-6.08-7.45-8.63-11.37-4.32-49.24,47.26-95.72,70.59-166.91,69.59-4.12.2-6.47,1.77-6.47,6.87l4.49,69.23h0c1,10.39,24.71,3.92,41.19,3.14l3.71,62.95c.2,4.12,3.73,6.87,7.85,6.67l46.48-2.93c4.11-.19,6.86-3.72,6.47-6.86l-3.13-50.6C315.21,239.29,335.21,256.56,352.27,268.13Zm95.53-100.2c9.41-1.17,8-14.7-.39-13.33L406,157.53c-9.22.19-7.85,13.73.58,12.36Zm-10.22,86.68c7.45,3.54,14.52-11.37,6.09-15.1l-36.09-18.44c-7.45-3.53-14.51,11.37-6.08,15.1ZM433.11,78.3c7.06-4.7,0-15.29-7.06-10.59L389.57,92c-7.07,4.71,0,15.3,7.05,10.6ZM260.3,223.2l2.54,48.44-33.14,2.55-4.11-55.9C237.94,217.71,251.67,220.45,260.3,223.2Zm-48.24-18.83-3.52-53.74c34.32-3.33,66.49-16.27,94.73-35.09l7.23,111.59C278,211.44,247.75,204.37,212.06,204.37Zm104.16-97.45,23.14-18.83,10.36,162.19c-8-5.69-16.08-11.38-25.29-16.28ZM180.69,152.19,195,152l3.71,52.75L184,206.91Z"/></g></g></g></svg>