<svg xmlns="http://www.w3.org/2000/svg" viewBox="0 0 454 562.34"><defs><style>.cls-1,.cls-5{fill:#7147dd;}.cls-1{opacity:0.2;}.cls-2{opacity:0.7;}.cls-3{fill:#26a6b5;}.cls-4{opacity:0.3;}.cls-6{opacity:0.8;}</style></defs><title>mgrt</title><g id="Layer_2" data-name="Layer 2"><g id="Layer_1-2" data-name="Layer 1"><path class="cls-1" d="M.25,243c90.8-2.11,132.07-30.85,153-56,39.62-47.6,18.71-97.21,66-144,28.4-28.09,77.05-50.88,119-40,91.32,23.71,104.61,195,106,213,2,25.35,16.73,215.73-117,304-84.51,55.79-185.13,42.28-217,38a368,368,0,0,1-110-33" transform="translate(-0.25 -0.25)"/><g class="cls-2"><path class="cls-3" d="M144.47,165.81a3.67,3.67,0,0,0-3.9-2.68c-.73,0-15.82,1.7-26.29,17.77a21.78,21.78,0,0,0-18.75-3.41,3.18,3.18,0,0,0-2.68,3.17c-2.68,18.5,13.15,36.28,20.7,43.58.48,1.22,1.21,2.44,1.46,3.17.24,5.36.73,9,1,9.5a3.67,3.67,0,0,0,3.65,2.92h.73a3.44,3.44,0,0,0,2.93-4.14,73.38,73.38,0,0,1-.73-7.55c3.16-3.41,13.39-15.1,18.5-25.32C149.58,185,144.47,166.54,144.47,165.81Zm-44.8,18.5a14.61,14.61,0,0,1,11.2,3.41c-.25.73-.73,1.7-1,2.68a.24.24,0,0,0-.24-.24,3.68,3.68,0,1,0-6.09,4.13,39.6,39.6,0,0,1,4.39,9.5V204c0,1.22.24,2.44.24,3.66C103.56,200.87,99.42,192.59,99.67,184.31Zm34.57,14.85a94.54,94.54,0,0,1-11.93,17.29c1-9.49,3.65-21.18,11-31.16a3.65,3.65,0,1,0-5.84-4.39c-6.58,8.77-10,18.75-11.69,27.76a31.81,31.81,0,0,1,2.19-20c6.09-11.68,14.85-15.82,19.72-17.28C138.87,176.76,139.6,188.45,134.24,199.16Z" transform="translate(-0.25 -0.25)"/><path class="cls-3" d="M134,283.17a71.58,71.58,0,0,1-7.3-.49,3.55,3.55,0,1,1,.73-7.06,57.73,57.73,0,0,0,6.57.25,61.39,61.39,0,0,0,61.6-69.16,3.69,3.69,0,0,1,7.31-1c.24,2.68.49,5.36.49,8A69.53,69.53,0,0,1,134,283.17Z" transform="translate(-0.25 -0.25)"/><path class="cls-3" d="M149.1,298c-2.44,0-4.87-.24-7.31-.48a3.64,3.64,0,0,1-3.16-4.14,3.49,3.49,0,0,1,4.14-3.17,57.73,57.73,0,0,0,6.57.25,62.2,62.2,0,0,0,62.09-62.1,70,70,0,0,0-.48-7.06,3.68,3.68,0,1,1,7.3-1c.24,2.68.49,5.36.49,8C218.25,267.1,187.33,298,149.1,298Z" transform="translate(-0.25 -0.25)"/><path class="cls-3" d="M119.39,252.49a3.75,3.75,0,0,1,3.41-3.9h0a3.76,3.76,0,0,1,3.9,3.41h0a3.94,3.94,0,0,1-3.41,3.9H123A3.53,3.53,0,0,1,119.39,252.49Zm-11.69,2.44a4,4,0,0,1-2.92-4.39h0a4,4,0,0,1,4.38-2.92h0a4,4,0,0,1,2.93,4.38h0a3.68,3.68,0,0,1-3.66,2.93h0C108.19,255.17,108,254.93,107.7,254.93Zm26.06-4.39a3.51,3.51,0,0,1,2.19-4.62h0a3.51,3.51,0,0,1,4.62,2.19h0a3.51,3.51,0,0,1-2.19,4.62h0a2.12,2.12,0,0,1-1.21.25h0A3.65,3.65,0,0,1,133.76,250.54Zm-40.67-.73a3.63,3.63,0,0,1-1.46-4.87h0a3.63,3.63,0,0,1,4.87-1.46h0A3.61,3.61,0,0,1,98,248.35h0a3.8,3.8,0,0,1-3.16,2h0A3.48,3.48,0,0,1,93.09,249.81Zm54.06-5.11a3.6,3.6,0,0,1,1-5.11h0a3.77,3.77,0,0,1,5.12.73h0a3.6,3.6,0,0,1-1,5.11h0a3.9,3.9,0,0,1-2.19.73h0A3.82,3.82,0,0,1,147.15,244.7Zm-67-3.9a3.77,3.77,0,0,1-.25-5.11h0a3.77,3.77,0,0,1,5.12-.24h0a3.76,3.76,0,0,1,.24,5.11h0a3.91,3.91,0,0,1-2.68,1.22h0A3.49,3.49,0,0,1,80.19,240.8Zm78.4-5.35a3.38,3.38,0,0,1-.48-5.12h0a3.54,3.54,0,0,1,5.11-.48h0a3.78,3.78,0,0,1,.49,5.11h0a3.49,3.49,0,0,1-2.93,1.46h0A6.09,6.09,0,0,1,158.59,235.45Zm-88.14-6.58a3.89,3.89,0,0,1,1.21-5.11h0A3.89,3.89,0,0,1,76.78,225h0a3.89,3.89,0,0,1-1.22,5.11h0a4.66,4.66,0,0,1-2,.49h0C72.15,230.58,70.93,230.09,70.45,228.87Zm96.42-5.36a3.67,3.67,0,0,1-2-4.87h0a3.68,3.68,0,0,1,4.87-1.94h0a3.67,3.67,0,0,1,2,4.87h0a3.44,3.44,0,0,1-3.41,2.19h0A3,3,0,0,1,166.87,223.51Zm-102.75-9a3.48,3.48,0,0,1,2.43-4.38h0a3.86,3.86,0,0,1,4.63,2.44h0a3.86,3.86,0,0,1-2.44,4.62h0c-.24,0-.73.25-1,.25h0A4.18,4.18,0,0,1,64.12,214.5Zm107.62-4.87a3.76,3.76,0,0,1-3.16-4.13h0a3.78,3.78,0,0,1,4.14-3.17h0a3.78,3.78,0,0,1,3.16,4.14h0a3.65,3.65,0,0,1-3.65,3.16h0C172,209.88,172,209.63,171.74,209.63ZM61.92,199.16h0a3.8,3.8,0,0,1,3.66-3.89h0a3.74,3.74,0,0,1,3.65,3.65h0a3.74,3.74,0,0,1-3.65,3.65h0A3.39,3.39,0,0,1,61.92,199.16Zm106.66-7.06h0a3.78,3.78,0,0,1,3.16-4.14h0a3.78,3.78,0,0,1,4.14,3.17h0a3.78,3.78,0,0,1-3.16,4.14h-.49A3.68,3.68,0,0,1,168.58,192.1ZM66.55,188a3.46,3.46,0,0,1-2.43-4.62h0a3.55,3.55,0,0,1,4.62-2.44h0a3.56,3.56,0,0,1,2.44,4.63h0a3.6,3.6,0,0,1-3.41,2.68h0A10.09,10.09,0,0,1,66.55,188Zm98.37-9h0a3.76,3.76,0,0,1,2-4.87h0a3.75,3.75,0,0,1,4.87,1.95h0a3.75,3.75,0,0,1-2,4.87h0a3,3,0,0,1-1.46.25h0A3.45,3.45,0,0,1,164.92,179Zm-93.5-4.87A3.78,3.78,0,0,1,70.2,169h0a3.86,3.86,0,0,1,5.12-1.22h0a3.84,3.84,0,0,1,1.21,5.12h0a3.55,3.55,0,0,1-3.16,1.7h0A2,2,0,0,1,71.42,174.08Zm86.44-6.81h0a3.79,3.79,0,0,1,.49-5.12h0a3.75,3.75,0,0,1,5.11.49h0a3.77,3.77,0,0,1-.48,5.11h0a4.09,4.09,0,0,1-2.44.73h0A2.6,2.6,0,0,1,157.86,167.27Zm-77.92-5.12a3.54,3.54,0,0,1,.25-5.11h0a3.53,3.53,0,0,1,5.11.24h0a3.54,3.54,0,0,1-.24,5.12h0a3.5,3.5,0,0,1-2.44,1h0A3.1,3.1,0,0,1,79.94,162.15ZM147.88,158a3.81,3.81,0,0,1-1-5.11h0a3.82,3.82,0,0,1,5.11-1h0a3.82,3.82,0,0,1,1,5.11h0a3.82,3.82,0,0,1-2.92,1.46h0A2.48,2.48,0,0,1,147.88,158Zm-56.74-4.87a3.63,3.63,0,0,1,1.47-4.87h0a3.63,3.63,0,0,1,4.87,1.46h0A3.62,3.62,0,0,1,96,154.6h0a4.34,4.34,0,0,1-1.7.49h0A3.81,3.81,0,0,1,91.14,153.14Zm44.56-1.21h0a3.53,3.53,0,0,1-2.19-4.63h0a3.52,3.52,0,0,1,4.63-2.19h0a3.51,3.51,0,0,1,2.19,4.62h0a3.66,3.66,0,0,1-3.41,2.44h0A10.45,10.45,0,0,0,135.7,151.93Zm-31.16-4.63a3.6,3.6,0,0,1,2.92-4.38h0a3.78,3.78,0,0,1,4.38,2.92h0a3.78,3.78,0,0,1-2.92,4.38h-.73A3.87,3.87,0,0,1,104.54,147.3Zm18,1.7h0a3.73,3.73,0,0,1-3.41-3.89h0A3.93,3.93,0,0,1,123,141.7h0a3.74,3.74,0,0,1,3.41,3.9h0a3.69,3.69,0,0,1-3.65,3.4h-.24Z" transform="translate(-0.25 -0.25)"/><path class="cls-3" d="M119.15,268.32a69.4,69.4,0,1,1,69.39-69.4A69.53,69.53,0,0,1,119.15,268.32Zm0-131.49a62.09,62.09,0,1,0,62.09,62.09A62,62,0,0,0,119.15,136.83Z" transform="translate(-0.25 -0.25)"/></g><g class="cls-4"><path class="cls-5" d="M289.38,529.2a3.2,3.2,0,0,1,5.29-3.27l8.16,8.16c-3.4,1.7-6.8,3.29-10.22,4.8Z" transform="translate(-0.25 -0.25)"/><path class="cls-5" d="M329.94,433.43a3.2,3.2,0,0,1-.13,4.38l-7.33,7.33,5.07,5.06L338,439.78a6.4,6.4,0,0,0,.19-8.84L314,404.62a3.61,3.61,0,0,0-2.59-1.18,3.74,3.74,0,0,0-2.65,1.08,3.62,3.62,0,0,0-.15,5ZM229,417.27a3.56,3.56,0,0,0-.13,4.92l28.54,31.1,5.06-5.06-28.3-30.83a3.48,3.48,0,0,0-2.56-1.17A3.44,3.44,0,0,0,229,417.27Zm9.55-4.53.32.33L269,446l11.69,8.77h3.36a12.87,12.87,0,0,1-4.43-9.69l.29-9.11a19.13,19.13,0,0,1-9.15-5l-3-3a3.18,3.18,0,0,1,0-4.51,2.43,2.43,0,0,1,.34-.3l8.41-6.34a19.25,19.25,0,0,1,20.55-2.18l3.62,1.82c.12.06.43.26.54.32a16,16,0,0,1,5.43,20.45l-1.34,2.68-.15,5.26a12.75,12.75,0,0,1-4.42,9.59h.1l15-12,7.34-7.33-19.29-21.7a10,10,0,0,1,.43-13.74,9.79,9.79,0,0,1,7.27-2.92,10,10,0,0,1,7.15,3.23l24.15,26.34a12.75,12.75,0,0,1-.38,17.67L329.82,457s-.09,0-.13.09-.05.08-.09.11l-18,15v42.34l6.67,11.13c-1.84,1.1-3.68,2.16-5.54,3.2l-7.08-11.8a3.16,3.16,0,0,1-.45-1.64V509H272.67L271,517.45a9.62,9.62,0,0,0,1.27,7l11.41,18.24q-3.06,1.2-6.1,2.33l-10.74-17.19a15.91,15.91,0,0,1-2.11-11.6l2.14-10.68V472L255,460.17s0,0,0-.06,0,0-.06,0L224.11,426.5a10,10,0,0,1,14.41-13.76Zm36.77,13.65a13.39,13.39,0,0,0,17.2,1.18l1.7-1.28a3.24,3.24,0,0,1,2.45-.59,3.21,3.21,0,0,1,2.12,1.38l3.08,4.62a9.73,9.73,0,0,0-4.16-9.66h0l-3.45-1.72a12.86,12.86,0,0,0-13.77,1.51L274.91,426Zm-3,42a3.18,3.18,0,0,1,.93,2.26v31.94h31.95V470.69a3.2,3.2,0,0,1,1.15-2.46l16.48-13.73-5.09-5.09L304,460.4a3.14,3.14,0,0,1-2,.7H279.64a3.2,3.2,0,0,1-1.92-.63l-10.56-7.93-5.37,5.37ZM299,439l-3.71-5.55a19.34,19.34,0,0,1-9,3l-.28,8.72a6.39,6.39,0,1,0,12.78-.1Z" transform="translate(-0.25 -0.25)"/><path class="cls-5" d="M141.25,423.88a3.89,3.89,0,0,1,1.4,3v39h39v-39a3.89,3.89,0,0,1,1.14-2.75l12.84-12.84-6.55-6.56-12.89,9.68a4,4,0,0,1-2.34.78h-27.3a3.92,3.92,0,0,1-2.44-.86L127.34,400.9l-6.21,6.21Zm12.81,130.28a3.56,3.56,0,0,1,.25,1.24,1,1,0,0,1,0,.17v6.63q-4-.18-7.8-.42v-2.31H131a7.85,7.85,0,0,0-3.22.7c-3.64-.39-7-.78-10-1.16a15.59,15.59,0,0,1,7.66-6.28l-13.65-30.67a3.92,3.92,0,0,1,.22-3.6l22.84-38.07V428.7l-22-18.33s-.06-.09-.11-.14-.11-.05-.15-.1L97.1,394.65a15.56,15.56,0,0,1-.47-21.57l29.48-32.15a12.14,12.14,0,0,1,8.74-3.95,12,12,0,0,1,8.87,3.57,12.22,12.22,0,0,1,.52,16.77l-23.55,26.5,9,8.95,18.26,14.61H148a15.5,15.5,0,0,1-5.39-11.7l-.19-6.43L140.82,386a19.53,19.53,0,0,1,6.63-25c.14-.07.52-.31.66-.39l4.43-2.22a23.48,23.48,0,0,1,25.08,2.66l10.28,7.75a4.47,4.47,0,0,1,.41.35,3.91,3.91,0,0,1,0,5.52l-3.65,3.64a23.22,23.22,0,0,1-11.16,6.1l.35,11.13a15.68,15.68,0,0,1-5.41,11.83h4.11l14.27-10.71,36.83-40.13c.12-.14.26-.28.39-.41a12.17,12.17,0,0,1,17.59,16.8l-37.61,41s-.05,0-.07,0,0,.07,0,.07l-14.46,14.46v40.9l2.62,13a19.4,19.4,0,0,1-2.58,14.16l-15,24,18.38,33.09a1.45,1.45,0,0,1,.1.25,2.88,2.88,0,0,1,.13.31,3.87,3.87,0,0,1,.25,1.26v6.43c-2.63.16-5.24.29-7.8.39v-2.85H170a7.78,7.78,0,0,0-6.17,3c-2.93-.06-5.8-.15-8.59-.27a15.61,15.61,0,0,1,8.81-9.39l-16.95-30.49a4,4,0,0,1-.29-3.12l2.58-7.73-9.83,9.82L154,554v0A.7.7,0,0,1,154.06,554.16ZM102.4,378.35a7.8,7.8,0,0,0,.23,10.79l12.72,12.72,6.19-6.18-9-8.94a3.9,3.9,0,0,1-.16-5.35l26-29.25a4.4,4.4,0,0,0-.18-6,4.51,4.51,0,0,0-3.24-1.32,4.36,4.36,0,0,0-3.15,1.43Zm55.75-4.12a16.34,16.34,0,0,0,21-1.44l.47-.47-6.78-5.11A15.7,15.7,0,0,0,156,365.37l-4.21,2.11a11.9,11.9,0,0,0-5.08,11.8l3.77-5.65a3.89,3.89,0,0,1,2.58-1.68,4,4,0,0,1,3,.72Zm0,29.19a7.8,7.8,0,0,0,7.86-7.74L165.71,385a23.75,23.75,0,0,1-11-3.67l-4.52,6.79.23,7.4A7.81,7.81,0,0,0,158.19,403.42Zm1.29,90a3.89,3.89,0,0,1,2.47,4.93l-7.26,21.77,17.55,31.59h10.58l-16.28-29.3a3.9,3.9,0,0,1,.1-4l16.22-25.95a11.69,11.69,0,0,0,1.55-8.5l-2.06-10.29h-39.7v7.8a3.86,3.86,0,0,1-.56,2l-22.35,37.26,13.75,30.94h11l-13.16-29.62a3.89,3.89,0,0,1,.8-4.34l23.4-23.4A3.9,3.9,0,0,1,159.48,493.38Zm76.38-125.71a4.35,4.35,0,0,0-.16-6,4.18,4.18,0,0,0-3.19-1.27,4.29,4.29,0,0,0-3.12,1.42l-34.56,37.65,6.18,6.18Z" transform="translate(-0.25 -0.25)"/></g><g class="cls-6"><path class="cls-5" d="M454.25,249.84l-4.59,4.61c-.15-.15-15-14.53-46.71-21.14-9.47,11.39-24.77,18.83-42.06,18.83s-32.58-7.44-42.05-18.83c-31.84,6.64-46.56,21-46.71,21.13l-4.6-4.6c.65-.65,15.38-15.07,47.19-22.32a42.27,42.27,0,0,1-3.67-7.9h-2.19a13,13,0,1,1,0-26v6.51a6.5,6.5,0,1,0,0,13h.59a40,40,0,0,1-.59-6.5h6.5c0,21.52,20.42,39,45.53,39s45.53-17.51,45.53-39h6.51a40,40,0,0,1-.6,6.5h.6a6.5,6.5,0,0,0,0-13V193.6a13,13,0,0,1,0,26h-2.2a42.27,42.27,0,0,1-3.67,7.9C438.87,234.76,453.6,249.19,454.25,249.84Z" transform="translate(-0.25 -0.25)"/><path class="cls-5" d="M409.67,115.55a3.25,3.25,0,1,1,0,6.5h-9.75a3.25,3.25,0,1,1,0-6.5Z" transform="translate(-0.25 -0.25)"/><path class="cls-5" d="M402.61,80.73a3.25,3.25,0,0,1,0,4.6l-6.9,6.9a3.25,3.25,0,1,1-4.6-4.6l6.9-6.9A3.25,3.25,0,0,1,402.61,80.73Z" transform="translate(-0.25 -0.25)"/><path class="cls-5" d="M401.72,174.27l-3.6,5.42c-7.87-5.25-15.83-.06-15.91,0l-3.61-5.42C379.07,174,390.29,166.65,401.72,174.27Z" transform="translate(-0.25 -0.25)"/><path class="cls-5" d="M388.53,190.35a4.88,4.88,0,1,1-4.87,4.88A4.88,4.88,0,0,1,388.53,190.35Z" transform="translate(-0.25 -0.25)"/><path class="cls-5" d="M383.66,219.58l6.5,0c0,.16-.26,16.26-22.76,16.26v-6.5C382.94,229.38,383.63,220.58,383.66,219.58Z" transform="translate(-0.25 -0.25)"/><path class="cls-5" d="M386.91,122.05a26.06,26.06,0,0,1-9.76,20.3v5.72a9.77,9.77,0,0,1-9.76,9.76h-13a9.76,9.76,0,0,1-9.75-9.76v-5.73a26,26,0,1,1,42.28-20.29Zm-14.87,16a19.52,19.52,0,1,0-22.3,0l1.39,1v9a3.25,3.25,0,0,0,3.25,3.25h13a3.24,3.24,0,0,0,3.25-3.25v-9Z" transform="translate(-0.25 -0.25)"/><path class="cls-5" d="M370.65,161.08a3.25,3.25,0,0,1,0,6.5H351.13a3.25,3.25,0,0,1,0-6.5Z" transform="translate(-0.25 -0.25)"/><path class="cls-5" d="M370.65,193.6v13a9.76,9.76,0,0,1-19.52,0v-13h6.51v13a3.25,3.25,0,0,0,6.5,0v-13Z" transform="translate(-0.25 -0.25)"/><path class="cls-5" d="M354.39,170.84h13a6.51,6.51,0,0,1-13,0Z" transform="translate(-0.25 -0.25)"/><path class="cls-5" d="M364.14,73.27V83a3.25,3.25,0,0,1-6.5,0V73.27a3.25,3.25,0,1,1,6.5,0Z" transform="translate(-0.25 -0.25)"/><path class="cls-5" d="M343.18,181.14l-3.6,5.41c-7.87-5.24-15.83-.05-15.91,0l-3.61-5.41C320.53,180.82,331.75,173.51,343.18,181.14Z" transform="translate(-0.25 -0.25)"/><circle class="cls-5" cx="333" cy="194.98" r="4.88"/><path class="cls-5" d="M333.92,87.63a3.25,3.25,0,0,1-4.6,4.6l-6.9-6.9a3.25,3.25,0,0,1,4.6-4.6Z" transform="translate(-0.25 -0.25)"/><path class="cls-5" d="M325.12,115.55a3.25,3.25,0,0,1,0,6.5h-9.76a3.25,3.25,0,0,1,0-6.5Z" transform="translate(-0.25 -0.25)"/></g></g></g></svg>