<svg xmlns="http://www.w3.org/2000/svg" viewBox="0 0 448.56 541.48"><defs><style>.cls-1,.cls-6{fill:#7147dd;}.cls-1{opacity:0.2;}.cls-2{opacity:0.3;}.cls-3{fill:none;}.cls-4{fill:#26a6b5;}.cls-5{opacity:0.8;}</style></defs><title>miss</title><g id="Layer_2" data-name="Layer 2"><g id="Layer_1-2" data-name="Layer 1"><path class="cls-1" d="M0,110.47c23.73-25.12,87.58-85.82,188-103,43.64-7.46,124.42-21.28,188,30,74.42,60,93.72,183.79,48,242-47,59.89-139.36,20.5-184,90-25.9,40.34-4.05,68-39,114-6.18,8.14-31.84,41.92-74.19,53.83A111.55,111.55,0,0,1,97,541.47c-55.56.25-91.25-40.26-97-47"/><g class="cls-2"><rect class="cls-3" x="350.63" y="245.72" width="39.92" height="17.74"/><path class="cls-3" d="M315.94,228a9.68,9.68,0,0,0-9.67,9.67V326c5.85-1.46,11.78-2.7,17.75-3.85V228Z"/><path class="cls-3" d="M282.58,310.27l14.82-7.42V287.73l-10.28-1.58L271.17,334l-8.42-2.8,3.19-9.56-8.46-14.09L249,321.65,257.48,347l2.45-7.33,7.12,2.37a107.52,107.52,0,0,1,21.08-10.46l3.68-2.87Z"/><path class="cls-3" d="M372.81,228H332.89v92.57c17.84-3.25,35.7-6.3,52-12.73H341.76v-8.87h57.66v1.87a89.21,89.21,0,0,0,8.87-5.9V228Zm-22.18,62.1h-8.87V281.2h8.87Zm48.79,0H359.5V281.2h39.92Zm-57.66-17.74V236.85h57.66v35.48Z"/><path class="cls-3" d="M220.49,314.23l-17.43-8.71,6.63-16.58-4.81.75a46.12,46.12,0,0,0-36.79,31.64q-4.18,100.51-8.38,201A158.06,158.06,0,0,0,195,491q.21-83,.41-166l8.8,1.1q-2.06,79.27-4.12,158.55l.9-1.19c34.95-46,13.1-73.66,39-114a97.24,97.24,0,0,1,7.6-10.27L212,331.26Z"/><path class="cls-3" d="M288.53,277.4l8.87,1.37V266.56a61.84,61.84,0,0,1-8.87,6.27Z"/><path class="cls-3" d="M230.87,194.71a2.22,2.22,0,1,0-2.22,2.22A2.21,2.21,0,0,0,230.87,194.71Z"/><path class="cls-3" d="M235.31,277v3.44l.26.79c1.32,3.39,6.48,13.24,21.91,13.24s20.6-9.88,21.92-13.25l.26-.78V277a61.11,61.11,0,0,1-44.35,0Z"/><path class="cls-3" d="M269.63,310.57,273.16,300a33.19,33.19,0,0,1-8.29,2.64Z"/><path class="cls-3" d="M319.58,197.74V219.1H325a13.15,13.15,0,0,0-5.38-21.36Z"/><path class="cls-3" d="M301.84,130.39H298l-.54-3.8A31.88,31.88,0,0,0,266,99.35h-8.56a71,71,0,0,0-71,71V192.6a21.88,21.88,0,0,1,11.67-4.38l5.61-3.93A150.2,150.2,0,0,1,290.36,157h5l2.81,4.21a20.4,20.4,0,0,0,17,9.09h4.43v18.2a21.94,21.94,0,0,1,8.87,4.1V157A26.64,26.64,0,0,0,301.84,130.39Z"/><path class="cls-3" d="M245.34,310.57l4.76-7.94a33.19,33.19,0,0,1-8.29-2.64Z"/><path class="cls-3" d="M286.31,192.49a2.22,2.22,0,1,0,2.22,2.22A2.21,2.21,0,0,0,286.31,192.49Z"/><path class="cls-3" d="M310.71,178.85a29.24,29.24,0,0,1-19.94-12.71l-.41-.26a141.37,141.37,0,0,0-81.47,25.68l-4.63,3.24v24.3a53.17,53.17,0,0,0,93.14,35.12V237.64A18.5,18.5,0,0,1,310.72,220c0-.27,0-.52,0-.85Zm-93.15,15.86a11.09,11.09,0,1,1,11.09,11.09A11.11,11.11,0,0,1,217.56,194.71ZM257.48,259A35.52,35.52,0,0,1,222,223.54h8.87a26.62,26.62,0,0,0,53.23,0H293A35.53,35.53,0,0,1,257.48,259Zm28.83-53.22a11.09,11.09,0,1,1,11.09-11.09A11.1,11.1,0,0,1,286.31,205.8Z"/><path class="cls-3" d="M186.52,210.23a13.29,13.29,0,0,0,9,12.55c-.07-1.22-.18-2.43-.18-3.68V197.74A13.3,13.3,0,0,0,186.52,210.23Z"/><polygon class="cls-3" points="381.68 219.1 408.29 219.1 408.29 210.23 399.42 210.23 399.42 201.36 408.29 201.36 408.29 192.49 390.55 192.49 390.55 183.62 408.29 183.62 408.29 174.75 399.42 174.75 399.42 165.88 408.29 165.88 408.29 157.01 390.55 157.01 390.55 148.14 408.29 148.14 408.29 139.26 381.68 139.26 381.68 219.1"/><path class="cls-3" d="M376,37.47C312.42-13.81,231.64,0,188,7.47,87.58,24.65,23.73,85.35,0,110.47v384c5.75,6.74,41.44,47.25,97,47a111.55,111.55,0,0,0,29.81-4.17,120.31,120.31,0,0,0,26.07-10.86q3.36-103.88,6.74-207.76a54.85,54.85,0,0,1,19.32-27.31,26.51,26.51,0,0,0,4.41-6.33,28.74,28.74,0,0,1-5.7.6c-15.87,0-21.48-10.87-21.71-11.33l-1.6-3.2,8.33-6.67a39.73,39.73,0,0,0,15-31.17v-63a79.93,79.93,0,0,1,79.83-79.84H266a40.82,40.82,0,0,1,39.5,31.25A35.52,35.52,0,0,1,337.32,157v53.22a22.14,22.14,0,0,1-1.86,8.87h37.35V130.39h44.35V287.2a85.84,85.84,0,0,0,6.84-7.73C469.72,221.26,450.42,97.5,376,37.47Z"/><polygon class="cls-3" points="297.4 320.07 297.4 312.77 294.49 314.24 297.4 320.07"/><polygon class="cls-3" points="219.87 287.38 214.33 301.24 232.39 310.26 223.16 328.72 248.64 348.54 227.85 286.15 219.87 287.38"/><path class="cls-3" d="M226.44,272.8a62.24,62.24,0,0,1-29.66-40.7,21.85,21.85,0,0,1-10.26-4.24v5.41a48.56,48.56,0,0,1-18.32,38.1l-2,1.62c2.07,1.77,5.69,3.77,11.48,3.77,6.73,0,10.08-3.05,10.21-3.18l.14.14a104.59,104.59,0,0,0,3-11.14l8.69,1.75a113.6,113.6,0,0,1-5.82,19,53.71,53.71,0,0,1,9.63-2.44l22.9-3.53Z"/><path class="cls-4" d="M239.74,194.71a11.09,11.09,0,1,0-11.09,11.09A11.1,11.1,0,0,0,239.74,194.71Zm-13.3,0a2.22,2.22,0,1,1,2.21,2.22A2.21,2.21,0,0,1,226.44,194.71Z"/><path class="cls-4" d="M286.31,183.62a11.09,11.09,0,1,0,11.09,11.09A11.1,11.1,0,0,0,286.31,183.62Zm0,13.31a2.22,2.22,0,1,1,2.22-2.22A2.22,2.22,0,0,1,286.31,196.93Z"/><path class="cls-4" d="M257.48,250.15a26.64,26.64,0,0,1-26.61-26.61H222a35.49,35.49,0,0,0,71,0H284.1A26.64,26.64,0,0,1,257.48,250.15Z"/><path class="cls-4" d="M341.76,236.85v35.48h57.66V236.85Zm48.79,26.61H350.63V245.72h39.92Z"/><rect class="cls-4" x="341.76" y="281.2" width="8.87" height="8.87"/><rect class="cls-4" x="359.5" y="281.2" width="39.92" height="8.87"/><path class="cls-4" d="M341.76,298.94v8.87h43.12a105.59,105.59,0,0,0,14.54-7v-1.87Z"/><path class="cls-4" d="M195.42,325q-.21,83-.41,166c2.16-2.58,3.86-4.75,5.09-6.35q2.06-79.28,4.12-158.55Z"/><path class="cls-4" d="M417.16,219.1V130.39H372.81V219.1H335.46a22.14,22.14,0,0,0,1.86-8.87V157a35.52,35.52,0,0,0-31.78-35.29A40.82,40.82,0,0,0,266,90.47h-8.56a79.93,79.93,0,0,0-79.83,79.84v63a39.73,39.73,0,0,1-15,31.17l-8.33,6.67,1.6,3.2c.23.46,5.84,11.33,21.71,11.33a28.74,28.74,0,0,0,5.7-.6,26.51,26.51,0,0,1-4.41,6.33,54.85,54.85,0,0,0-19.32,27.31q-3.37,103.88-6.74,207.76c2.36-1.32,4.63-2.69,6.83-4.09q4.2-100.52,8.38-201a46.12,46.12,0,0,1,36.79-31.64l4.81-.75-6.63,16.58,17.43,8.71-8.51,17L247.6,359.2a89,89,0,0,1,19.45-17.15l-7.12-2.37L257.48,347,249,321.65l8.45-14.08,8.46,14.09-3.19,9.56,8.42,2.8,15.95-47.87,10.28,1.58v15.12l-14.82,7.42,9.23,18.45-3.68,2.87A166.14,166.14,0,0,1,306.27,326v-88.4a9.68,9.68,0,0,1,9.67-9.67H324v94.22q4.43-.84,8.87-1.65V228h75.4v66.94a86.18,86.18,0,0,0,8.87-7.71V219.1Zm-119.76,101-2.92-5.83,2.92-1.47ZM195.57,222.78a13.23,13.23,0,0,1-.18-25V219.1C195.39,220.35,195.5,221.56,195.57,222.78Zm8,58.14a53.71,53.71,0,0,0-9.63,2.44,113.6,113.6,0,0,0,5.82-19L191,262.58a104.59,104.59,0,0,1-3,11.14l-.14-.14c-.13.13-3.48,3.18-10.21,3.18-5.79,0-9.41-2-11.48-3.77l2-1.62a48.56,48.56,0,0,0,18.32-38.1v-5.41a21.85,21.85,0,0,0,10.26,4.24,62.24,62.24,0,0,0,29.66,40.7v4.59Zm19.62,47.8,9.23-18.46-18.06-9,5.54-13.86,8-1.23,20.79,62.39Zm22.18-18.15L241.81,300a33.19,33.19,0,0,0,8.29,2.64Zm24.29,0-4.76-7.94a33.19,33.19,0,0,0,8.29-2.64Zm10-30.09-.26.78c-1.32,3.37-6.49,13.25-21.92,13.25s-20.59-9.85-21.91-13.24l-.26-.79V277a61.11,61.11,0,0,0,44.35,0Zm17.74-1.71-8.87-1.37v-4.57a61.84,61.84,0,0,0,8.87-6.27Zm0-41.13v16.58a53.17,53.17,0,0,1-93.14-35.12V194.8l4.63-3.24a141.37,141.37,0,0,1,81.47-25.68l.41.26a29.24,29.24,0,0,0,19.94,12.71V219.1c0,.33,0,.58,0,.85A18.5,18.5,0,0,0,297.4,237.64ZM325,219.1h-5.38V197.74A13.15,13.15,0,0,1,325,219.1Zm3.49-26.49a21.94,21.94,0,0,0-8.87-4.1v-18.2h-4.43a20.4,20.4,0,0,1-17-9.09L295.34,157h-5a150.2,150.2,0,0,0-86.56,27.28l-5.61,3.93a21.88,21.88,0,0,0-11.67,4.38V170.31a71,71,0,0,1,71-71H266a31.88,31.88,0,0,1,31.41,27.24l.54,3.8h3.85A26.64,26.64,0,0,1,328.45,157Zm79.84-44.47H390.55V157h17.74v8.87h-8.87v8.87h8.87v8.87H390.55v8.87h17.74v8.87h-8.87v8.87h8.87v8.87H381.68V139.26h26.61Z"/></g><g class="cls-5"><path class="cls-6" d="M223.34,489.57l-40-35.18-5.1,5.8-8.39-7.39A42.66,42.66,0,0,0,105.7,399l-.25.16c-.42.35-.81.73-1.23,1.09s-.76.66-1.13,1l-.19.17c-.31-.57-.65-1.11-1-1.66a7.77,7.77,0,0,0,.65-5,7.22,7.22,0,0,0-.58-1.6l-.31-.68c-.19-.33-.41-.67-.65-1l5.06-3.2L112.42,377l-5.35-3-5.57,10-4.68,3a25.52,25.52,0,0,0-6-3.84l21.26-48.35-5.6-2.47-21.7,49.34c-.32,0-.64,0-1,0a10.19,10.19,0,0,0-1.47.2,9.65,9.65,0,0,0-2.55.94l-39.7-36.64L36,350.66l39.18,36.16a31.42,31.42,0,0,0-3.42,5.33l-5.32-.82-9.1-6.94-3.72,4.87L64,397.14l5.36.83a7.71,7.71,0,0,0-.23,3.86,7.83,7.83,0,0,0,2.57,4.28c0,.3-.08.59-.11.9l0,0A5.62,5.62,0,0,0,65,408l-7.76,7.53L41.41,418.8l1.25,6,17.61-3.67L69,412.61l2.14,1.1a76.29,76.29,0,0,0,.55,9.47,5.55,5.55,0,0,0-5.46,6l1.81,23.13-9.62,19.43L64,474.48l10.37-20.94-1.88-24.05.32.11c0,.24.09.47.14.71,3.12,15,10.21,28.2,19,35.38a9.84,9.84,0,0,0,7,2.28,11.08,11.08,0,0,0,1.49-.2,9.92,9.92,0,0,0,4.94-2.59l.31.25a1.19,1.19,0,0,0,.22.12,42.6,42.6,0,0,0,52.55.7l8.23,7.24-5.1,5.8,40,35.18a14.68,14.68,0,0,0,20.69-1.33l2.54-2.88a14.68,14.68,0,0,0-1.33-20.69ZM156.6,404.82a36.51,36.51,0,0,1,6,48c-.23.34-.46.69-.71,1-.62.85-1.28,1.69-2,2.5l0,.05,0,0c-.69.78-1.42,1.51-2.16,2.23l-.76.7a36,36,0,0,1-12.85,7.51l-15-16.84-5-26a5.9,5.9,0,0,0-8.6-4.11A87.59,87.59,0,0,0,113,408.57l2.56-2.49L128,412.9l20.29-1.3-.39-6.12-18.52,1.19-10.9-6a6,6,0,0,0-3.2-.71,36.53,36.53,0,0,1,41.3,4.82Zm-50.29,53c-.42-.44-.83-.88-1.23-1.33l-.06-.07c-.35-.39-.68-.79-1-1.19s-.86-1.09-1.26-1.66c-.25-.34-.49-.69-.72-1-.44-.67-.87-1.35-1.27-2-.14-.25-.28-.5-.41-.75-.45-.81-.86-1.64-1.24-2.48-.06-.13-.11-.27-.17-.4-.41-1-.79-1.92-1.12-2.89,0,0,0-.05,0-.08A36.82,36.82,0,0,1,100.26,415c.1-.19.19-.39.3-.58.36-.65.78-1.28,1.19-1.92.25-.39.49-.78.75-1.17s.76-1,1.15-1.5.87-1.14,1.34-1.68l0,0c.35-.4.74-.76,1.11-1.14a82.49,82.49,0,0,1,3.94,20.7C110.76,438.61,109.44,449.14,106.31,457.82ZM75.25,399.51l.1-.25c1.15-3.4,4.69-10.66,8.3-11.41a5.78,5.78,0,0,1,.6-.08c4.09-.26,9.92,4.33,12,7.69l.17.39a2.44,2.44,0,0,0,.13.25,2.79,2.79,0,0,1-.83,2.07,5.63,5.63,0,0,1-.52.59l-.37.36c-.16.14-.35.28-.53.43a18.49,18.49,0,0,1-7.56,3.31,22.41,22.41,0,0,1-3.1.43A16.73,16.73,0,0,1,79,403a11.17,11.17,0,0,1-1.11-.31c-.09,0-.19-.05-.28-.09a7.13,7.13,0,0,1-1.11-.5,2.67,2.67,0,0,1-1.43-1.5A1.71,1.71,0,0,1,75.25,399.51Zm23.81,62.26a3.76,3.76,0,0,1-3.32-.82c-7.7-6.32-14-18.24-16.85-31.89a71.09,71.09,0,0,1-1.39-20.13l.16,0a20.41,20.41,0,0,0,10.47.39,20,20,0,0,0,9.43-4.54l.14-.1.84,1.63c-.14.17-.25.36-.37.53-.4.54-.77,1.09-1.14,1.63s-.69,1-1,1.58-.8,1.36-1.17,2.06l-.61,1.16c-.42.85-.82,1.72-1.18,2.59l-.24.6a42.39,42.39,0,0,0-1.7,5.18c-.07.27-.17.54-.24.81s-.05.34-.09.51a43,43,0,0,0-.94,12h0a43.46,43.46,0,0,0,.92,6.27.09.09,0,0,0,0,.05c.25,1.19.55,2.36.91,3.51v0a42.32,42.32,0,0,0,7.88,14.59c.42.5.81,1,1.25,1.5A4,4,0,0,1,99.06,461.77Zm12.15.28c4-9.87,5.78-22.09,5-34.78,0-.18,0-.36,0-.54l1.92-1.28,5.31,27.44,13.94,15.6c-.83.11-1.67.23-2.52.28A36.33,36.33,0,0,1,111.21,462.05Zm53.29-1.57h0c.7-.79,1.37-1.61,2-2.45l7.7,6.77-3.61,4.1-7.66-6.74C163.48,461.61,164,461.05,164.5,460.48Zm55.57,45.73-2.54,2.88a8.55,8.55,0,0,1-12.05.78l-23.79-20.94,5.38-6.11-4.6-4.05-5.38,6.12-7-6.15L183.91,463l35.39,31.12a8.56,8.56,0,0,1,.77,12Z"/><rect class="cls-6" x="195.8" y="464.36" width="6.12" height="39.23" transform="translate(-295.87 313.64) rotate(-48.66)"/></g></g></g></svg>