<svg xmlns="http://www.w3.org/2000/svg" viewBox="0 0 412.18 575.89"><defs><style>.cls-1{fill:#7147dd;opacity:0.2;}.cls-2{opacity:0.3;}.cls-3,.cls-6,.cls-7{fill:none;}.cls-4{fill:#26a6b5;}.cls-5{opacity:0.8;}.cls-6,.cls-7{stroke:#7147dd;stroke-width:6px;}.cls-6{stroke-linejoin:round;}.cls-7{stroke-miterlimit:10;}</style></defs><title>mju</title><g id="Layer_2" data-name="Layer 2"><g id="Layer_1-2" data-name="Layer 1"><path class="cls-1" d="M0,530c58.83,45.51,145.85,45.77,166,45.83,30.62.09,78.15.61,128-27.08,56.38-31.33,122.11-101.68,118-177.07-3.91-71.77-84-107.28-54-156.23,23-29.17,32.5-36.08,44-81.25,2.61-10.23,16.08-63.15-12-100C328.12-44.11,64.17,2.64,1.2,272.3,0,395.48,0,404.48,0,530Z"/><g class="cls-2"><path class="cls-3" d="M79,242.92a5,5,0,0,1-.53-2.11L75.34,165a5.29,5.29,0,0,1,.37-2l-.3-7.46-28.33.9A394.44,394.44,0,0,0,7.88,247l71.17-2.76Z"/><path class="cls-3" d="M171.12,128.62c.22-.16.48-.27.7-.42.41-.26.82-.5,1.24-.73s1-.52,1.59-.75.87-.35,1.32-.5a17.52,17.52,0,0,1,1.72-.47c.47-.09.91-.2,1.37-.27a18.17,18.17,0,0,1,1.81-.17c.46,0,.91-.06,1.37-.06.63,0,1.24.08,1.87.15.43.06.89.07,1.33.15.65.11,1.28.3,1.92.47.42.12.83.2,1.23.34a21.62,21.62,0,0,1,2,.88c.32.16.66.27,1,.44a20.86,20.86,0,0,1,2.8,1.85,19,19,0,0,1,5.56-8.65,19.56,19.56,0,0,1,26,.78l13.79,12.69A27.16,27.16,0,0,1,274,136.4l5.29,4.87a16.2,16.2,0,0,0,6.6-13.71l-3.48-42.15A14.18,14.18,0,0,0,274,72.83h0c-9.2-4.14-12.18-20.77-13.05-28.44L194,47.13l.54,13.23a5.42,5.42,0,0,1-2.44,4.75l-13.44,8.83a22.14,22.14,0,0,0-9.89,19.29Z"/><path class="cls-3" d="M166.9,177.79l74.95,69-7.35,8-24.95-23a16.26,16.26,0,0,0,3.88,18.31L252.36,286A14.06,14.06,0,0,0,267,288.8a24.9,24.9,0,0,1,25.84,5l.82.77,47.74-51.83-5.75-5.3a5.42,5.42,0,0,1-1.74-3.81l-.42-11.76a5.49,5.49,0,0,1,.1-1.28A22.09,22.09,0,0,0,327,200l-52.13-48-8.21-7.57A16.26,16.26,0,0,0,248.05,142L281,172.33l-7.34,8-55-50.68a8.68,8.68,0,0,0-11.45-.66c-.22.2-.42.4-.62.61a8.14,8.14,0,0,0,.48,11.49l55.59,51.2-7.34,8-67-61.69a8.67,8.67,0,0,0-11.43-.68,7.13,7.13,0,0,0-.62.61,8.12,8.12,0,0,0,.48,11.48l67.55,62.22-7.34,8-59.57-54.86a7.7,7.7,0,0,0-5.93-1.78,10.11,10.11,0,0,0-6.19,3A8.69,8.69,0,0,0,166.9,177.79Z"/><path class="cls-3" d="M110.73,234.06a5.41,5.41,0,0,1,4.75,2.44l8.83,13.43a22.13,22.13,0,0,0,19.29,9.9l61.86.09a10.27,10.27,0,0,0,2.19-.39l-1.56-1.43a27.16,27.16,0,0,1-4.85-33.94l-41.69-38.4a18.44,18.44,0,0,1-3.66-25,20.55,20.55,0,0,1,2.11-2.36,18.93,18.93,0,0,1,4-3.22l-.48-7.34-44.12,1.81a17.62,17.62,0,0,0-15,9.61l-.38,5.7A5.42,5.42,0,0,1,96.61,170l-9.76.12,2.67,64.82Z"/><path class="cls-3" d="M283,314.17a5.41,5.41,0,0,1-.31-7.65l3.67-4-.83-.77a14.08,14.08,0,0,0-14.64-2.82A25,25,0,0,1,245,294l-28.62-26.36a26.63,26.63,0,0,1-10.7,3.16l-61.86-.09a32.89,32.89,0,0,1-28.56-14.78L108.12,245,90,245.75l.14,3.46a5.41,5.41,0,0,1-5.19,5.63l-79.81,2Q3,264.43,1.2,272.3C0,395.48,0,404.48,0,530c58.83,45.51,145.85,45.77,166,45.83,30.62.09,78.15.61,128-27.08,43.33-24.08,92.18-71.21,110.6-126Z"/><path class="cls-3" d="M86,149.65l.4,9.61,5.06-.06.13-1.74a5.26,5.26,0,0,1,.47-1.86A28.41,28.41,0,0,1,117,138.79L160.8,137,158,93.84a33,33,0,0,1,14.76-28.92l10.88-7.15-.46-11.3-2.2.06a5.42,5.42,0,0,1-5.56-5l-.66-8.45C130.43,56.67,87.4,93.52,53.79,145.6l26.6-1.15A5.42,5.42,0,0,1,86,149.65Z"/><path class="cls-3" d="M408.13,410.76a132.3,132.3,0,0,0,3.87-39c-3-55.71-52-89.58-59.68-124.84l-58,63Z"/><path class="cls-3" d="M263.76,33.45H264l1.89,0-1.5-30.71a280.2,280.2,0,0,0-79.2,25.08l.61,7.78Z"/><path class="cls-3" d="M275.46,42.32l0,0A5.47,5.47,0,0,1,271.75,44c1.05,8.54,4.18,17.76,6.69,18.89a24.9,24.9,0,0,1,14.75,21.8l3.47,42.15a24.85,24.85,0,0,1-9.44,21.73L334.31,192a33,33,0,0,1,10,30.13l.32,8.88,4.08,3.77,3.07-3.33A44.34,44.34,0,0,1,358,215.49c23-29.17,32.5-36.08,44-81.25,2.61-10.23,16.08-63.15-12-100C369.29,8,326-4.18,275.09,1.28q.9,18.6,1.79,37.19A5.42,5.42,0,0,1,275.46,42.32Z"/><path class="cls-4" d="M90.11,249.21,90,245.75l18.15-.75,7.15,10.88a32.89,32.89,0,0,0,28.56,14.78l61.86.09a26.63,26.63,0,0,0,10.7-3.16L245,294a25,25,0,0,0,25.85,5,14.08,14.08,0,0,1,14.64,2.82l.83.77-3.67,4a5.41,5.41,0,0,0,.31,7.65L404.6,422.83q2-6,3.53-12.07L294.3,309.87l58-63a40.54,40.54,0,0,1-.5-15.45l-3.07,3.33L344.67,231l-.32-8.88a33,33,0,0,0-10-30.13l-47.09-43.37a24.85,24.85,0,0,0,9.44-21.73l-3.47-42.15a24.9,24.9,0,0,0-14.75-21.8c-2.51-1.13-5.64-10.35-6.69-18.89a5.47,5.47,0,0,0,3.68-1.68l0,0a5.42,5.42,0,0,0,1.42-3.85q-.9-18.6-1.79-37.19c-3.53.38-7.11.85-10.71,1.4l1.5,30.71-1.89,0h-.23l-78,2.09-.61-7.78q-5.24,2.53-10.46,5.31l.66,8.45a5.42,5.42,0,0,0,5.56,5l2.2-.06.46,11.3-10.88,7.15A33,33,0,0,0,158,93.84L160.8,137,117,138.79A28.41,28.41,0,0,0,92.08,155.6a5.26,5.26,0,0,0-.47,1.86l-.13,1.74-5.06.06-.4-9.61a5.42,5.42,0,0,0-5.63-5.2l-26.6,1.15q-3.42,5.31-6.71,10.82l28.33-.9.3,7.46a5.29,5.29,0,0,0-.37,2l3.13,75.83a5,5,0,0,0,.53,2.11l0,1.33L7.88,247q-1.44,4.85-2.77,9.8l79.81-2A5.41,5.41,0,0,0,90.11,249.21ZM178.69,73.94l13.44-8.83a5.42,5.42,0,0,0,2.44-4.75L194,47.13,261,44.38c.87,7.67,3.85,24.3,13.05,28.44h0a14.18,14.18,0,0,1,8.37,12.58l3.48,42.15a16.2,16.2,0,0,1-6.6,13.71L274,136.4a27.16,27.16,0,0,0-34.22-2.05L226,121.66a19.56,19.56,0,0,0-26-.78,19,19,0,0,0-5.56,8.65,20.86,20.86,0,0,0-2.8-1.85c-.32-.17-.66-.28-1-.44a21.62,21.62,0,0,0-2-.88c-.4-.14-.81-.22-1.23-.34-.64-.17-1.27-.36-1.92-.47-.44-.08-.9-.09-1.33-.15-.63-.07-1.24-.14-1.87-.15-.46,0-.91,0-1.37.06a18.17,18.17,0,0,0-1.81.17c-.46.07-.9.18-1.37.27a17.52,17.52,0,0,0-1.72.47c-.45.15-.89.32-1.32.5s-1.08.48-1.59.75-.83.47-1.24.73c-.22.15-.48.26-.7.42L168.8,93.23A22.14,22.14,0,0,1,178.69,73.94Zm-13.44,92.58a10.11,10.11,0,0,1,6.19-3,7.7,7.7,0,0,1,5.93,1.78l59.57,54.86,7.34-8L176.73,150a8.12,8.12,0,0,1-.48-11.48,7.13,7.13,0,0,1,.62-.61,8.67,8.67,0,0,1,11.43.68l67,61.69,7.34-8L207,141.07a8.14,8.14,0,0,1-.48-11.49c.2-.21.4-.41.62-.61a8.68,8.68,0,0,1,11.45.66l55,50.68,7.34-8L248.05,142a16.26,16.26,0,0,1,18.58,2.36l8.21,7.57L327,200a22.09,22.09,0,0,1,6.63,20.63,5.49,5.49,0,0,0-.1,1.28l.42,11.76a5.42,5.42,0,0,0,1.74,3.81l5.75,5.3-47.74,51.83-.82-.77a24.9,24.9,0,0,0-25.84-5A14.06,14.06,0,0,1,252.36,286l-38.93-35.85a16.26,16.26,0,0,1-3.88-18.31l24.95,23,7.35-8-74.95-69A8.69,8.69,0,0,1,165.25,166.52ZM96.61,170a5.42,5.42,0,0,0,5.34-5.06l.38-5.7a17.62,17.62,0,0,1,15-9.61l44.12-1.81.48,7.34a18.93,18.93,0,0,0-4,3.22,20.55,20.55,0,0,0-2.11,2.36,18.44,18.44,0,0,0,3.66,25l41.69,38.4a27.16,27.16,0,0,0,4.85,33.94l1.56,1.43a10.27,10.27,0,0,1-2.19.39l-61.86-.09a22.13,22.13,0,0,1-19.29-9.9l-8.83-13.43a5.41,5.41,0,0,0-4.75-2.44l-21.21.87-2.67-64.82Z"/></g><g class="cls-5"><path class="cls-6" d="M292.89,426.88c0,36.8-16.95,55.23-37.9,55.23s-37.89-18.43-37.89-55.23c0-22,17-39.91,37.89-39.91S292.89,404.85,292.89,426.88Z"/><path class="cls-6" d="M272.34,499.1h41.29c11.81,0,21.37,8.21,21.37,18.34v47.62"/><path class="cls-6" d="M180,565.06V517.44c0-10.13,9.56-18.34,21.37-18.34h38"/><line class="cls-6" x1="206.38" y1="565.06" x2="206.38" y2="499.1"/><line class="cls-6" x1="305.32" y1="499.1" x2="305.32" y2="565.06"/><path class="cls-6" d="M292.89,426.12s-48.78,6.63-53.53-32.55c0,0,10.88,27.57-22.26,32.55"/><circle class="cls-7" cx="237.71" cy="438.09" r="4.95"/><circle class="cls-7" cx="270.69" cy="438.09" r="4.95"/><line class="cls-6" x1="239.36" y1="479.31" x2="239.36" y2="499.1"/><line class="cls-6" x1="272.34" y1="476.01" x2="272.34" y2="499.1"/><path class="cls-6" d="M245.63,462.82c1.58,1.29,9,10.16,20.11,0"/><polyline class="cls-6" points="255.85 439.74 252.55 449.63 259.15 456.23"/><path class="cls-6" d="M211.33,420h0a8.24,8.24,0,0,1,8.24,8.24v13.2a8.24,8.24,0,0,1-8.24,8.24h0a8.24,8.24,0,0,1-8.24-8.24v-13.2A8.24,8.24,0,0,1,211.33,420Z"/><path class="cls-6" d="M300.37,420h0a8.24,8.24,0,0,1,8.25,8.24v13.2a8.24,8.24,0,0,1-8.25,8.24h0a8.24,8.24,0,0,1-8.24-8.24v-13.2A8.24,8.24,0,0,1,300.37,420Z"/><path class="cls-6" d="M209.68,420s-3.3-49.47,46.17-49.47"/><path class="cls-6" d="M302,420s0-49.47-49.47-49.47"/><polyline class="cls-6" points="302.02 449.63 302.02 462.82 295.43 472.72"/><line class="cls-6" x1="180" y1="545.27" x2="206.38" y2="545.27"/><line class="cls-6" x1="308.62" y1="545.27" x2="335" y2="545.27"/><line class="cls-6" x1="239.36" y1="499.1" x2="275.64" y2="499.1"/><polyline class="cls-6" points="242.66 525.48 255.32 503.29 269.04 525.48"/><path class="cls-6" d="M222.87,499.1l11.64,18.24a25.53,25.53,0,0,0,42.51,0l11.81-18.24"/></g></g></g></svg>