<svg xmlns="http://www.w3.org/2000/svg" viewBox="0 0 450.56 543.48"><defs><style>.cls-1,.cls-6{fill:#7147dd;}.cls-1{opacity:0.2;}.cls-2{opacity:0.8;}.cls-3{fill:#26a6b5;}.cls-4{opacity:0.3;}.cls-5{fill:none;}.cls-6{stroke:#7147dd;stroke-miterlimit:10;stroke-width:5px;}</style></defs><title>mnet</title><g id="Layer_2" data-name="Layer 2"><g id="Layer_1-2" data-name="Layer 1"><path class="cls-1" d="M2,112.47c23.73-25.12,87.58-85.82,188-103,43.64-7.46,124.42-21.28,188,30,74.42,60,93.72,183.79,48,242-47,59.89-139.36,20.5-184,90-25.9,40.34-4.05,68-39,114-6.18,8.14-31.84,41.92-74.19,53.83A111.55,111.55,0,0,1,99,543.47c-55.56.25-91.25-40.26-97-47"/><g class="cls-2"><path class="cls-3" d="M263.18,147.89a94.37,94.37,0,0,1-27.3-66.59A93.3,93.3,0,0,1,265.4,12.72,5.34,5.34,0,0,0,258.07,5,103.48,103.48,0,0,0,225,81.3a105.4,105.4,0,0,0,30.41,74.14,11.73,11.73,0,0,0,2.44,2.22,6.27,6.27,0,0,0,3.77,1.55,6,6,0,0,0,4-1.77,5.29,5.29,0,0,0-.22-7.55A18.44,18.44,0,0,1,263.18,147.89Z"/><path class="cls-3" d="M307.13,106.61a30.15,30.15,0,0,1,0-50.61,5.45,5.45,0,1,0-6-9.1,41.07,41.07,0,0,0,0,68.81,4.94,4.94,0,0,0,2.89.89,5.11,5.11,0,0,0,4.44-2.45A5.37,5.37,0,0,0,307.13,106.61Z"/><path class="cls-3" d="M264.73,81.3a61.59,61.59,0,0,1,21.53-47A5.36,5.36,0,1,0,279.38,26a72.81,72.81,0,0,0-.22,110.54,5.43,5.43,0,0,0,3.55,1.33,5.2,5.2,0,0,0,4-1.77,5.14,5.14,0,0,0-.67-7.55A63,63,0,0,1,264.73,81.3Z"/><path class="cls-3" d="M324.89,67.76a13.53,13.53,0,0,0-5.33,26v94.12a5.33,5.33,0,0,0,10.65,0V94a13.67,13.67,0,0,0-5.32-26.2Z"/><path class="cls-3" d="M394.36,7.17A11.22,11.22,0,0,0,391.92,5a5.34,5.34,0,1,0-7.33,7.77l2,2a94.4,94.4,0,0,1,27.3,66.59,93.32,93.32,0,0,1-29.52,68.59,5.3,5.3,0,0,0-.22,7.55,5.55,5.55,0,0,0,4,1.77,5.19,5.19,0,0,0,3.77-1.55A103.39,103.39,0,0,0,424.77,81.3,105.76,105.76,0,0,0,394.36,7.17Z"/><path class="cls-3" d="M348.64,46.9a5.45,5.45,0,0,0-6,9.1,30.15,30.15,0,0,1,0,50.61,5.55,5.55,0,0,0-1.55,7.54,5.39,5.39,0,0,0,4.44,2.45,4.47,4.47,0,0,0,2.88-.89A40.57,40.57,0,0,0,367.06,81.3,41.19,41.19,0,0,0,348.64,46.9Z"/><path class="cls-3" d="M370.61,26a5.14,5.14,0,0,0-7.55.67,5.14,5.14,0,0,0,.67,7.55,62.43,62.43,0,0,1,0,94.33,5.54,5.54,0,0,0-.67,7.55,5.12,5.12,0,0,0,4,1.77,5.43,5.43,0,0,0,3.55-1.33,73,73,0,0,0,0-110.54Z"/></g><g class="cls-4"><path class="cls-5" d="M53.3,423.3l-8,28c-3.53,12.34,2.71,25,13.91,28.21l9.16,2.62c11.21,3.21,23.2-4.23,26.73-16.57l8-28c3.54-12.34-2.7-25-13.9-28.21L80,406.73C68.83,403.52,56.84,411,53.3,423.3Zm28.79-6.47A2.7,2.7,0,0,1,84,420.17l-4.74,16.52A2.7,2.7,0,1,1,74,435.2l4.73-16.52A2.7,2.7,0,0,1,82.09,416.83Z"/><path class="cls-5" d="M210.59,312.6a2.65,2.65,0,0,1-2.05.24,2.82,2.82,0,0,1-.48-.19l-.14-.09-.3-.19-.1-.1a2.4,2.4,0,0,1-.28-.27l-.14-.19-.18-.26c-19.38-34.92-49.7-60.22-72.81-75.81L113.47,307.8a195.94,195.94,0,0,1,28.31,16.3c14.93,10.26,35.33,27.28,49,50.71,19.49-10.25,40.48-14.58,57.38-16.28,14.68-17,33-25.58,52.7-31.06l11.64-40.64C284.64,287.82,245.52,293.23,210.59,312.6Z"/><path class="cls-5" d="M145.36,456.44a21.2,21.2,0,0,0,14.52,26.18l34,9.73c3.34-3.89,5.74-7,7.13-8.88A111.06,111.06,0,0,0,217.1,455l-45.57-13.05A21.19,21.19,0,0,0,145.36,456.44Z"/><path class="cls-5" d="M376,37.47C312.42-13.81,231.64,0,188,7.47,87.58,24.65,23.73,85.35,0,110.47v384c5.75,6.74,41.44,47.25,97,47a111.55,111.55,0,0,0,29.81-4.17c29.37-8.26,50.7-27,63.08-40.48l-34.07-9.76a2.43,2.43,0,0,1-1.06-.6A26.55,26.55,0,0,1,173,436.74l45.84,13.13c4.67-14.91,5-28.3,7.1-42L118.31,377a21.19,21.19,0,0,0-26.17,14.52A2.7,2.7,0,1,1,87,390.07a26.59,26.59,0,0,1,32.84-18.22l107.1,30.67a90.54,90.54,0,0,1,13.11-33c1.1-1.71,2.23-3.33,3.39-4.91-16.63,2.12-35.25,6.77-52.33,16.25A2.69,2.69,0,0,1,189,381a2.73,2.73,0,0,1-1.62-1.28h0c-25.18-45.4-77.68-67.73-78.2-67.95l-.13-.07-.18-.09-.28-.18-.14-.12a3,3,0,0,1-.25-.25l-.1-.12-.21-.3-.06-.14a2,2,0,0,1-.15-.33l0-.15a2,2,0,0,1-.07-.35c0-.05,0-.11,0-.17s0-.23,0-.36a1.11,1.11,0,0,1,0-.17,2.14,2.14,0,0,1,.06-.35s0-.06,0-.08l21.75-75.95a257.49,257.49,0,0,0-36-19.75,2.7,2.7,0,0,1,1-5.19l144.42-3.27h0a2.65,2.65,0,0,1,.88.13l.17,0,0,0a3.17,3.17,0,0,1,.45.23h0l120.8,79.23a2.7,2.7,0,0,1-1.92,4.92,256.18,256.18,0,0,0-41-2.32l-11.23,39.18c9.33-2.3,18.89-4.05,28.43-5.78l7.16-25a2.7,2.7,0,0,1,5.19,1.47L341.29,319c31.1-5.72,61.51-12.54,82.71-39.54C469.72,221.26,450.42,97.5,376,37.47ZM90.68,404.16c14.06,4,22,19.68,17.61,34.89l-8,28c-4.35,15.21-19.34,24.31-33.4,20.28l-9.17-2.63c-14.06-4-22-19.67-17.61-34.88l8-28c4.36-15.2,19.34-24.3,33.41-20.27Z"/><path class="cls-5" d="M348.59,282.33l-110.54-72.5-132.17,3A291.72,291.72,0,0,1,134,229.19c23.45,15.38,55.48,41.21,76.31,77.43,36.85-19.7,77.7-24.65,105.73-25.29A295.11,295.11,0,0,1,348.59,282.33Z"/><path class="cls-6" d="M48.11,421.81l-8,28C35.74,465,43.64,480.66,57.7,484.68l9.17,2.63c14.06,4,29.05-5.07,33.4-20.28l8-28c4.35-15.21-3.55-30.86-17.61-34.89l-9.16-2.62C67.45,397.51,52.47,406.61,48.11,421.81Zm55,15.75-8,28c-3.53,12.34-15.52,19.78-26.73,16.57l-9.16-2.62c-11.2-3.21-17.44-15.87-13.91-28.21l8-28C56.84,411,68.83,403.52,80,406.73l9.17,2.62C100.4,412.56,106.64,425.22,103.1,437.56Z"/><path class="cls-6" d="M78.76,418.68,74,435.2a2.7,2.7,0,1,0,5.18,1.49L84,420.17a2.7,2.7,0,0,0-5.19-1.49Z"/><path class="cls-6" d="M359.18,289a2.7,2.7,0,0,0,1.92-4.92L240.3,204.86h0a3.17,3.17,0,0,0-.45-.23l0,0-.17,0a2.65,2.65,0,0,0-.88-.13h0L94.34,207.68a2.7,2.7,0,0,0-1,5.19,257.49,257.49,0,0,1,36,19.75l-21.75,75.95s0,.05,0,.08a2.14,2.14,0,0,0-.06.35,1.11,1.11,0,0,0,0,.17c0,.13,0,.25,0,.36s0,.12,0,.17a2,2,0,0,0,.07.35l0,.15a2,2,0,0,0,.15.33l.06.14.21.3.1.12a3,3,0,0,0,.25.25l.14.12.28.18.18.09.13.07c.52.22,53,22.55,78.2,67.95h0A2.73,2.73,0,0,0,189,381a2.69,2.69,0,0,0,2.05-.23c17.08-9.48,35.7-14.13,52.33-16.25,1.54-2.12,3.14-4.13,4.78-6-16.9,1.7-37.89,6-57.38,16.28-13.68-23.43-34.08-40.45-49-50.71a195.94,195.94,0,0,0-28.31-16.3l20.64-72.06c23.11,15.59,53.43,40.89,72.81,75.81l.18.26.14.19a2.4,2.4,0,0,0,.28.27l.1.1.3.19.14.09a2.82,2.82,0,0,0,.48.19,2.65,2.65,0,0,0,2.05-.24c34.93-19.37,74-24.78,101.92-25.77l-11.64,40.64c2-.57,4-1.1,6.07-1.6l11.23-39.18A256.18,256.18,0,0,1,359.18,289ZM210.32,306.62c-20.83-36.22-52.86-62.05-76.31-77.43a291.72,291.72,0,0,0-28.13-16.37l132.17-3,110.54,72.5a295.11,295.11,0,0,0-32.54-1C288,282,247.17,286.92,210.32,306.62Z"/><path class="cls-6" d="M87,390.07a2.7,2.7,0,1,0,5.19,1.49A21.19,21.19,0,0,1,118.31,377L226,407.87c.28-1.78.58-3.56.93-5.35l-107.1-30.67A26.59,26.59,0,0,0,87,390.07Z"/><path class="cls-6" d="M140.17,455a26.59,26.59,0,0,0,14.59,31.51,2.43,2.43,0,0,0,1.06.6l34.07,9.76c1.45-1.57,2.78-3.07,4-4.47l-34-9.73a21.16,21.16,0,1,1,11.65-40.69L217.1,455c.65-1.72,1.23-3.43,1.76-5.11L173,436.74A26.59,26.59,0,0,0,140.17,455Z"/><path class="cls-6" d="M345.87,293.24a2.7,2.7,0,0,0-3.34,1.85l-7.16,25,5.92-1.08,6.43-22.45A2.69,2.69,0,0,0,345.87,293.24Z"/></g></g></g></svg>