<svg xmlns="http://www.w3.org/2000/svg" viewBox="0 0 447.1 562.6"><defs><style>.cls-1,.cls-4{fill:#7147dd;}.cls-1{opacity:0.2;}.cls-2{opacity:0.3;}.cls-3{fill:none;}.cls-5{opacity:0.8;}.cls-6{fill:#26a6b5;}</style></defs><title>mnz</title><g id="Layer_2" data-name="Layer 2"><g id="Layer_1-2" data-name="Layer 1"><path class="cls-1" d="M0,10.33c129.37-20.55,188.79,7.67,219,39,43.75,45.37,28.85,100,90,147,43.15,33.17,71.68,22.2,104,61,35.84,43,34.32,96.81,34,108-2.18,76.9-55.81,125.05-68,136-47.33,42.49-135.55,82-192,49-68.7-40.19-43.32-160.32-104-181-28.69-9.78-60.86,8-83,24"/><g class="cls-2"><path class="cls-3" d="M413,257.33c-32.32-38.8-60.85-27.83-104-61-61.15-47-46.25-101.63-90-147C188.79,18,129.37-10.22,0,10.33v383c22.14-16,54.31-33.78,83-24,31.69,10.8,39.91,48.72,50.31,88.22L158.7,431c-3.56-16.92,8-47.34,10.48-53.7l.14-.34a167.08,167.08,0,0,0,8.12-20.32c2.11-6.46,5-15.34,7.67-24a5.52,5.52,0,0,1-1.39-1l-4.49-4.49a45.18,45.18,0,0,1,0-63.88h0a42.88,42.88,0,0,1,32.12-12.43A47,47,0,0,1,239,261.21c18-14.39,43.84-13.76,59.81,2.19A45,45,0,0,1,312,295.55a18.58,18.58,0,0,1,8.25.87,19.06,19.06,0,0,1,11.51,11.28,18.19,18.19,0,0,1-2,16.8,17.51,17.51,0,0,1,9.22,9.8,16.84,16.84,0,0,1-4.09,18.08l-5.67,5.67a19,19,0,0,1,11.17,13.61,18.69,18.69,0,0,1-5.1,17l-44,44-24.73,22.89-.52.43L227.9,483.87l-64,46.25A82.58,82.58,0,0,0,187,550.33c56.45,33,144.67-6.51,192-49,12.19-10.95,65.82-59.1,68-136C447.32,354.14,448.84,300.36,413,257.33Z"/><path class="cls-3" d="M220.74,474.66l38.25-28,24.33-22.48,43.84-43.7a7.2,7.2,0,0,0,2-6.53,7.49,7.49,0,0,0-4.84-5.5,6.9,6.9,0,0,0-7.25,1.81l-9.42,9.41-.07.07-24.63,24.63a5.8,5.8,0,1,1-8.14-8.26l24.66-24.54s0,0,0,0l9.41-9.41c.35-.37.72-.72,1.1-1.05l16.86-16.77a5.42,5.42,0,0,0,1.44-5.76,6.05,6.05,0,0,0-4.43-3.94,5.73,5.73,0,0,0-5.24,1.55L310,344.81c-.08.08-.18.14-.27.22l-46.88,46.9a5.76,5.76,0,0,1-8.15-8.15l64.63-64.65a6.81,6.81,0,0,0,1.78-7.17,7.57,7.57,0,0,0-4.63-4.63,7.2,7.2,0,0,0-6,.6l-.23.1a45.1,45.1,0,0,1-11.4,19.25L243.1,383a5.91,5.91,0,0,1-8.09,0l-7.42-7a5.76,5.76,0,0,1,8-8.29l3.37,3.23,51.81-51.82a33.7,33.7,0,0,0,0-47.61c-12.72-12.72-34.08-12.09-47.61,1.44a5.75,5.75,0,0,1-8.14,0h0a35.76,35.76,0,0,0-24-10.6,31.35,31.35,0,0,0-23.61,9.13,33.66,33.66,0,0,0,0,47.59l0,0,1.46,1.46c1.39-4.66,2.54-8.75,3.26-11.68a17.27,17.27,0,0,1,33.77,6.31c-1.41,10.33-8.41,68.13-8.41,68.71a5.8,5.8,0,1,1-11.51-1.38c0-.58,7.05-58.47,8.43-68.89a5.93,5.93,0,0,0-4.49-6.91,6,6,0,0,0-6.67,4.87c-2.48,10-9.48,31.95-14.89,48.62a179.37,179.37,0,0,1-8.63,21.53c-5.41,13.38-12.21,36.77-9.92,46.8a5.76,5.76,0,0,1,0,7.58l-32.93,34.5c5,17.85,11.13,35.45,20.59,50.44l62.62-45.79A5.26,5.26,0,0,1,220.74,474.66Z"/><path class="cls-4" d="M266.07,456l.52-.43,24.73-22.89,44-44a18.69,18.69,0,0,0,5.1-17,19,19,0,0,0-11.17-13.61l5.67-5.67A16.84,16.84,0,0,0,339,334.3a17.51,17.51,0,0,0-9.22-9.8,18.19,18.19,0,0,0,2-16.8,19.06,19.06,0,0,0-11.51-11.28,18.58,18.58,0,0,0-8.25-.87,45,45,0,0,0-13.2-32.15c-16-15.95-41.77-16.58-59.81-2.19a47,47,0,0,0-27.67-10.3,42.88,42.88,0,0,0-32.12,12.43h0a45.18,45.18,0,0,0,0,63.88l4.49,4.49a5.52,5.52,0,0,0,1.39,1c-2.7,8.63-5.56,17.51-7.67,24A167.08,167.08,0,0,1,169.32,377l-.14.34c-2.53,6.36-14,36.78-10.48,53.7l-25.39,26.52c1.15,4.34,2.32,8.7,3.55,13l32.93-34.5a5.76,5.76,0,0,0,0-7.58c-2.29-10,4.51-33.42,9.92-46.8a179.37,179.37,0,0,0,8.63-21.53c5.41-16.67,12.41-38.63,14.89-48.62a6,6,0,0,1,6.67-4.87,5.93,5.93,0,0,1,4.49,6.91c-1.38,10.42-8.43,68.31-8.43,68.89a5.8,5.8,0,1,0,11.51,1.38c0-.58,7-58.38,8.41-68.71a17.27,17.27,0,0,0-33.77-6.31c-.72,2.93-1.87,7-3.26,11.68l-1.46-1.46,0,0a33.66,33.66,0,0,1,0-47.59A31.35,31.35,0,0,1,211,262.33a35.76,35.76,0,0,1,24,10.6h0a5.75,5.75,0,0,0,8.14,0c13.53-13.53,34.89-14.16,47.61-1.44a33.7,33.7,0,0,1,0,47.61l-51.81,51.82-3.37-3.23a5.76,5.76,0,0,0-8,8.29l7.42,7a5.91,5.91,0,0,0,8.09,0l55.73-55.75A45.1,45.1,0,0,0,310.23,308l.23-.1a7.2,7.2,0,0,1,6-.6,7.57,7.57,0,0,1,4.63,4.63,6.81,6.81,0,0,1-1.78,7.17l-64.63,64.65a5.76,5.76,0,0,0,8.15,8.15L309.7,345c.09-.08.19-.14.27-.22l8.64-8.64a5.73,5.73,0,0,1,5.24-1.55,6.05,6.05,0,0,1,4.43,3.94,5.42,5.42,0,0,1-1.44,5.76L310,361.09c-.38.33-.75.68-1.1,1.05l-9.41,9.41s0,0,0,0l-24.66,24.54a5.8,5.8,0,1,0,8.14,8.26l24.63-24.63.07-.07,9.42-9.41a6.9,6.9,0,0,1,7.25-1.81,7.49,7.49,0,0,1,4.84,5.5,7.2,7.2,0,0,1-2,6.53l-43.84,43.7L259,446.68l-38.25,28a5.26,5.26,0,0,0-.67.58L157.45,521a100.15,100.15,0,0,0,6.45,9.09l64-46.25Z"/></g><g class="cls-5"><polygon class="cls-3" points="120.99 169.23 123.02 175.56 143.16 167.19 141.12 161.31 120.99 169.23"/><path class="cls-6" d="M180,35.07a5.74,5.74,0,0,1,4.08,1.81,1.76,1.76,0,0,0,2.48,0,5.74,5.74,0,0,1,4.08-1.81c3.62,0,4.75-2.27,4.75-4.75s-2-4.53-2-7A11.59,11.59,0,0,1,195,18.55a.83.83,0,0,0-.46-1.13c-1.81-.9-7-.45-8.59-2.49a.71.71,0,0,0-.91,0c-1.58,2-6.79,1.59-8.82,2.49a.82.82,0,0,0-.45,1.13,13.17,13.17,0,0,1,1.35,4.75c0,2.26-1.81,4.3-1.81,7S176.41,35.07,180,35.07Z"/><path class="cls-3" d="M185.24,153.84a47.86,47.86,0,0,1-20.14-4.75l-3.84,11.31a40.73,40.73,0,0,0,48,0l-3.85-11.31A47.82,47.82,0,0,1,185.24,153.84Z"/><path class="cls-3" d="M227.32,166.74l19.91,8.82a.83.83,0,0,0,.68-.23l2-5.2L230,161.31Z"/><path class="cls-6" d="M265.78,205.65l-5.43-20.81a27,27,0,0,0-5.2-10.86l.67-1.59a6.56,6.56,0,0,0-3.62-8.59l-19.68-8.15a7.47,7.47,0,0,0-7.46,1.59l-8.15-1.14-3.85-11.31a54.48,54.48,0,0,0,21.5-32.35c3.62-2,9.73-7,9.73-19.46,0-9-1.36-14.48-4.53-17.19a8.12,8.12,0,0,0-2.26-1.58,48.5,48.5,0,0,0-2-10c-3.39,3.4-8.37,6.11-14.25,8.15.68,8.14,1.36,15.61,1.36,15.61a2.33,2.33,0,0,0,2.26,2.49h6.11c1.13,0,2.26-5.43,2.26-7h1.58a32.66,32.66,0,0,1,1.14,9.73c0,10.18-5.21,12-5.66,12a4.68,4.68,0,0,0-3.39,3.39c-3.85,21.27-21.27,36.66-41.63,36.66-19.91,0-37.33-15.39-41.18-36.66a4.78,4.78,0,0,0-3.17-3.39c-.67-.23-6.1-1.81-6.1-12,0-5.43.68-8.14,1.35-9.73h1.36c0,1.59.91,7,2.26,7h6.11A2.48,2.48,0,0,0,148.13,88s.68-7.47,1.36-15.61c-6.11-2-11.08-5-14.25-8.15a70.83,70.83,0,0,0-2,10c-.68.45-1.58.67-2,1.35-3.4,3.17-4.75,8.37-4.75,17.65,0,12.44,6.1,17.42,9.72,19.46A55.21,55.21,0,0,0,157.64,145l-3.85,11.31-8.37.91a6.91,6.91,0,0,0-7.47-1.59l-19.68,8.15a6.57,6.57,0,0,0-3.62,8.59l.45,1.36a38.24,38.24,0,0,0-5.2,11.09l-5.43,20.81a6.9,6.9,0,0,0,1.36,6.56c3.69,2.22,6.27-1.07,6.69-2.51,2.89-9.9,6.77-23.78,7.58-25.69a2.52,2.52,0,0,1,.66-.95,2.61,2.61,0,0,1,1.13-.56c2-1,32.48-14.39,33-14.71a2.55,2.55,0,0,1,1-.09c1.85.22,13.24,5.15,17.44,6.5a60,60,0,0,0,12.44,2.45A35.16,35.16,0,0,0,198.53,175c4.69-1.57,16.28-6.65,18.48-7a7.83,7.83,0,0,1,2.16,0,7.66,7.66,0,0,1,1.13.28C224,169.51,245,179.42,247,180a3.09,3.09,0,0,1,1.13.57,3.33,3.33,0,0,1,.76.94c.64,1.24,5.65,17.87,8.44,26.9,1.49,4.27,4.47,4.74,6.66,3.85S266.23,207.91,265.78,205.65ZM123,175.56l-2-6.33,20.13-7.92,2,5.88Zm38.24-15.16,3.84-11.31a45.05,45.05,0,0,0,40.27,0l3.85,11.31A40.73,40.73,0,0,1,161.26,160.4Zm86.65,14.93a.83.83,0,0,1-.68.23l-19.91-8.82,2.71-5.43,19.91,8.82Z"/><path class="cls-6" d="M177.09,89.82a7.47,7.47,0,1,0-7.46,7.46A7.53,7.53,0,0,0,177.09,89.82Z"/><path class="cls-6" d="M208.31,89.82a7.47,7.47,0,1,0-7.46,7.46A7.67,7.67,0,0,0,208.31,89.82Z"/><path class="cls-6" d="M185.24,126.24c6.33,0,12.21-2.26,15.38-6.11a3,3,0,0,0-.45-4.3,3.16,3.16,0,0,0-4.3.23c-4.07,4.75-17.42,4.75-21.49,0a3.16,3.16,0,0,0-4.3-.23,3,3,0,0,0-.45,4.3C173,124,178.9,126.24,185.24,126.24Z"/><path class="cls-6" d="M233.43,57.92a279.54,279.54,0,0,0-48.19-3.85,281.4,281.4,0,0,0-48.19,3.85c4.75,8.14,24.43,14.25,48.19,14.25S228.68,66.06,233.43,57.92Z"/><path class="cls-6" d="M241.57,29.86l-16.29-7A90.08,90.08,0,0,1,206.73,12l-11.54-8.6a16.31,16.31,0,0,0-19.91,0l-11.76,8.83A94.89,94.89,0,0,1,145,23.08l-16.07,7c-2.71,1.13-3.84,4.75-2.48,7.47L135,52.71a296.15,296.15,0,0,1,100.45,0l8.6-15.38A5.26,5.26,0,0,0,241.57,29.86ZM239,37.33c-.8,3.06-5.65,10.47-6,11a378.85,378.85,0,0,0-96-1l-6-10a2.4,2.4,0,0,1,0-2,2.29,2.29,0,0,1,1-1,169.62,169.62,0,0,0,18-8c1.14-.59,4.61-2.4,9-5s7.33-4.55,8-5c3-2,6.78-4.65,11-8a11.59,11.59,0,0,1,7-3c2.92-.11,5.06,1.16,8,3,3.67,2.3,8.06,5.17,13,8.64a73.06,73.06,0,0,0,7.24,4.91A74.22,74.22,0,0,0,222,26.33l15,7a3.78,3.78,0,0,1,2,2A3.31,3.31,0,0,1,239,37.33Z"/></g></g></g></svg>