<svg xmlns="http://www.w3.org/2000/svg" viewBox="0 0 456.44 571.74"><defs><style>.cls-1,.cls-4{fill:#7147dd;}.cls-1{opacity:0.2;}.cls-2{opacity:0.8;}.cls-3{fill:none;}</style></defs><title>mo</title><g id="Layer_2" data-name="Layer 2"><g id="Layer_1-2" data-name="Layer 1"><path class="cls-1" d="M0,140.74C15.93,123.88,31.91,104.21,101,66s158.26-40.42,202.45-31.6C460,64.74,489,258.74,424,309.74s-117-120-223,204c-12,26-37,46-74.19,53.83A111.55,111.55,0,0,1,97,571.74c-55.56.25-91.25-40.26-97-47"/><g class="cls-2"><path class="cls-3" d="M284.21,18.72a11.65,11.65,0,0,0-6.72-4.95L274,12.71c-2.83-.71-5.66-.71-8.13,1.06a11.71,11.71,0,0,0-4.95,6.71l-2.79,9.64c9.3.13,18,.63,26,1.44l1.21-4.72A10.86,10.86,0,0,0,284.21,18.72Z"/><path class="cls-3" d="M179.61,13.06l-3.53,1.06a10.65,10.65,0,0,0-6.71,5,10.78,10.78,0,0,0-1.06,8.13l3.75,12.15c8.27-1.92,16.54-3.52,24.7-4.8l-4.07-13.36A10.86,10.86,0,0,0,179.61,13.06Z"/><path class="cls-4" d="M168.31,27.2a10.78,10.78,0,0,1,1.06-8.13,10.65,10.65,0,0,1,6.71-5l3.53-1.06a10.86,10.86,0,0,1,13.08,8.13l4.07,13.36q6.08-1,12.06-1.69L204.7,18.72A22.71,22.71,0,0,0,177.14,2.46l-3.53,1.06c-6,1.41-10.6,5.3-13.79,10.6a22.84,22.84,0,0,0-2.47,17.32l3.32,10.79q5.69-1.54,11.39-2.88Z"/><path class="cls-4" d="M258.09,30.12l2.79-9.64a11.71,11.71,0,0,1,4.95-6.71C268.3,12,271.13,12,274,12.71l3.53,1.06a11.65,11.65,0,0,1,6.72,4.95,10.86,10.86,0,0,1,1.06,8.12l-1.21,4.72c4.09.41,8,.91,11.64,1.47l.87-3.36a22.8,22.8,0,0,0-2.47-17.32,24.21,24.21,0,0,0-13.78-10.6L276.78.69a22.82,22.82,0,0,0-17.31,2.48A24.18,24.18,0,0,0,248.87,17L245,30.19Q251.73,30,258.09,30.12Z"/><path class="cls-4" d="M294.45,211.65c6.36-12,22.26-59.37.36-73.5-4.24-2.83-14.49-6-24-8.84L295.7,33c-3.66-.56-7.55-1.06-11.64-1.47l-24.24,94.57c-4.59-1.06-8.12-2.12-9.89-2.47-4.59-1.41-14.13-1.77-19.08,7.07-6.71,12-4.59,25.09,5,32.86l.35.35,15.9,11L250.28,182c-10.24,4.24-41.69,19.09-44.52,47.71-.35,3.18,2.12,6.36,5.3,6.36,3.18.35,6.36-2.12,6.36-5.3,2.47-26.15,39.22-38.87,39.58-38.87a5.3,5.3,0,0,0,3.88-4.24l3.54-14.14a5.73,5.73,0,0,0-2.48-6.36l-19.08-13.07c-4.94-4.24-5.65-11-1.76-17.67,1.41-2.47,3.88-1.77,4.94-1.41h.71c4.59,1.06,9.89,2.47,15.55,4.24,11.3,3.18,23,6.71,26.15,9.19,12,7.77,2.82,44.52-4.24,57.95-6.72,12.72-25.09,50.88-26.15,52.64-.36.71-.36,1.06-.71,1.77q-4.08,65.08-8.17,130.17c4.64-9.3,9.15-17.58,13.57-25q3.13-51.54,6.26-103.08C271.84,257.23,288.45,223.31,294.45,211.65Z"/><path class="cls-4" d="M165.48,260.05,140,204.58l-3.18-51.24,19.08,29.33A19.23,19.23,0,0,0,169,191.5a16.93,16.93,0,0,0,4.24.36,19.85,19.85,0,0,0,11-3.18l3.18-2.12a19.68,19.68,0,0,0,8.83-13.08,18.32,18.32,0,0,0,4.59.36,21.91,21.91,0,0,0,11.31-3.18l3.18-2.12a19.26,19.26,0,0,0,8.84-13.08,21.77,21.77,0,0,0-2.83-15.54L191.63,94a28.78,28.78,0,0,0-4.24-5L172.06,39.35q-5.7,1.34-11.39,2.88L174,85.5a18.43,18.43,0,0,0-10.25,3.18l-3.18,2.12a19.62,19.62,0,0,0-8.83,13.07,21.8,21.8,0,0,0-15.55,2.83L133,108.82a20.7,20.7,0,0,0-8.83,22.26l4.59,75.27c0,.7.35,1.41.35,2.12L154.88,265c-11,156.9-17.92,268.86-17.73,300q5.59-1.62,10.75-3.64,1.89-42.3,4.1-84.61Q157.69,368.34,165.48,260.05ZM163.71,106a7.42,7.42,0,0,1,3.89-5.3l3.18-2.12a8.92,8.92,0,0,1,12,2.48L212.47,147a6.82,6.82,0,0,1,1.06,6.36,7.38,7.38,0,0,1-3.88,5.3l-3.18,2.12a8.92,8.92,0,0,1-12-2.47l-29.68-45.94A6.88,6.88,0,0,1,163.71,106Zm-24,12.37,3.18-2.12a7.79,7.79,0,0,1,4.6-1.41,2.65,2.65,0,0,1,1.76.35,7.4,7.4,0,0,1,5.3,3.89L184.21,165a8.93,8.93,0,0,1-2.48,12l-3.18,2.12a6.88,6.88,0,0,1-6.36,1.06,7.42,7.42,0,0,1-5.3-3.89l-29.68-45.94C134.38,126.49,135.8,120.83,139.68,118.36Z"/><path class="cls-4" d="M222,117.3a1.83,1.83,0,0,0,.71,1.41.35.35,0,0,0,.36.36l1.06,1.06h.35c.35.35.71.35,1.41.7h.36c.35,0,1.06.36,1.41.36H228a2.11,2.11,0,0,0,1.42-.36c.35,0,.35-.35.7-.35h.36a.34.34,0,0,0,.35-.35c.35-.36.71-.71,1.06-1.06l.35-.36c0-.35.36-.35.36-.7v-.36a1.22,1.22,0,0,1,.35-.7l25.12-86.83q-6.36-.07-13,.07L226.61,94,208.82,32.86q-6,.73-12.06,1.69Z"/></g></g></g></svg>