<svg xmlns="http://www.w3.org/2000/svg" viewBox="0 0 447.1 559.27"><defs><style>.cls-1,.cls-5{fill:#7147dd;}.cls-1,.cls-4{opacity:0.2;}.cls-2,.cls-7,.cls-8{opacity:0.7;}.cls-3,.cls-7,.cls-8{fill:#26a6b5;}.cls-3,.cls-7{stroke:#26a6b5;stroke-width:2px;}.cls-3,.cls-6,.cls-7{stroke-miterlimit:10;}.cls-6{fill:none;stroke:#7147dd;stroke-width:4px;}</style></defs><title>mop</title><g id="Layer_2" data-name="Layer 2"><g id="Layer_1-2" data-name="Layer 1"><path class="cls-1" d="M.25,9.25c129.37-20.55,188.79,7.67,219,39,43.75,45.37,28.85,100,90,147,43.15,33.17,71.68,22.2,104,61,35.84,43,34.32,96.81,34,108-2.18,76.9-55.81,125.05-68,136-47.33,42.49-135.55,82-192,49-68.7-40.19-43.32-160.32-104-181-28.69-9.78-60.86,8-83,24" transform="translate(-0.25 -2.25)"/><g class="cls-2"><g id="a"><path class="cls-3" d="M243.75,11.55a7.78,7.78,0,0,0-.75-.9c-.42-.41-.83-.79-1.25-1.15a16.3,16.3,0,0,0-3.95-2.75l0,0a18.84,18.84,0,0,0-9-2.2h-.45l-.6.1h-.45a9.25,9.25,0,0,0-1,0l-.6.1h.05l-1.65.3a14.3,14.3,0,0,0-2.85.9,19.87,19.87,0,0,0-6.75,4.65v0l-.55.7c-.19.19-.39.41-.6.65h0a17.71,17.71,0,0,0-2.2,3.4,17.12,17.12,0,0,0-3.3-4.7h0a18.81,18.81,0,0,0-14.15-6.1,19.08,19.08,0,0,0-14.25,6.1h0a20.24,20.24,0,0,0-5.85,14.65,20.52,20.52,0,0,0,4.6,13.3l31,41.1a2.37,2.37,0,0,0,1.25.85,2.15,2.15,0,0,0,1.5,0,2.37,2.37,0,0,0,1.25-.85l31-41.15-.05,0a20.77,20.77,0,0,0,4.7-13.3V24.3a4.16,4.16,0,0,0,0-.5.84.84,0,0,0-.05-.2,23.26,23.26,0,0,0-1-5.25l-.05-.05v-.1a17.37,17.37,0,0,0-2.4-4.65l.05.1a15,15,0,0,0-1.65-2.1M243,19.9a20.13,20.13,0,0,1,.75,3.6,2.32,2.32,0,0,0,.15,1.4v.45a15.93,15.93,0,0,1-3.6,10.2l-.05.05-29,38.5L182.2,35.6a.31.31,0,0,1,0-.1,15.5,15.5,0,0,1-3.5-10.15A15.38,15.38,0,0,1,183.1,14.2v0A14.3,14.3,0,0,1,193.75,9.6a14.09,14.09,0,0,1,10.55,4.55v0q4.17,4.44,4.45,13.2v.3a2.43,2.43,0,0,0,.7,1.75,2.53,2.53,0,0,0,3.55.05,2.4,2.4,0,0,0,.75-1.75V27.7q.15-8.16,3.5-12.5l.05,0a3.27,3.27,0,0,0,.3-.35,1,1,0,0,0,.25-.3l.25-.3.05,0a15.08,15.08,0,0,1,5-3.45.33.33,0,0,0,.15,0,7.84,7.84,0,0,1,1.85-.6l1.3-.25a.09.09,0,0,0,.1,0l.6-.1a.17.17,0,0,0,.1,0h.55a.7.7,0,0,0,.25,0l.65-.05h.1a13.74,13.74,0,0,1,6.7,1.6.23.23,0,0,1,.1.05,11.62,11.62,0,0,1,2.8,1.95c.35.31.7.64,1,1a2.5,2.5,0,0,1,.35.4c.11.16.21.29.3.4a9,9,0,0,1,1.15,1.4.17.17,0,0,1,.05.1A11.91,11.91,0,0,1,243,19.9Z" transform="translate(-0.25 -2.25)"/></g></g><g class="cls-4"><path class="cls-5" d="M241.39,209.53,444.5,388.13q-.64,3.47-1.41,6.82L431.2,384.5l-74.86,85.13-4.55-4,9.78-11.13-31.1-27.35,4-4.54L365.57,450l61.08-69.47-65.92-58-4.54-4L295.5,265.18l-61.08,69.46,28.75,25.28-4,4.55-28.75-25.29-4.52,5.15-4.55-4L291,261.18l-49-43.1-87.1,99-4,4.54-29.93,34-4,4.55-15.29,17.38a52.19,52.19,0,0,0-4.57-4Z" transform="translate(-0.25 -2.25)"/><polygon class="cls-5" points="360.48 320.29 299.4 389.75 320.66 408.44 316.66 412.99 273.34 374.89 277.33 370.35 294.85 385.75 355.94 316.29 360.48 320.29"/><path class="cls-5" d="M327.1,502.89l21.31,18.74q-2.64,1.7-5.34,3.36l-20-17.56L284,551.89q-4.58,1.38-9.15,2.53l-17.95-15.78,4-4.55,17.3,15.22L335,484.71l4.55,4Z" transform="translate(-0.25 -2.25)"/><path class="cls-5" d="M248.41,523.1l-3.93,4.48-11.84-10.41-32,36.38c-2-.74-4-1.55-5.92-2.44L232,508.7Z" transform="translate(-0.25 -2.25)"/><path class="cls-5" d="M226.6,448.65l-65.46,74.43c-1.21-1.69-2.37-3.43-3.49-5.2l60.46-68.75-13.7-12.06,3.93-4.48Z" transform="translate(-0.25 -2.25)"/><polygon class="cls-5" points="215.16 354.01 204.19 366.48 150.59 319.42 154.59 314.88 203.64 357.93 210.61 350.01 215.16 354.01"/><rect class="cls-5" x="147.95" y="343.48" width="6.05" height="85.39" transform="translate(-238.99 242.34) rotate(-48.68)"/><path class="cls-6" d="M360.73,322.54l65.92,58L365.57,450l-31.1-27.35-4,4.54,31.1,27.35-9.78,11.13,4.55,4L431.2,384.5,443.09,395q.77-3.36,1.41-6.82L241.39,209.53,97.06,373.67a52.19,52.19,0,0,1,4.57,4l15.29-17.38" transform="translate(-0.25 -2.25)"/><polyline class="cls-6" points="154.59 314.88 241.69 215.83 290.71 258.93 221.1 338.08 225.65 342.08 230.17 336.93 258.92 362.22 262.92 357.67 234.17 332.39 295.25 262.93 355.94 316.29"/><line class="cls-6" x1="120.66" y1="353.46" x2="150.59" y2="319.42"/><path class="cls-6" d="M348.41,521.63,327.1,502.89l12.47-14.18-4.55-4-56.81,64.6-17.3-15.22-4,4.55,17.95,15.78q4.58-1.15,9.15-2.53l39.09-44.46,20,17.56Q345.77,523.33,348.41,521.63Z" transform="translate(-0.25 -2.25)"/><path class="cls-6" d="M200.65,553.55l32-36.38,11.84,10.41,3.93-4.48L232,508.7l-37.3,42.41C196.67,552,198.65,552.81,200.65,553.55Z" transform="translate(-0.25 -2.25)"/><polygon class="cls-6" points="150.59 319.42 204.19 366.48 215.16 354.01 210.61 350.01 203.64 357.93 154.59 314.88 150.59 319.42"/><polygon class="cls-6" points="355.94 316.29 294.85 385.75 277.33 370.35 273.34 374.89 316.66 412.99 320.66 408.44 299.4 389.75 360.48 320.29 355.94 316.29"/><path class="cls-6" d="M161.14,523.08l65.46-74.43-18.26-16.06-3.93,4.48,13.7,12.06-60.46,68.75C158.77,519.65,159.93,521.39,161.14,523.08Z" transform="translate(-0.25 -2.25)"/><rect class="cls-6" x="147.95" y="343.48" width="6.05" height="85.39" transform="translate(-238.97 242.27) rotate(-48.67)"/></g><path class="cls-3" d="M210.88,229.25a20.4,20.4,0,0,0-20.38,20.37,2.6,2.6,0,1,0,5.2,0,15.18,15.18,0,0,1,30.35,0,2.6,2.6,0,1,0,5.2,0A20.4,20.4,0,0,0,210.88,229.25Z" transform="translate(-0.25 -2.25)"/><path class="cls-7" d="M34.19,172.9a2.6,2.6,0,0,0,3.69,3.67l16.74-16.82v31.66a17.09,17.09,0,0,0-14.48,16.86,2.6,2.6,0,1,0,5.19,0,11.86,11.86,0,0,1,23.71-.6,35.2,35.2,0,0,0-14.42,28.38,2.6,2.6,0,0,0,5.2,0,30.06,30.06,0,0,1,60.12-.64H103.88a2.6,2.6,0,1,0,0,5.2h94.56a2.6,2.6,0,1,0,0-5.2h-73.3a35.19,35.19,0,0,0-51.23-30.76,17.13,17.13,0,0,0-14.09-13.24V159.74l16.73,16.82a2.61,2.61,0,0,0,1.85.77,2.56,2.56,0,0,0,1.83-.76,2.6,2.6,0,0,0,0-3.68L59.82,152.37v-5.83l16.74,16.82a2.6,2.6,0,0,0,3.67,0,2.6,2.6,0,0,0,0-3.68L59.82,139.16V133l16.74,16.82a2.58,2.58,0,0,0,1.84.76,2.6,2.6,0,0,0,1.85-4.43L59.83,125.59V119.4l16.73,16.82a2.6,2.6,0,0,0,3.69-3.67L59.07,111.27a2.68,2.68,0,0,0-3.69,0L34.21,132.55a2.6,2.6,0,1,0,3.68,3.67L54.63,119.4v6.19L34.21,146.12a2.6,2.6,0,1,0,3.69,3.67L54.63,133v6.19L34.21,159.68a2.61,2.61,0,0,0,3.69,3.68l16.74-16.82v5.83Z" transform="translate(-0.25 -2.25)"/><path class="cls-7" d="M179.2,192.54a2.6,2.6,0,1,0,3.68,3.67l25.37-25.49v47.61a2.6,2.6,0,0,0,5.2,0v-47.6l25.36,25.48a2.61,2.61,0,0,0,3.67,0,2.6,2.6,0,0,0,0-3.68l-29-29.19V152.14l25.36,25.48a2.6,2.6,0,1,0,3.68-3.67l-29-29.19V133.05l25.36,25.48a2.6,2.6,0,1,0,3.68-3.67l-29-29.18V114l25.36,25.48a2.6,2.6,0,1,0,3.68-3.67l-29.8-30a2.68,2.68,0,0,0-3.69,0l-29.8,30a2.6,2.6,0,1,0,3.68,3.67L208.25,114v11.72L179.2,154.86a2.6,2.6,0,1,0,3.68,3.67L208.25,133v11.72L179.2,174a2.6,2.6,0,1,0,3.68,3.67l25.37-25.49v11.22Z" transform="translate(-0.25 -2.25)"/><path class="cls-7" d="M96.59,136.23a2.6,2.6,0,0,0,3.69,3.67l22.44-22.55v35a28.24,28.24,0,0,0-25.34,28.05,2.6,2.6,0,1,0,5.2,0,23,23,0,0,1,45.9-1.59,19.68,19.68,0,0,0-3.18-.28A20.38,20.38,0,0,0,125,198.43H113.69a2.6,2.6,0,1,0,0,5.2H145.3a2.6,2.6,0,0,0,0-5.2H130.15a15.16,15.16,0,0,1,30.32.5,2.6,2.6,0,0,0,5.2,0,20.38,20.38,0,0,0-11.91-18.5,28.19,28.19,0,0,0-25.84-28.07v-35l22.44,22.55a2.61,2.61,0,0,0,3.67,0,2.6,2.6,0,0,0,0-3.68L127.92,110v-9.4l22.43,22.55a2.6,2.6,0,1,0,3.69-3.67L127.92,93.21V83.37l22.43,22.55a2.6,2.6,0,0,0,1.85.76,2.56,2.56,0,0,0,1.83-.76,2.6,2.6,0,0,0,0-3.68L127.92,76V66.15L150.35,88.7A2.6,2.6,0,1,0,154,85L127.16,58h0a2.61,2.61,0,0,0-1.84-.76,2.67,2.67,0,0,0-1,.2,2.48,2.48,0,0,0-.83.56h0L96.59,85a2.6,2.6,0,0,0,3.69,3.67l22.44-22.55V76L96.59,102.24a2.61,2.61,0,0,0,3.69,3.68l22.44-22.55v9.84L96.59,119.46a2.6,2.6,0,0,0,3.69,3.67l22.44-22.55V110Z" transform="translate(-0.25 -2.25)"/><path class="cls-7" d="M98.43,265.32h40.62a2.6,2.6,0,0,0,0-5.2H98.43a2.6,2.6,0,0,0,0,5.2Z" transform="translate(-0.25 -2.25)"/><path class="cls-8" d="M191.66,250.36a2.6,2.6,0,0,0-2.6-2.6H148.45a2.6,2.6,0,0,0,0,5.2h40.61A2.59,2.59,0,0,0,191.66,250.36Z" transform="translate(-0.25 -2.25)"/><path class="cls-7" d="M24.91,248H65.52a2.6,2.6,0,0,0,0-5.2H24.91a2.6,2.6,0,1,0,0,5.2Z" transform="translate(-0.25 -2.25)"/><path class="cls-7" d="M154.3,260.12a2.6,2.6,0,0,0,0,5.2h10.62a2.6,2.6,0,0,0,0-5.2Z" transform="translate(-0.25 -2.25)"/><path class="cls-7" d="M142.12,208.75a2.6,2.6,0,1,0,0,5.2h10.62a2.6,2.6,0,1,0,0-5.2Z" transform="translate(-0.25 -2.25)"/></g></g></svg>