<svg xmlns="http://www.w3.org/2000/svg" viewBox="0 0 458.92 550.23"><defs><style>.cls-1,.cls-6,.cls-7{fill:#7147dd;}.cls-1{opacity:0.2;}.cls-2{opacity:0.3;}.cls-3{fill:none;}.cls-4{fill:#26a6b5;}.cls-5,.cls-7{opacity:0.8;}</style></defs><title>mp</title><g id="Layer_2" data-name="Layer 2"><g id="Layer_1-2" data-name="Layer 1"><path class="cls-1" d="M0,2.53C43.59-2,147.23-6.86,256,50.53c37.11,19.58,124.55,65.72,171,167,43.91,95.74,48.11,234-23,299-8.52,7.79-31.4,28.69-65,33-37.25,4.78-55.31-15-144-56-69.68-32.22-93.92-36.38-109-38a236.42,236.42,0,0,0-86,7"/><g class="cls-2"><polygon class="cls-3" points="53.94 396.32 86.33 396.32 70.14 371.12 53.94 396.32"/><path class="cls-3" d="M70.14,423.21a19.51,19.51,0,0,0,19.21-16.38H50.92A19.51,19.51,0,0,0,70.14,423.21Z"/><path class="cls-3" d="M241,423.21a19.51,19.51,0,0,0,19.21-16.38H221.73A19.54,19.54,0,0,0,241,423.21Z"/><polygon class="cls-3" points="257.16 396.32 240.96 371.12 224.76 396.32 257.16 396.32"/><polygon class="cls-3" points="162.59 381.65 154.38 359.35 145.5 381.71 154.01 390.89 162.59 381.65"/><path class="cls-3" d="M427,217.53c-46.45-101.28-133.89-147.42-171-167C147.23-6.86,43.59-2,0,2.53v460a236.42,236.42,0,0,1,86-7c7.12.77,16.27,2.1,31.27,6.67V372.8c-.28-3-2.89-8-3.24-8H78.56l20.35,31.68a5.17,5.17,0,0,1,1.13,10,30,30,0,0,1-59.78.36H39.6a5.26,5.26,0,1,1,0-10.51h1.84l20.28-31.54H57.6c-9.49,0-17.51-8.43-17.51-18.4s8-18.4,17.51-18.4h45.92a5.26,5.26,0,1,1,0,10.51H57.6c-3.6,0-7,3.83-7,7.89s3.4,7.88,7,7.88c0,0,60-.08,61.07.28,7.06,2.4,8.71,13.27,9.1,17.83v93.25c6.13,2.11,13,4.68,20.92,7.81V425.86a5.26,5.26,0,1,1,10.51,0v51.86c6.39,2.67,13.33,5.66,20.88,9V372.8s-1.33-18.54,7.55-18.54h63.84c3.6,0,7-3.83,7-7.89s-3.4-7.88-7-7.88H173.3a56.9,56.9,0,0,1-6.58,1.84A5.26,5.26,0,0,1,165.4,330c1.28-.33,4.76-1.65,5.32-1.78a45,45,0,1,0-32.26.47,5.26,5.26,0,1,1-3.64,9.87,55.66,55.66,0,1,1,56-10.57h60.63C261,328,269,336.4,269,346.37s-8,18.4-17.52,18.4h-2.1l20.27,31.55h2.09a5.26,5.26,0,1,1,0,10.51h-.91a30,30,0,0,1-59.76,0h-2.41a5.26,5.26,0,1,1,0-10.51h3.6l20.28-31.55H191.73a23.31,23.31,0,0,0-1.13,7.94v118c0,.28,0,.55,0,.82l4.44,2c88.69,41,106.75,60.78,144,56,33.6-4.31,56.48-25.21,65-33C475.11,451.55,470.91,313.27,427,217.53ZM167.62,269.16a6.14,6.14,0,1,1-6.15,6.14A6.14,6.14,0,0,1,167.62,269.16Zm-27.6,0a6.14,6.14,0,1,1-6.14,6.14A6.15,6.15,0,0,1,140,269.16Zm-2.36,32a5.26,5.26,0,0,1,6.47-8.29,16.28,16.28,0,0,0,19.53-.11,5.26,5.26,0,1,1,6.13,8.54A26.7,26.7,0,0,1,154,306.55,27.63,27.63,0,0,1,137.66,301.15Zm-3.15,79.78,15.16-38.24a5.28,5.28,0,0,1,4.89-3.32h.07a5.26,5.26,0,0,1,4.86,3.44l14.09,38.24a5.26,5.26,0,0,1-1.08,5.38L157.87,402.2a5.27,5.27,0,0,1-7.72,0l-14.61-15.77A5.25,5.25,0,0,1,134.51,380.93Z"/><path class="cls-4" d="M169.79,301.29a5.26,5.26,0,1,0-6.13-8.54,16.28,16.28,0,0,1-19.53.11,5.26,5.26,0,0,0-6.47,8.29,27.63,27.63,0,0,0,16.35,5.4A26.7,26.7,0,0,0,169.79,301.29Z"/><path class="cls-4" d="M140,281.43a6.14,6.14,0,1,0-6.14-6.13A6.15,6.15,0,0,0,140,281.43Z"/><path class="cls-4" d="M167.62,281.43a6.14,6.14,0,1,0-6.15-6.13A6.14,6.14,0,0,0,167.62,281.43Z"/><path class="cls-4" d="M190.6,372.71a23.31,23.31,0,0,1,1.13-7.94h40.81l-20.28,31.55h-3.6a5.26,5.26,0,1,0,0,10.51h2.41a30,30,0,0,0,59.76,0h.91a5.26,5.26,0,1,0,0-10.51h-2.09l-20.27-31.55h2.1c9.49,0,17.52-8.42,17.52-18.4S261,328,251.48,328H190.85a55.57,55.57,0,1,0-56,10.57,5.26,5.26,0,1,0,3.64-9.87,45.14,45.14,0,1,1,32.26-.47c-.56.13-4,1.45-5.32,1.78a5.26,5.26,0,0,0,1.32,10.35,56.9,56.9,0,0,0,6.58-1.84h78.18c3.6,0,7,3.83,7,7.88s-3.4,7.89-7,7.89H187.64c-8.88,0-7.55,18.54-7.55,18.54v114q5.06,2.25,10.47,4.74c0-.27,0-.54,0-.82ZM241,423.21a19.54,19.54,0,0,1-19.23-16.38h38.44A19.51,19.51,0,0,1,241,423.21Zm16.2-26.89h-32.4l16.2-25.2Z"/><path class="cls-4" d="M154,420.6a5.25,5.25,0,0,0-5.26,5.26v47.57q5,2,10.51,4.29V425.86A5.25,5.25,0,0,0,154,420.6Z"/><path class="cls-4" d="M118.67,354.54c-1.06-.36-61.07-.28-61.07-.28-3.6,0-7-3.82-7-7.88s3.4-7.89,7-7.89h45.92a5.26,5.26,0,1,0,0-10.51H57.6c-9.49,0-17.51,8.42-17.51,18.4s8,18.4,17.51,18.4h4.12L41.44,396.32H39.6a5.26,5.26,0,1,0,0,10.51h.66a30,30,0,0,0,59.78-.36,5.17,5.17,0,0,0-1.13-10L78.56,364.77H114c.35,0,3,5,3.24,8v89.4q4.83,1.47,10.51,3.42V372.37C127.38,367.81,125.73,356.94,118.67,354.54ZM70.14,423.21a19.51,19.51,0,0,1-19.22-16.38H89.35A19.51,19.51,0,0,1,70.14,423.21Zm16.19-26.89H53.94l16.2-25.2Z"/></g><g class="cls-5"><path class="cls-6" d="M367.64,79.15a21.06,21.06,0,0,0,9.86-13.94,21.35,21.35,0,0,0-41.81-8.65,21,21,0,0,0,3.52,16.71,38.5,38.5,0,0,0-29.36,25.32,86.49,86.49,0,0,0-16.23-11.5A39.47,39.47,0,0,0,319.5,57.57a39.85,39.85,0,1,0-66,21.22A65.39,65.39,0,0,0,234,82.9,38.51,38.51,0,0,0,217.13,48,21,21,0,0,0,227,34.07a21.35,21.35,0,0,0-41.81-8.65,21.06,21.06,0,0,0,3.52,16.71,38.66,38.66,0,0,0-30.62,30,4.27,4.27,0,0,0,8.36,1.73A29.88,29.88,0,0,1,225,86l-.17.83A75.19,75.19,0,0,0,185,138.73a4.27,4.27,0,1,0,8.36,1.73,66.89,66.89,0,1,1,131,27.1,4.27,4.27,0,1,0,8.36,1.73,74.8,74.8,0,0,0-15.93-63.46L317,105a29.88,29.88,0,0,1,58.53,12.11,4.27,4.27,0,0,0,8.36,1.73A38.67,38.67,0,0,0,367.64,79.15Zm-174.1-52a12.81,12.81,0,1,1,10,15.13A12.76,12.76,0,0,1,193.54,27.15Zm56.28,16a31.3,31.3,0,1,1,24.31,37A31.22,31.22,0,0,1,249.82,43.15Zm94.23,15.14A12.81,12.81,0,1,1,354,73.42,12.76,12.76,0,0,1,344.05,58.29Z"/></g><path class="cls-7" d="M300,136.74a21.27,21.27,0,0,0-16.1-13.5c-2.51-.52-5.25.07-8.1,1.23a36.72,36.72,0,0,0-8.91,5.13l-3.37,2.21-1.55-2.35-.94-1.07-1.32-2a43.91,43.91,0,0,0-5.6-6.68,13.22,13.22,0,0,0-6.5-3.67,21.05,21.05,0,0,0-10.56.43h0a20.45,20.45,0,0,0-9,5.41,16.42,16.42,0,0,0-1.58,2c-3.32,4.84-3.86,10.25-2.4,17.23-.06.28-.06.28.16.62a41.86,41.86,0,0,0,3,7.89,52.2,52.2,0,0,0,6.79,10.71c3.54,5.38,11.84,15.82,16.5,21.43.88,1.34,1.82,2.41,2.26,3.08,1-.38,2.3-1.27,3.93-2.09,6.89-3.81,18.37-10.15,23.08-13.25,7.29-4.3,12.9-8.95,16.45-13.45,4.33-5.5,5.76-11,4.63-16.77A15.65,15.65,0,0,1,300,136.74Z"/></g></g></svg>