<svg xmlns="http://www.w3.org/2000/svg" viewBox="0 0 447.1 575.36"><defs><style>.cls-1,.cls-4{fill:#7147dd;}.cls-1,.cls-2{opacity:0.2;}.cls-3{fill:none;}.cls-5{opacity:0.7;}.cls-6,.cls-7{fill:#26a6b5;}.cls-7{stroke:#26a6b5;stroke-miterlimit:10;stroke-width:2px;}</style></defs><title>mz</title><g id="Layer_2" data-name="Layer 2"><g id="Layer_1-2" data-name="Layer 1"><path class="cls-1" d="M0,23.09c129.37-20.55,188.79,7.67,219,39,43.75,45.37,28.85,100,90,147,43.15,33.17,71.68,22.2,104,61,35.84,43,34.32,96.81,34,108-2.18,76.91-55.81,125.05-68,136-47.33,42.49-135.55,82-192,49-68.7-40.19-43.32-160.32-104-181-28.69-9.78-60.86,8-83,24"/><rect class="cls-1" x="252" y="313.76" width="9.33" height="14"/><rect class="cls-1" x="270.67" y="313.76" width="9.33" height="14"/><g class="cls-2"><path class="cls-3" d="M195.72,495.76a4.68,4.68,0,0,1-4.67-3.74l-4.66-23-9.34,51a4.64,4.64,0,0,1-9.05.37l-10.17-37.89-4.16,10.41a4.66,4.66,0,0,1-4.34,2.94h-8.74c8.77,27.28,21.3,52.64,46.41,67.33,15.17,8.88,32.63,12.5,51,12.25q-.14-39.8-.26-79.58Z"/><circle class="cls-3" cx="266" cy="411.76" r="18.67"/><path class="cls-3" d="M228.67,393.09v32.67a4.66,4.66,0,0,0,4.66,4.66h11.86a28,28,0,0,1,0-37.33Z"/><path class="cls-3" d="M363.21,374.42H168.79A14,14,0,0,0,182,383.76H350A14,14,0,0,0,363.21,374.42Z"/><path class="cls-3" d="M270.39,365.09a45.09,45.09,0,0,1-4.39-5.27,52.13,52.13,0,0,1-4.34,5.27Z"/><path class="cls-3" d="M286.81,430.42h11.86a4.66,4.66,0,0,0,4.66-4.66V393.09H286.81A28,28,0,0,1,286.81,430.42Z"/><path class="cls-3" d="M289.33,453.76h9.34a28,28,0,0,0,28-28V393.09h-14v32.67a14,14,0,0,1-14,14H233.33a14,14,0,0,1-14-14V393.09h-14v32.67a28,28,0,0,0,28,28h9.34a4.66,4.66,0,0,1,4.66,4.66l-.3,116.5c4.65-.37,9.33-1,14-1.79l.27-86.71a4.67,4.67,0,0,1,9.34,0q-.3,42.46-.58,84.92,7.44-1.68,14.89-4-.17-54.47-.31-108.93A4.66,4.66,0,0,1,289.33,453.76Z"/><path class="cls-3" d="M413,270.09c-32.32-38.8-60.85-27.83-104-61-61.15-47-46.25-101.63-90-147-30.21-31.33-89.63-59.55-219-39v383c22.14-16,54.31-33.78,83-24,36,12.27,41.71,59.53,54.74,104.33h8.42L154.51,466a4.67,4.67,0,0,1,8.82.51l8.4,31.74L182,443.58a4.77,4.77,0,0,1,9.33-.09l8.5,42.93H238V463.09h-4.67A37.33,37.33,0,0,1,196,425.76V393.09H182a23.33,23.33,0,0,1-23.33-23.33,4.67,4.67,0,0,1,4.66-4.67H224c-11.29-11.71-18.67-32.67-18.67-51.33,0-31,19.28-42,37.34-42a38.25,38.25,0,0,1,19,4.66,28,28,0,0,1,27.62-23.33v9.33A18.67,18.67,0,0,0,271.46,276a38.82,38.82,0,0,1,17.87-4.2c18.06,0,37.34,11,37.34,42,0,18.66-7.52,39.62-18.67,51.33h60.67a4.67,4.67,0,0,1,4.66,4.67A23.33,23.33,0,0,1,350,393.09H336v32.67a37.33,37.33,0,0,1-37.33,37.33H294v23.33h24.83L327.18,466a4.67,4.67,0,0,1,8.82.51l8.4,31.74,10.27-54.7a4.77,4.77,0,0,1,9.33-.09l8.49,42.93h32.89c18.86-23.54,40.26-60.33,41.62-108.33C447.32,366.9,448.84,313.12,413,270.09Z"/><path class="cls-3" d="M242.67,365.09c5.22,0,10.82-3.78,15.72-10.69a9.36,9.36,0,0,1,15.22,0c4.9,6.91,10.5,10.69,15.72,10.69,14,0,28-25.9,28-51.33,0-20.77-10.22-32.67-28-32.67a28.08,28.08,0,0,0-15.82,4.34,13.7,13.7,0,0,1-15,0,28.08,28.08,0,0,0-15.82-4.34c-17.78,0-28,11.9-28,32.67C214.67,339.19,228.67,365.09,242.67,365.09Z"/><path class="cls-3" d="M364,492l-4.67-23-9.61,51a4.64,4.64,0,0,1-9.05.37l-10.18-37.89-4.15,10.41a4.68,4.68,0,0,1-4.34,2.94H294v68.6c32.3-11.49,63.05-30.56,85-50.27a229.61,229.61,0,0,0,18.46-18.33H368.67A4.67,4.67,0,0,1,364,492Z"/><path class="cls-4" d="M266,481.76a4.67,4.67,0,0,0-4.67,4.66l-.27,86.71q4.5-.76,9-1.79.29-42.45.58-84.92A4.67,4.67,0,0,0,266,481.76Z"/><path class="cls-4" d="M364,443.49a4.77,4.77,0,0,0-9.33.09l-10.27,54.7L336,466.54a4.67,4.67,0,0,0-8.82-.51l-8.35,20.39H294V463.09h4.67A37.33,37.33,0,0,0,336,425.76V393.09h14a23.33,23.33,0,0,0,23.33-23.33,4.67,4.67,0,0,0-4.66-4.67H308c11.15-11.71,18.67-32.67,18.67-51.33,0-31-19.28-42-37.34-42a38.82,38.82,0,0,0-17.87,4.2,18.67,18.67,0,0,1,17.87-13.54v-9.33a28,28,0,0,0-27.62,23.33,38.25,38.25,0,0,0-19-4.66c-18.06,0-37.34,11-37.34,42,0,18.66,7.38,39.62,18.67,51.33H163.33a4.67,4.67,0,0,0-4.66,4.67A23.33,23.33,0,0,0,182,393.09h14v32.67a37.33,37.33,0,0,0,37.33,37.33H238v23.33H199.83l-8.5-42.93a4.77,4.77,0,0,0-9.33.09l-10.27,54.7-8.4-31.74a4.67,4.67,0,0,0-8.82-.51l-8.35,20.39h-8.42c.91,3.13,1.85,6.25,2.85,9.34h8.74a4.66,4.66,0,0,0,4.34-2.94l4.16-10.41L168,520.3a4.64,4.64,0,0,0,9.05-.37l9.34-51,4.66,23a4.68,4.68,0,0,0,4.67,3.74h42q.14,39.79.26,79.58,4.5-.06,9.05-.42l.3-116.5a4.66,4.66,0,0,0-4.66-4.66h-9.34a28,28,0,0,1-28-28V393.09h14v32.67a14,14,0,0,0,14,14h65.34a14,14,0,0,0,14-14V393.09h14v32.67a28,28,0,0,1-28,28h-9.34a4.66,4.66,0,0,0-4.66,4.66q.15,54.46.31,108.93,4.51-1.4,9-3v-68.6h28a4.68,4.68,0,0,0,4.34-2.94l4.15-10.41,10.18,37.89a4.64,4.64,0,0,0,9.05-.37l9.61-51L364,492a4.67,4.67,0,0,0,4.67,3.74h28.79c2.54-2.84,5.21-5.95,7.92-9.34H372.49ZM214.67,313.76c0-20.77,10.22-32.67,28-32.67a28.08,28.08,0,0,1,15.82,4.34,13.7,13.7,0,0,0,15,0,28.08,28.08,0,0,1,15.82-4.34c17.78,0,28,11.9,28,32.67,0,25.43-14,51.33-28,51.33-5.22,0-10.82-3.78-15.72-10.69a9.36,9.36,0,0,0-15.22,0c-4.9,6.91-10.5,10.69-15.72,10.69C228.67,365.09,214.67,339.19,214.67,313.76Zm55.72,51.33h-8.73a52.13,52.13,0,0,0,4.34-5.27A45.09,45.09,0,0,0,270.39,365.09Zm-25.2,65.33H233.33a4.66,4.66,0,0,1-4.66-4.66V393.09h16.52A28,28,0,0,0,245.19,430.42Zm20.81,0a18.67,18.67,0,1,1,18.67-18.66A18.66,18.66,0,0,1,266,430.42Zm37.33-4.66a4.66,4.66,0,0,1-4.66,4.66H286.81a28,28,0,0,0,0-37.33h16.52ZM182,383.76a14,14,0,0,1-13.21-9.34H363.21A14,14,0,0,1,350,383.76Z"/></g><g class="cls-5"><path class="cls-6" d="M94.73,205.17a94.7,94.7,0,0,0,90.49,28.35,92.8,92.8,0,0,0,43.14-22.62,93.88,93.88,0,0,0,18-117.08c2.54-3.53,4.62-9.18,2.21-18.29-.39-1.76-11.9-43.31-19.89-60.8C224.24,5,215.68-.17,205,0c-1.84.05-6.67,0-9.21,3.55a4.16,4.16,0,0,0,1,6.08c1.81,1.45,4.64.82,6.16-.64a8.11,8.11,0,0,1,2.2-.12c7-.08,12.21,3.21,15.47,9.52,7.91,17.14,19.5,59,19.58,59.39,1.53,5.22,1.26,9-1.25,11l-1.53,1.45q-3.75,3.08-11.06.25c-.43-.27-41.22-15.26-57.4-24.62-6-3.48-9.08-9.09-8.11-16.35a14.75,14.75,0,0,1,.32-1.92,4.3,4.3,0,0,0,1.28-5.85c-1.25-2.32-4-2.82-6.28-1.56-3.92,2.35-4.38,6.91-4.34,8.75a25.35,25.35,0,0,0,12.62,25c17,9.56,57.05,24.7,59,25,5.65,2.08,10.12,2.19,13.65,1.4a7,7,0,0,0,2.75-1A85.47,85.47,0,0,1,102.26,199c-22.67-23.48-29-56.9-18-87.17a21.17,21.17,0,0,0,8.43-.41A25.94,25.94,0,0,0,104,105.6c9.8-9.23,10.8-24.65,1.57-34.45a25,25,0,0,0-17-8.07,23.6,23.6,0,0,0-17.46,6.5,24.88,24.88,0,0,0-8.06,17A23.55,23.55,0,0,0,69.54,104a29,29,0,0,0,6.29,4.89C63.66,142.42,70.73,179,94.73,205.17ZM71.64,86.88a15.63,15.63,0,0,1,5-10.75,15.16,15.16,0,0,1,6.94-3.78,15.79,15.79,0,0,1,14.72,4.5,15.08,15.08,0,0,1-1.07,21.74c-6.55,5.54-16.2,5.47-21.74-1.08A14.69,14.69,0,0,1,71.64,86.88Z"/></g><g class="cls-5"><g id="a"><path class="cls-7" d="M195.5,118.39a7.78,7.78,0,0,0-.75-.9c-.42-.41-.83-.79-1.25-1.15a16.3,16.3,0,0,0-3.95-2.75l0,0a18.84,18.84,0,0,0-9-2.2h-.45l-.6.1h-.45a9.25,9.25,0,0,0-1,0l-.6.1h.05l-1.65.3a14.3,14.3,0,0,0-2.85.9,19.87,19.87,0,0,0-6.75,4.65v-.05l-.55.7c-.19.2-.39.41-.6.65h0a18,18,0,0,0-2.2,3.4,17.27,17.27,0,0,0-3.3-4.7h0a18.85,18.85,0,0,0-14.15-6.1,19.08,19.08,0,0,0-14.25,6.1h0a20.24,20.24,0,0,0-5.85,14.65,20.5,20.5,0,0,0,4.6,13.3l31,41.1a2.31,2.31,0,0,0,1.25.85,2.15,2.15,0,0,0,1.5,0,2.31,2.31,0,0,0,1.25-.85l31-41.15-.05.05a20.77,20.77,0,0,0,4.7-13.3v-1.05a4.16,4.16,0,0,0,0-.5.84.84,0,0,0-.05-.2,23.26,23.26,0,0,0-1-5.25l-.05,0V125a17.37,17.37,0,0,0-2.4-4.65l.05.1a15,15,0,0,0-1.65-2.1m-.75,8.35a20.5,20.5,0,0,1,.75,3.6,2.32,2.32,0,0,0,.15,1.4v.45a15.93,15.93,0,0,1-3.6,10.2l-.05.05-29,38.5L134,142.44a.23.23,0,0,1,0-.1,16.32,16.32,0,0,1,.95-21.3V121a14.3,14.3,0,0,1,10.65-4.55A14.12,14.12,0,0,1,156.05,121V121q4.17,4.44,4.45,13.2v.3a2.41,2.41,0,0,0,.7,1.75,2.53,2.53,0,0,0,3.55.05,2.4,2.4,0,0,0,.75-1.75v-.05q.15-8.16,3.5-12.5l.05-.05a3.27,3.27,0,0,0,.3-.35.81.81,0,0,0,.25-.3l.25-.3.05-.05a15.08,15.08,0,0,1,5-3.45.33.33,0,0,0,.15-.05,8.88,8.88,0,0,1,1.85-.6l1.3-.25a.09.09,0,0,0,.1,0l.6-.1h.65a.7.7,0,0,0,.25-.05l.65,0h.1a13.74,13.74,0,0,1,6.7,1.6.46.46,0,0,1,.1,0,11.62,11.62,0,0,1,2.8,2c.35.31.7.65,1,1a2.5,2.5,0,0,1,.35.4c.11.16.21.29.3.4a9,9,0,0,1,1.15,1.4.17.17,0,0,1,.05.1A11.91,11.91,0,0,1,194.75,126.74Z"/></g></g></g></g></svg>